<svg width="290" height="194" viewBox="0 0 290 194" fill="none" xmlns="http://www.w3.org/2000/svg">
  <path
    d="M149.643 15.5472C149.643 15.5472 149.297 63.4652 123.651 59.1692C98.6499 54.9816 107.779 10.7336 107.779 10.7336C107.779 10.7336 127.82 25.4315 149.643 15.5472Z"
    fill="#EBEBEB" />
  <path
    d="M124.088 31.8122C120.717 30.0821 117.485 28.0804 114.433 25.8315C113.457 27.4592 113.551 29.6367 114.561 31.2434C115.57 32.8505 117.417 34.125 119.303 33.9749C121.387 33.8092 122.68 33.0825 124.088 31.8122Z"
    fill="#E0E0E0" />
  <path
    d="M141.935 28.1471C138.635 30.0099 135.186 31.6065 131.632 32.916C132.444 34.6317 134.305 35.7566 136.197 35.8004C138.09 35.8442 140.169 35.0046 141.087 33.3436C142.101 31.5087 142.212 30.0262 141.935 28.1471Z"
    fill="#E0E0E0" />
  <path
    d="M118.287 45.8387C118.027 45.7557 117.869 45.3692 117.878 44.7057C117.896 44.0485 118.113 43.12 118.662 42.0794C119.215 41.05 120.095 39.8907 121.424 38.9571C122.078 38.4807 122.848 38.0694 123.711 37.771C124.571 37.475 125.529 37.2755 126.537 37.2942C128.56 37.3202 130.365 38.0969 131.64 39.1073C132.942 40.1103 133.774 41.3243 134.259 42.3991C134.743 43.4816 134.892 44.4283 134.859 45.0872C134.817 45.751 134.627 46.1235 134.361 46.1848C133.792 46.3152 133.123 45.2067 131.878 43.9658C131.257 43.3474 130.487 42.6881 129.559 42.19C128.641 41.6751 127.579 41.3534 126.502 41.3352C125.963 41.3204 125.419 41.414 124.893 41.5482C124.366 41.684 123.853 41.878 123.379 42.1228C122.413 42.5865 121.605 43.2209 120.936 43.799C119.603 44.9684 118.843 46.0133 118.287 45.8387Z"
    fill="#E0E0E0" />
  <path
    d="M232.468 31C228.855 29.8659 225.333 28.4404 221.947 26.741C221.258 28.5106 221.717 30.6408 222.982 32.0535C224.248 33.4662 226.282 34.4102 228.117 33.9422C230.143 33.4258 231.295 32.4904 232.468 31Z"
    fill="#E0E0E0" />
  <path
    d="M249.443 24.3641C246.504 26.7593 243.373 28.9169 240.09 30.8096C241.18 32.3631 243.203 33.1566 245.075 32.8792C246.948 32.6018 248.856 31.4222 249.481 29.6293C250.172 27.6493 250.032 26.1695 249.443 24.3641Z"
    fill="#E0E0E0" />
  <path
    d="M229.111 45.8077C228.84 45.7701 228.619 45.4163 228.517 44.7601C228.424 44.1095 228.481 43.1577 228.847 42.0387C229.22 40.9306 229.892 39.6385 231.045 38.4932C231.609 37.9127 232.299 37.3773 233.099 36.9369C233.897 36.4992 234.808 36.1403 235.805 35.9879C237.803 35.6705 239.713 36.1303 241.139 36.9101C242.591 37.678 243.616 38.7337 244.274 39.7111C244.934 40.6962 245.24 41.6042 245.318 42.2591C245.388 42.9206 245.264 43.3199 245.012 43.4254C244.473 43.6501 243.626 42.6712 242.191 41.6589C241.475 41.1545 240.605 40.6353 239.606 40.3013C238.615 39.9493 237.514 39.8124 236.449 39.9765C235.915 40.0533 235.395 40.2376 234.899 40.4592C234.403 40.6823 233.93 40.9605 233.503 41.2821C232.63 41.9029 231.94 42.6649 231.378 43.3478C230.262 44.7272 229.688 45.8861 229.111 45.8077Z"
    fill="#E0E0E0" />
  <path
    d="M269.783 134.361C269.783 134.361 261.019 180.14 237.241 171.486C214.06 163.049 230.581 122.337 230.581 122.337C230.581 122.337 247.166 139.949 269.783 134.361Z"
    fill="#EBEBEB" />
  <path
    d="M231.221 141.851C234.386 143.742 237.399 145.887 240.222 148.261C241.27 146.742 241.315 144.622 240.434 142.999C239.554 141.376 237.841 140.023 236 140.051C233.966 140.082 232.666 140.706 231.221 141.851Z"
    fill="#E0E0E0" />
  <path
    d="M250.054 151.287C253.538 150.09 257.118 149.174 260.749 148.551C260.273 146.766 258.692 145.36 256.889 144.983C255.087 144.605 252.95 145.04 251.779 146.467C250.486 148.042 250.12 149.441 250.054 151.287Z"
    fill="#E0E0E0" />
  <path
    d="M252.3 155.366C252.541 155.495 252.62 155.917 252.476 156.592C252.323 157.258 251.918 158.164 251.154 159.121C250.387 160.066 249.263 161.081 247.725 161.78C246.966 162.142 246.101 162.415 245.163 162.556C244.228 162.694 243.213 162.716 242.188 162.507C240.129 162.098 238.43 160.966 237.313 159.694C236.168 158.424 235.538 157.026 235.237 155.836C234.937 154.637 234.954 153.639 235.102 152.97C235.26 152.297 235.514 151.95 235.786 151.938C236.371 151.913 236.824 153.189 237.862 154.729C238.38 155.496 239.049 156.336 239.917 157.042C240.772 157.762 241.824 158.311 242.953 158.54C243.518 158.66 244.107 158.667 244.684 158.627C245.262 158.585 245.835 158.479 246.377 158.312C247.471 158.008 248.429 157.496 249.228 157.016C250.823 156.04 251.784 155.092 252.3 155.366Z"
    fill="#E0E0E0" />
  <path
    d="M20.9224 55.9892C24.0872 57.8796 27.1005 60.0252 29.9232 62.399C30.9722 60.88 31.0163 58.7603 30.1359 57.1373C29.2558 55.5143 27.5425 54.161 25.7012 54.1889C23.6677 54.2196 22.3677 54.8446 20.9224 55.9892Z"
    fill="#EBEBEB" />
  <path
    d="M39.7554 65.4253C43.2396 64.228 46.8202 63.3119 50.4506 62.6892C49.9754 60.904 48.3939 59.4983 46.5913 59.1207C44.7886 58.7432 42.6515 59.1782 41.4811 60.6048C40.1881 62.1801 39.8211 63.5789 39.7554 65.4253Z"
    fill="#EBEBEB" />
  <path
    d="M42.0013 69.5044C42.2422 69.6332 42.3207 70.0557 42.1769 70.7301C42.0245 71.3959 41.6197 72.3019 40.8549 73.2594C40.0881 74.2038 38.9644 75.2196 37.4267 75.9188C36.6673 76.2804 35.8027 76.5536 34.8646 76.694C33.9293 76.8325 32.9139 76.8546 31.8892 76.6451C29.8298 76.2362 28.1312 75.1044 27.0145 73.8321C25.8688 72.5626 25.2397 71.165 24.9385 69.9742C24.6388 68.7753 24.6555 67.7774 24.8039 67.1085C24.9613 66.4357 25.2153 66.0884 25.4876 66.0768C26.0722 66.0516 26.5261 67.3277 27.564 68.8673C28.0813 69.634 28.7503 70.4748 29.6191 71.1801C30.474 71.8999 31.5254 72.4489 32.6548 72.6778C33.2201 72.7985 33.8086 72.8051 34.3855 72.7647C34.9636 72.7228 35.537 72.6169 36.0784 72.4501C37.173 72.1463 38.1308 71.6341 38.9296 71.1545C40.5246 70.1779 41.4855 69.2301 42.0013 69.5044Z"
    fill="#EBEBEB" />
  <path
    d="M65.071 141.621C65.071 141.621 77.5847 177.479 57.2978 181.156C37.521 184.74 32.5415 149.264 32.5415 149.264C32.5415 149.264 51.417 154.856 65.071 141.621Z"
    fill="#EBEBEB" />
  <path
    d="M48.0517 158.35C45.6285 160.128 43.0626 161.71 40.3872 163.075C41.1872 164.349 42.7571 165.06 44.2512 164.916C45.7452 164.772 47.3035 163.915 47.8708 162.521C48.4972 160.98 48.4453 159.803 48.0517 158.35Z"
    fill="#E0E0E0" />
  <path
    d="M64.3648 156.779C61.3643 156.7 58.3695 156.379 55.42 155.82C55.2774 157.319 56.0874 158.844 57.3576 159.646C58.6278 160.449 60.3833 160.726 61.6813 159.97C63.1151 159.135 63.7914 158.171 64.3648 156.779Z"
    fill="#E0E0E0" />
  <path
    d="M49.9395 174.137C49.6661 174.152 49.3839 173.893 49.1557 173.351C48.9369 172.813 48.7984 171.987 48.9025 170.96C49.0138 169.941 49.3576 168.709 50.1502 167.517C50.535 166.916 51.0372 166.332 51.6551 165.811C52.2719 165.292 53.0027 164.823 53.8452 164.519C55.5346 163.899 57.2738 163.982 58.6352 164.425C60.0176 164.855 61.0685 165.607 61.7835 166.353C62.5008 167.105 62.8928 167.85 63.0429 168.414C63.1882 168.985 63.1167 169.363 62.8894 169.515C62.4072 169.835 61.4769 169.207 60.1123 168.666C59.4318 168.396 58.6349 168.14 57.7811 168.049C56.9293 167.941 56.0442 168.02 55.243 168.309C54.4434 168.61 53.6994 169.144 53.0974 169.78C52.4787 170.403 52.0167 171.119 51.6377 171.757C50.8857 173.041 50.5156 174.101 49.9395 174.137Z"
    fill="#E0E0E0" />
  <path
    d="M167.639 90.5911C166.974 87.9565 167.85 85.2161 168.313 82.5385C168.989 78.6337 168.781 74.6373 168.632 70.6766C168.483 66.7163 168.4 62.7005 169.315 58.8449C170.23 54.9893 172.262 51.2552 175.557 49.0704C178.852 46.8856 183.523 46.5826 186.666 48.9827L185.136 59.1479C186.577 73.45 186.377 87.9177 184.539 102.174C180.273 102.878 175.925 103.076 171.613 102.763C170.729 102.699 169.7 102.521 169.29 101.732C168.791 100.773 169.548 99.678 169.859 98.6417C170.267 97.281 169.873 95.8069 169.304 94.5056C168.735 93.2046 167.987 91.9688 167.639 90.5911Z"
    fill="#263238" />
  <path
    d="M180.847 51.613C182.081 50.3415 183.632 49.382 185.319 48.8462C186.007 48.6277 186.754 48.4795 187.445 48.6879C188.135 48.8962 188.734 49.5593 188.652 50.2783L184.522 56.2873C183.705 57.073 182.359 56.9647 181.339 56.4727C180.55 56.0917 179.815 55.4531 179.622 54.5952C179.375 53.5006 180.066 52.417 180.847 51.613Z"
    fill="#455A64" />
  <path
    d="M212.453 68.4677C211.61 59.8456 204.196 53.0102 195.415 53.3508C186.099 53.7121 179.048 61.5694 179.701 70.6261L183.251 107.051C183.32 107.756 183.627 108.413 184.111 108.928C186.711 111.689 190.919 113.504 194.409 113.437C197.791 113.372 201.01 111.977 203.574 109.96C204.442 109.278 204.866 108.169 204.713 107.072L203.585 98.9711C203.581 98.94 203.6 98.9121 203.631 98.9094C204.135 98.8667 205.409 98.6844 205.878 98.488C207.925 97.629 213.022 94.6732 213.58 86.3925C213.766 83.6462 213.192 76.0259 212.453 68.4677Z"
    fill="#FFBE9D" />
  <path
    d="M202.491 82.1436C202.477 82.064 203.355 81.8335 204.783 81.5243C205.146 81.4545 205.486 81.3524 205.525 81.1006C205.587 80.8321 205.398 80.4565 205.181 80.0518C204.756 79.2083 204.311 78.3241 203.843 77.3975C201.976 73.6153 200.588 70.4919 200.743 70.4197C200.898 70.3472 202.538 73.3542 204.405 77.1368C204.856 78.0699 205.288 78.9596 205.699 79.8109C205.876 80.209 206.157 80.6536 206.02 81.2112C205.947 81.4898 205.696 81.7094 205.467 81.7924C205.238 81.8836 205.033 81.9057 204.853 81.9325C203.406 82.1373 202.504 82.2231 202.491 82.1436Z"
    fill="#263238" />
  <path
    d="M211.133 74.6931C211.008 74.9283 209.839 74.1945 208.417 74.4304C206.993 74.6411 206.114 75.6957 205.92 75.5103C205.827 75.4292 205.924 75.026 206.304 74.5515C206.677 74.0805 207.368 73.5687 208.255 73.4294C209.142 73.2909 209.961 73.564 210.465 73.8985C210.978 74.2337 211.196 74.5868 211.133 74.6931Z"
    fill="#263238" />
  <path
    d="M196.961 75.5956C196.79 75.8125 195.655 74.9267 194.1 74.9694C192.545 74.9868 191.44 75.9161 191.262 75.7054C191.176 75.6127 191.341 75.2251 191.823 74.8057C192.295 74.3878 193.114 73.9726 194.083 73.9536C195.053 73.9358 195.884 74.3175 196.371 74.7172C196.865 75.1188 197.044 75.4982 196.961 75.5956Z"
    fill="#263238" />
  <path
    d="M203.578 98.9141C203.578 98.9141 198.08 99.85 190.771 96.3549C190.771 96.3549 193.626 103.38 203.942 101.505L203.578 98.9141Z"
    fill="#006060" />
  <path
    d="M202.446 85.5215C201.519 85.2014 200.41 85.421 199.602 86.0837C199.042 86.5435 198.623 87.2291 198.575 87.9511C198.528 88.6736 198.904 89.4081 199.539 89.6486C200.255 89.9195 201.116 89.5245 201.657 88.9037C202.196 88.2833 202.483 87.4801 202.742 86.6971C202.813 86.4806 202.885 86.2567 202.872 86.0336C202.858 85.8101 202.738 85.5859 202.534 85.5273"
    fill="#006060" />
  <path
    d="M197.66 73.1458C197.328 73.3856 196.241 72.421 194.734 71.6322C193.241 70.8131 191.844 70.4469 191.852 70.0332C191.861 69.8392 192.26 69.6724 192.923 69.674C193.582 69.6732 194.5 69.8718 195.4 70.353C196.299 70.8356 196.978 71.4925 197.348 72.045C197.724 72.6003 197.813 73.0286 197.66 73.1458Z"
    fill="#263238" />
  <path
    d="M209.745 69.201C209.703 69.6402 208.562 70.095 207.426 70.9486C206.265 71.7684 205.478 72.7182 205.053 72.6204C204.857 72.5646 204.81 72.1936 205.04 71.6322C205.265 71.0762 205.8 70.3514 206.589 69.776C207.379 69.2018 208.228 68.9174 208.822 68.8778C209.422 68.8332 209.755 68.9954 209.745 69.201Z"
    fill="#263238" />
  <path
    d="M196.394 51.3445C195.452 50.1949 193.978 49.8352 192.398 49.8461C185.949 49.8899 179.518 54.8132 176.829 60.6953C174.14 66.5774 175.204 74.5465 178.71 79.9781L181.137 80.0177C186.012 78.9402 192.118 63.868 197.818 55.1725C198.526 54.0923 197.213 52.3432 196.394 51.3445Z"
    fill="#263238" />
  <path
    d="M209.107 53.5744C205.998 50.986 201.138 47.9976 195.999 50.9573C195.436 52.6226 197.374 54.3589 198.912 55.3087C201.165 56.7001 203.081 57.5774 204.576 58.592C207.597 60.6433 211.503 64.211 212.476 68.7005C212.537 68.9822 212.76 68.9892 213.037 68.9C213.397 68.7847 213.953 66.8001 213.999 64.2707C214.096 58.8768 212.216 56.1623 209.107 53.5744Z"
    fill="#263238" />
  <path
    d="M182.248 76.8874C182.09 76.8307 175.906 75.4456 176.506 81.6454C177.105 87.8453 183.185 85.9627 183.178 85.7838C183.171 85.6049 182.248 76.8874 182.248 76.8874Z"
    fill="#FFBE9D" />
  <path
    d="M181.063 83.6188C181.034 83.6017 180.963 83.7045 180.789 83.8062C180.62 83.9047 180.32 83.9909 179.986 83.9012C179.31 83.7243 178.66 82.738 178.522 81.6237C178.452 81.0611 178.518 80.5121 178.674 80.048C178.819 79.5758 179.08 79.2309 179.403 79.1401C179.723 79.0322 179.975 79.2072 180.067 79.3745C180.167 79.5397 180.139 79.6674 180.173 79.6748C180.192 79.6887 180.296 79.558 180.221 79.3065C180.184 79.1859 180.097 79.0466 179.941 78.9418C179.781 78.8351 179.557 78.7948 179.331 78.8421C178.857 78.9213 178.471 79.4032 178.299 79.9126C178.101 80.4267 178.014 81.0448 178.093 81.6768C178.253 82.9223 179.003 84.0293 179.922 84.2016C180.368 84.2733 180.717 84.1061 180.89 83.942C181.067 83.7693 181.086 83.6277 181.063 83.6188Z"
    fill="#006060" />
  <path
    d="M184.513 74.406C184.493 74.316 185.997 74.2485 188.122 73.2374C190.238 72.2584 192.874 70.1629 194.711 67.0748C196.546 63.9809 197.302 60.7442 197.69 58.4274C197.884 57.2619 197.995 56.3097 198.067 55.6513C198.139 54.9928 198.182 54.6277 198.21 54.6293C198.235 54.6304 198.243 54.9987 198.216 55.6629C198.19 56.3272 198.119 57.2882 197.959 58.4685C197.636 60.8124 196.915 64.1112 195.041 67.2726C193.161 70.4333 190.427 72.5498 188.236 73.4845C187.141 73.9649 186.199 74.2113 185.541 74.3129C185.215 74.3804 184.954 74.3851 184.781 74.4049C184.607 74.4188 184.515 74.4196 184.513 74.406Z"
    fill="#263238" />
  <path
    d="M215.82 77.6563C215.817 77.6148 215.544 77.8422 215.081 77.6455C214.86 77.5516 214.619 77.3494 214.452 77.0495C214.276 76.7511 214.246 76.3472 214.372 75.9262C214.497 75.5068 214.761 75.0905 215.085 74.6734C215.408 74.2555 215.801 73.8198 216.085 73.2595C216.224 72.9798 216.334 72.6639 216.354 72.3241C216.377 71.9853 216.305 71.6354 216.163 71.3199C215.876 70.6836 215.366 70.1776 214.838 69.7252C214.312 69.2717 213.79 68.8425 213.456 68.3094C213.122 67.7798 213.022 67.1602 213.046 66.5754C213.096 65.3971 213.481 64.3495 213.503 63.4132C213.553 62.4859 213.332 61.7204 213.023 61.2959C212.875 61.0794 212.719 60.9452 212.611 60.8641C212.497 60.7884 212.436 60.7535 212.43 60.7617C212.407 60.7884 212.672 60.9273 212.929 61.3568C213.194 61.7771 213.373 62.5057 213.301 63.4012C213.258 64.2975 212.853 65.3261 212.782 66.565C212.749 67.178 212.85 67.8679 213.219 68.4584C213.584 69.047 214.13 69.492 214.651 69.9425C215.172 70.3872 215.648 70.8667 215.906 71.4348C216.178 71.9997 216.114 72.6271 215.849 73.1416C215.592 73.6638 215.219 74.0953 214.896 74.5287C214.573 74.9613 214.3 75.4079 214.177 75.8708C214.049 76.3271 214.101 76.8058 214.313 77.129C214.513 77.4546 214.788 77.6606 215.04 77.7487C215.293 77.8414 215.513 77.8139 215.641 77.7623C215.771 77.7142 215.824 77.6606 215.82 77.6563Z"
    fill="#263238" />
  <path
    d="M183.732 96.8783C183.74 96.8837 183.796 96.8111 183.894 96.6668C183.995 96.524 184.126 96.3001 184.264 95.9971C184.541 95.3969 184.838 94.4447 184.795 93.2408C184.771 92.6421 184.658 91.9856 184.414 91.3205C184.173 90.6485 183.732 90.0227 183.342 89.3646C182.958 88.7186 182.628 87.9112 182.978 87.1728C183.302 86.4298 184.062 85.9107 184.521 85.0675C184.754 84.6454 184.773 84.0758 184.525 83.6568C184.288 83.2381 183.941 82.9564 183.674 82.6468C183.106 82.052 183.05 81.1972 183.236 80.4725C183.415 79.7333 183.802 79.1071 184.18 78.5297C184.559 77.9524 184.923 77.4049 185.16 76.8501C185.676 75.733 185.453 74.6451 185.079 74.093C184.891 73.8089 184.675 73.6429 184.519 73.5626C184.363 73.4795 184.272 73.459 184.269 73.4648C184.243 73.4982 184.646 73.5928 184.984 74.1519C185.308 74.692 185.487 75.7191 184.975 76.7671C184.735 77.2943 184.372 77.8224 183.982 78.3978C183.595 78.9693 183.178 79.6216 182.979 80.408C182.883 80.7988 182.833 81.2209 182.9 81.65C182.959 82.0772 183.164 82.5052 183.462 82.8315C183.748 83.1609 184.08 83.4414 184.275 83.7934C184.472 84.1418 184.462 84.569 184.265 84.9372C183.869 85.6883 183.092 86.2249 182.721 87.0584C182.529 87.4712 182.507 87.9547 182.617 88.369C182.718 88.7908 182.917 89.1563 183.113 89.4981C183.524 90.1748 183.952 90.7673 184.191 91.4055C184.436 92.0403 184.556 92.6712 184.592 93.2501C184.66 94.4145 184.402 95.3503 184.16 95.9525C183.916 96.5597 183.707 96.8631 183.732 96.8783Z"
    fill="#263238" />
  <path
    d="M163.966 96.2085C163.933 96.2892 164.063 96.4782 164.46 96.5899C164.848 96.699 165.521 96.6466 166.162 96.1888C166.482 95.9641 166.799 95.6514 167.046 95.2215C167.173 95.0088 167.274 94.7625 167.35 94.4893C167.413 94.2313 167.462 93.9624 167.471 93.6819C167.528 92.5462 167.104 91.3795 166.548 90.3059C166.003 89.2501 165.366 88.222 165.235 87.2469C165.089 86.2699 165.426 85.1568 166.065 83.9113C166.683 82.6697 167.619 81.3016 168.262 79.5824C168.899 77.9062 169.279 76.0985 169.454 74.285C169.812 70.6471 169.559 67.3157 169.676 64.4026C169.775 61.5252 170.291 58.9675 171.074 56.9883C171.839 54.9894 172.92 53.6341 173.762 52.7727C174.199 52.3622 174.548 52.0247 174.802 51.8085C175.047 51.5765 175.163 51.407 175.122 51.3166C175.082 51.2262 174.886 51.2188 174.535 51.2948C174.176 51.3557 173.696 51.5587 173.091 51.8799C171.92 52.5512 170.368 53.9507 169.241 56.1262C168.089 58.2819 167.302 61.0957 167.042 64.2443C166.776 67.358 166.939 70.6855 166.605 73.9909C166.446 75.643 166.129 77.1919 165.634 78.5992C165.167 79.9812 164.351 81.2853 163.684 82.7706C163.353 83.5109 163.059 84.2966 162.896 85.137C162.73 85.9731 162.715 86.8721 162.904 87.7001C163.094 88.5374 163.449 89.2269 163.795 89.8077C164.146 90.3901 164.5 90.8809 164.801 91.3341C165.397 92.2168 165.786 93.0219 165.87 93.7164C165.897 93.8899 165.895 94.0586 165.89 94.2154C165.88 94.3539 165.859 94.4971 165.813 94.6329C165.731 94.9076 165.586 95.1528 165.428 95.3476C164.771 96.1666 164.029 96.0068 163.966 96.2085Z"
    fill="#263238" />
  <path
    d="M201.658 89.7755C201.659 89.8034 201.516 89.8348 201.256 89.8876C200.993 89.9342 200.62 90.0195 200.121 90.0265C200.001 90.0284 199.844 90.0094 199.718 89.973C199.585 89.9376 199.445 89.8926 199.305 89.8174C199.167 89.744 199.031 89.6385 198.921 89.507C198.807 89.377 198.73 89.2167 198.659 89.0883C198.515 88.8163 198.316 88.5032 198.294 88.0881C198.291 87.9868 198.297 87.8836 198.318 87.7831L198.377 87.5177C198.421 87.3411 198.471 87.1615 198.537 86.9819C198.667 86.6237 198.856 86.278 199.123 86.0099C199.388 85.741 199.706 85.5602 200.019 85.4438C200.652 85.2126 201.264 85.2277 201.741 85.2937C202.703 85.4485 203.243 85.6871 203.234 85.7278C203.222 85.7957 202.638 85.6537 201.714 85.5781C201.254 85.5498 200.7 85.5703 200.153 85.7911C199.882 85.9017 199.619 86.0627 199.406 86.2858C199.192 86.5073 199.033 86.7976 198.915 87.1208C198.856 87.2822 198.809 87.4482 198.766 87.6151L198.708 87.863C198.692 87.9332 198.688 88.0035 198.688 88.0733C198.693 88.3534 198.845 88.6332 198.986 88.9137C199.121 89.2113 199.251 89.396 199.469 89.5252C199.684 89.6466 199.92 89.7273 200.134 89.7405C200.584 89.7696 200.974 89.7297 201.24 89.7305C201.507 89.7262 201.658 89.7479 201.658 89.7755Z"
    fill="#263238" />
  <path
    d="M210.286 102.164L201.752 105.182C201.752 105.182 202.734 113.515 202.777 112.998C202.819 112.48 210.286 102.164 210.286 102.164Z"
    fill="#FFBE9D" />
  <path
    d="M201.658 89.7755C201.659 89.8034 201.516 89.8348 201.256 89.8876C200.993 89.9342 200.62 90.0195 200.121 90.0265C200.001 90.0284 199.844 90.0094 199.718 89.973C199.585 89.9376 199.445 89.8926 199.305 89.8174C199.167 89.744 199.031 89.6385 198.921 89.507C198.807 89.377 198.73 89.2167 198.659 89.0883C198.515 88.8163 198.316 88.5032 198.294 88.0881C198.291 87.9868 198.297 87.8836 198.318 87.7831L198.377 87.5177C198.421 87.3411 198.471 87.1615 198.537 86.9819C198.667 86.6237 198.856 86.278 199.123 86.0099C199.388 85.741 199.706 85.5602 200.019 85.4438C200.652 85.2126 201.264 85.2277 201.741 85.2937C202.703 85.4485 203.243 85.6871 203.234 85.7278C203.222 85.7957 202.638 85.6537 201.714 85.5781C201.254 85.5498 200.7 85.5703 200.153 85.7911C199.882 85.9017 199.619 86.0627 199.406 86.2858C199.192 86.5073 199.033 86.7976 198.915 87.1208C198.856 87.2822 198.809 87.4482 198.766 87.6151L198.708 87.863C198.692 87.9332 198.688 88.0035 198.688 88.0733C198.693 88.3534 198.845 88.6332 198.986 88.9137C199.121 89.2113 199.251 89.396 199.469 89.5252C199.684 89.6466 199.92 89.7273 200.134 89.7405C200.584 89.7696 200.974 89.7297 201.24 89.7305C201.507 89.7262 201.658 89.7479 201.658 89.7755Z"
    fill="#263238" />
  <path d="M214.638 60.3624L210.897 67.3468L232.057 80.7794L238.321 69.6329L214.638 60.3624Z"
    fill="#FFBE9D" />
  <path
    d="M167.875 90.8305C167.875 90.8305 172.233 63.1975 173.256 60.3636C174.279 57.5296 181.031 50.2647 185.129 51.1734C189.227 52.0821 192.131 56.018 192.372 62.1177C192.612 68.2179 184.578 112.049 184.578 112.049C184.578 112.049 172.825 121.113 168.3 115.572C163.775 110.031 165.128 104.421 167.875 90.8305Z"
    fill="#455A64" />
  <path
    d="M175.974 107.197C175.974 107.197 196.235 113.041 197.712 112.734C203.919 111.442 210.286 102.164 210.286 102.164L214.269 101.037C214.269 101.037 221.141 122.922 218.947 134.375C216.753 145.827 214.189 152.632 214.189 152.632L217.804 184.704H158.785L170.823 150.005L167.655 114.72L175.974 107.197Z"
    fill="#455A64" />
  <path
    d="M230.573 81.482L233.553 84.1988L213.586 101.23L218.004 126.794C218.004 126.794 235.145 110.509 241.936 103.813C252.701 93.1993 256.591 85.6305 255.557 82.7873C253.825 78.0261 238.456 68.6268 238.456 68.6268L230.573 81.482Z"
    fill="#455A64" />
  <path
    d="M183.752 125.217C183.708 125.233 183.385 124.539 183.053 123.347C182.885 122.752 182.732 122.031 182.608 121.222C182.493 120.412 182.414 119.513 182.404 118.568C182.401 117.623 182.469 116.723 182.572 115.911C182.686 115.101 182.83 114.377 182.99 113.78C183.306 112.585 183.621 111.886 183.664 111.902C183.796 111.933 182.763 114.835 182.807 118.566C182.812 122.296 183.883 125.184 183.752 125.217Z"
    fill="#263238" />
  <path
    d="M203.873 132.373C203.897 132.372 203.945 132.677 203.973 133.234C204.002 133.791 203.99 134.602 203.869 135.594C203.641 137.571 202.852 140.314 201.086 142.832C199.32 145.351 197.012 147.022 195.235 147.905C194.344 148.353 193.588 148.639 193.056 148.799C192.524 148.961 192.222 149.018 192.215 148.995C192.19 148.922 193.381 148.599 195.102 147.652C196.816 146.719 199.036 145.054 200.757 142.599C202.477 140.146 203.291 137.487 203.587 135.554C203.896 133.609 203.796 132.374 203.873 132.373Z"
    fill="#263238" />
  <path
    d="M225.174 113.858C225.22 113.902 224.638 114.572 223.774 115.71C222.909 116.846 221.789 118.473 220.754 120.389C219.724 122.308 218.981 124.14 218.507 125.488C218.031 126.837 217.791 127.692 217.729 127.677C217.683 127.666 217.826 126.783 218.236 125.399C218.644 124.016 219.355 122.141 220.4 120.197C221.448 118.256 222.622 116.632 223.552 115.531C224.481 114.429 225.14 113.825 225.174 113.858Z"
    fill="#263238" />
  <path
    d="M218.943 132.896C218.944 132.91 218.773 132.944 218.444 132.996C218.115 133.041 217.632 133.131 217.003 133.19C215.748 133.342 213.919 133.468 211.657 133.465C209.395 133.452 206.703 133.286 203.737 132.923C200.77 132.583 197.527 132.028 194.129 131.559C187.308 130.68 181.047 131.057 176.599 131.693C174.37 132.007 172.581 132.366 171.349 132.632C170.743 132.766 170.268 132.871 169.931 132.946C169.607 133.015 169.434 133.045 169.43 133.031C169.427 133.018 169.592 132.962 169.911 132.867C170.231 132.775 170.7 132.631 171.313 132.478C172.537 132.165 174.323 131.763 176.557 131.41C178.79 131.062 181.473 130.766 184.464 130.684C185.959 130.642 187.53 130.658 189.158 130.725C190.784 130.808 192.465 130.946 194.179 131.157C197.599 131.63 200.823 132.194 203.782 132.553C206.735 132.935 209.411 133.13 211.66 133.179C213.91 133.218 215.733 133.136 216.988 133.033C217.617 132.999 218.103 132.934 218.434 132.915C218.765 132.889 218.941 132.882 218.943 132.896Z"
    fill="white" />
  <path
    d="M234.343 111.493C234.26 111.495 234.286 110.201 233.914 108.171C233.863 107.918 233.811 107.653 233.756 107.378C233.699 107.102 233.61 106.822 233.535 106.529C233.396 105.939 233.17 105.332 232.952 104.688C232.467 103.417 231.831 102.058 231.009 100.721C230.17 99.3933 229.231 98.2254 228.304 97.2313C227.822 96.7525 227.376 96.2834 226.908 95.8993C226.678 95.7034 226.467 95.5004 226.245 95.329C226.022 95.159 225.808 94.9957 225.603 94.8393C223.946 93.6148 222.776 93.0727 222.814 92.999C222.826 92.9738 223.121 93.0999 223.646 93.3509C223.78 93.4153 223.926 93.486 224.083 93.5624C224.24 93.6454 224.402 93.7479 224.581 93.8522C224.934 94.068 225.352 94.2922 225.768 94.6077C225.981 94.7598 226.204 94.9185 226.436 95.0837C226.666 95.2514 226.886 95.4512 227.125 95.6452C227.61 96.0246 228.072 96.4926 228.57 96.9729C229.528 97.9701 230.495 99.1542 231.35 100.507C232.188 101.87 232.826 103.26 233.3 104.561C233.513 105.22 233.73 105.842 233.858 106.446C233.927 106.746 234.01 107.032 234.059 107.313C234.106 107.595 234.151 107.865 234.194 108.124C234.294 108.638 234.313 109.113 234.351 109.526C234.366 109.733 234.387 109.925 234.393 110.102C234.392 110.278 234.392 110.44 234.391 110.589C234.386 111.172 234.371 111.493 234.343 111.493Z"
    fill="white" />
  <path
    d="M190.539 77.2482C190.55 77.2738 190.293 77.4084 189.817 77.6315C189.58 77.7464 189.287 77.8783 188.934 78.0028C188.584 78.1305 188.189 78.2958 187.735 78.4195C187.285 78.5581 186.79 78.7055 186.247 78.818C185.71 78.9561 185.124 79.0423 184.508 79.1439C183.273 79.3085 181.9 79.3942 180.461 79.3325C179.022 79.2576 177.664 79.0396 176.45 78.7587C175.846 78.6007 175.271 78.4576 174.749 78.2702C174.219 78.1076 173.741 77.9128 173.305 77.7336C172.864 77.5679 172.488 77.3657 172.15 77.2063C171.811 77.0495 171.531 76.8904 171.305 76.7542C170.852 76.4881 170.609 76.3298 170.622 76.3057C170.658 76.239 171.669 76.8121 173.409 77.4674C173.846 77.6272 174.323 77.8042 174.849 77.9504C175.368 78.1216 175.937 78.2504 176.533 78.3959C177.732 78.6523 179.067 78.8553 180.481 78.929C181.894 78.9895 183.242 78.9162 184.46 78.7749C185.066 78.6849 185.645 78.6128 186.177 78.4905C186.715 78.3939 187.207 78.2643 187.656 78.1452C189.45 77.6563 190.509 77.1783 190.539 77.2482Z"
    fill="white" />
  <path
    d="M172.868 59.7171C172.845 59.7043 172.954 59.4622 173.187 59.04C173.433 58.6276 173.816 58.0413 174.379 57.3883C175.495 56.0676 177.371 54.5675 179.582 53.1886C180.133 52.8386 180.674 52.5061 181.199 52.1868C181.727 51.8682 182.254 51.5722 182.794 51.3596C183.333 51.1454 183.888 51.0201 184.413 51.0239C184.938 51.0193 185.415 51.1318 185.828 51.2703C186.655 51.5586 187.243 51.9435 187.644 52.2011C188.043 52.4665 188.251 52.631 188.237 52.6539C188.222 52.6784 187.985 52.5589 187.565 52.3365C187.143 52.122 186.54 51.7817 185.743 51.5427C185.345 51.4278 184.898 51.3402 184.419 51.3588C183.941 51.3689 183.437 51.4938 182.934 51.7045C182.429 51.9136 181.924 52.205 181.405 52.5247C180.886 52.8495 180.349 53.1855 179.799 53.5296C177.6 54.902 175.739 56.3345 174.592 57.5796C173.434 58.8161 172.93 59.7547 172.868 59.7171Z"
    fill="#263238" />
  <path
    d="M68.8433 68.6217L63.4946 77.9256L62.3013 84.5495L52.0952 100.952L50.7148 103.17L61.279 110.579C61.279 110.579 67.9265 95.4492 68.6624 94.007C69.3982 92.5648 72.4088 91.6421 72.4088 91.6421L77.1837 83.2016L68.8433 68.6217Z"
    fill="#FFBE9D" />
  <path
    d="M69.8127 89.9241C69.7547 89.916 69.8235 89.1861 69.9379 88.0148C70.0431 86.8457 70.2001 85.2215 69.9944 83.4589C69.7871 81.6985 69.1503 80.1888 68.4864 79.2456C67.8294 78.2895 67.2266 77.8592 67.273 77.8026C67.2873 77.7828 67.4524 77.8678 67.7192 78.0692C67.9872 78.269 68.3441 78.603 68.7161 79.0764C69.4685 80.0142 70.18 81.5829 70.3942 83.41C70.6065 85.2343 70.3984 86.8841 70.2206 88.0501C70.0327 89.2203 69.8649 89.9315 69.8127 89.9241Z"
    fill="#006060" />
  <path
    d="M81.3149 105.16L125.93 112.92C125.93 112.92 88.2691 116.889 88.2537 116.37C88.2386 115.851 81.3149 105.16 81.3149 105.16Z"
    fill="#FFBE9D" />
  <path
    d="M119.431 86.171C119.324 83.4557 117.709 81.0765 116.507 78.6411C114.756 75.0893 113.825 71.1977 112.848 67.3572C111.871 63.5172 110.815 59.6426 108.848 56.2061C106.88 52.7696 103.877 49.7673 100.099 48.6102C96.3212 47.4532 91.757 48.4923 89.4219 51.6886L93.7634 61.0002C96.4248 75.125 100.708 88.9413 106.5 102.089C110.789 101.549 115.015 100.501 119.061 98.9738C119.891 98.6607 120.827 98.1966 120.997 97.3236C121.205 96.2617 120.17 95.4271 119.579 94.5223C118.802 93.3334 118.763 91.8082 118.941 90.3982C119.119 88.989 119.487 87.591 119.431 86.171Z"
    fill="#263238" />
  <path
    d="M95.7489 52.5644C94.2057 51.6964 92.4467 51.218 90.6781 51.1846C89.957 51.1711 89.1991 51.2417 88.5956 51.6378C87.992 52.034 87.6053 52.8406 87.8876 53.5064L93.5468 58.0926C94.5525 58.6133 95.8119 58.1263 96.651 57.3643C97.3006 56.7742 97.8241 55.9524 97.7669 55.0751C97.6938 53.9557 96.7248 53.113 95.7489 52.5644Z"
    fill="#455A64" />
  <path
    d="M70.0888 77.7242C68.4594 69.2165 73.6365 60.5509 82.1528 58.3781C91.1881 56.0727 100.171 61.5997 102.106 70.4702L108.999 106.409C109.132 107.104 110.48 110.115 110.161 110.747C108.448 114.135 103.471 114.78 100.105 115.709C96.8446 116.61 93.3627 116.188 90.3343 114.984C89.3081 114.576 88.5889 113.634 88.4253 112.539L87.2162 104.45C87.2116 104.419 87.1849 104.398 87.1544 104.404C86.6594 104.507 85.3861 104.695 84.8811 104.64C82.6748 104.399 76.9525 103.016 74.0754 95.2339C73.1211 92.6529 71.5168 85.1824 70.0888 77.7242Z"
    fill="#FFBE9D" />
  <path
    d="M83.6268 88.0019C83.6176 87.9216 82.7108 87.9507 81.2539 88.0605C80.8862 88.097 80.5312 88.0958 80.4229 87.8654C80.2872 87.6256 80.3626 87.2112 80.4562 86.7619C80.6255 85.8318 80.8026 84.8576 80.989 83.836C81.7101 79.6774 82.1575 76.2878 81.9885 76.2626C81.8192 76.237 81.0973 79.5874 80.3761 83.746C80.2072 84.7691 80.0448 85.7453 79.8913 86.6788C79.8344 87.1107 79.6902 87.6174 79.979 88.1133C80.1283 88.3593 80.4311 88.4986 80.6743 88.5129C80.919 88.5354 81.1224 88.4982 81.3026 88.4722C82.748 88.2568 83.6365 88.0822 83.6268 88.0019Z"
    fill="#263238" />
  <path
    d="M78.2581 82.1742C78.0849 81.9721 77.1035 82.9436 75.6648 83.0239C74.2287 83.1295 73.1418 82.2922 72.9933 82.5157C72.9198 82.615 73.1019 82.9875 73.5756 83.3673C74.0419 83.7456 74.8272 84.0944 75.7235 84.0362C76.6194 83.9776 77.3595 83.5318 77.7783 83.0953C78.2063 82.6569 78.3428 82.2642 78.2581 82.1742Z"
    fill="#263238" />
  <path
    d="M91.8026 78.6679C91.5512 78.5549 90.9542 79.8675 89.5564 80.552C88.1702 81.2589 86.762 80.9493 86.7016 81.2182C86.6676 81.3404 86.9928 81.6073 87.6138 81.7552C88.2255 81.9061 89.1423 81.8933 90.0107 81.4599C90.8784 81.025 91.4395 80.3002 91.6858 79.7201C91.9383 79.135 91.9216 78.7152 91.8026 78.6679Z"
    fill="#263238" />
  <path
    d="M87.3257 104.393C87.3257 104.393 92.8624 103.726 98.8828 98.2932C98.8828 98.2932 98.1315 105.842 87.7096 106.981L87.3257 104.393Z"
    fill="#006060" />
  <path
    d="M91.4274 75.0517C91.3079 74.6587 89.8614 74.7657 88.1856 74.4759C86.5036 74.2194 85.1711 73.6611 84.9275 73.9948C84.8181 74.155 85.0346 74.5302 85.5628 74.9326C86.0864 75.3338 86.9366 75.7342 87.9431 75.8987C88.9496 76.0613 89.8865 75.9519 90.5149 75.7377C91.1486 75.5243 91.4777 75.2379 91.4274 75.0517Z"
    fill="#263238" />
  <path
    d="M76.4057 75.8676C75.9866 75.7337 75.1205 76.6063 73.8912 77.3179C72.6829 78.0652 71.5028 78.4171 71.4243 78.8478C71.3984 79.0508 71.7193 79.2405 72.3245 79.249C72.9226 79.2607 73.7973 79.0527 74.6352 78.5518C75.4723 78.0501 76.0674 77.3789 76.3377 76.8473C76.6145 76.3111 76.5975 75.9398 76.4057 75.8676Z"
    fill="#263238" />
  <path
    d="M80.7646 56.733C81.3438 55.3622 82.6546 54.5979 84.1731 54.1583C90.3694 52.3642 97.9287 55.2544 102.17 60.1296C106.411 65.0044 107.644 72.9491 105.818 79.1556L103.502 79.8846C98.5231 80.2393 88.4059 67.5245 80.4816 60.8094C79.4971 59.9748 80.2616 57.9238 80.7646 56.733Z"
    fill="#263238" />
  <path
    d="M69.2048 62.4902C71.4544 59.1231 75.2696 54.8741 81.0348 56.2488C82.0456 57.6855 80.6779 59.9018 79.4715 61.2509C77.7041 63.2266 76.1153 64.6133 74.9688 66.0116C72.6511 68.839 69.9151 73.372 70.2511 77.9539C70.2723 78.2414 70.0605 78.3112 69.7689 78.305C69.3915 78.2969 68.2973 76.552 67.5382 74.1395C65.9196 68.9954 66.9551 65.8572 69.2048 62.4902Z"
    fill="#263238" />
  <path
    d="M101.551 77.1993C101.687 77.0995 107.224 74.0114 108.403 80.1271C109.581 86.2428 103.219 86.1683 103.174 85.9948C103.13 85.8214 101.551 77.1993 101.551 77.1993Z"
    fill="#FFBE9D" />
  <path
    d="M104.59 83.3169C104.613 83.292 104.711 83.3708 104.906 83.4185C105.096 83.4647 105.408 83.462 105.702 83.2808C106.301 82.9188 106.645 81.7878 106.463 80.68C106.371 80.1205 106.152 79.613 105.871 79.2122C105.599 78.8005 105.25 78.5445 104.915 78.5495C104.578 78.5371 104.386 78.7765 104.345 78.9631C104.296 79.1497 104.358 79.2646 104.328 79.2813C104.314 79.2999 104.177 79.2041 104.178 78.9418C104.179 78.8157 104.223 78.6574 104.344 78.5123C104.467 78.3644 104.67 78.262 104.901 78.2426C105.377 78.184 105.884 78.5359 106.193 78.9755C106.528 79.4124 106.786 79.9801 106.889 80.6086C107.087 81.8487 106.681 83.1236 105.849 83.5501C105.442 83.7456 105.059 83.6851 104.847 83.5768C104.629 83.462 104.571 83.332 104.59 83.3169Z"
    fill="#006060" />
  <path
    d="M68.1284 63.9133C68.1308 63.9611 68.8287 63.9809 69.9512 63.8796C71.0729 63.7795 72.6172 63.5354 74.2776 63.0768C75.9379 62.6151 77.3883 62.0288 78.4022 61.5372C79.4172 61.046 80.0061 60.6697 79.9836 60.6274C79.9566 60.5754 79.3259 60.8648 78.2924 61.2877C77.2596 61.7118 75.8142 62.2492 74.1755 62.7051C72.5368 63.1579 71.0215 63.4408 69.9183 63.6091C68.8144 63.7783 68.125 63.8551 68.1284 63.9133Z"
    fill="#455A64" />
  <path
    d="M66.7232 68.6388C66.7197 68.6838 67.2452 68.7804 68.1055 68.7544C68.9635 68.7304 70.1552 68.5461 71.3883 68.0766C72.6202 67.6028 73.6317 66.9436 74.2875 66.3884C74.9468 65.8328 75.2743 65.4095 75.2418 65.3781C75.1629 65.2811 73.6596 66.8129 71.251 67.7161C68.8564 68.6516 66.7177 68.5139 66.7232 68.6388Z"
    fill="#455A64" />
  <path
    d="M103.264 62.1118C103.242 62.0354 101.959 62.4715 99.8086 62.7354C98.7372 62.8917 97.4453 62.9228 96.017 62.915C94.5875 62.8618 93.0199 62.7152 91.3932 62.4304C89.7677 62.1332 88.2461 61.7219 86.8808 61.2897C85.5263 60.8264 84.3172 60.3693 83.339 59.901C81.3677 58.995 80.2336 58.2602 80.1954 58.3219C80.181 58.3444 80.4556 58.5403 80.9664 58.8771C81.2185 59.0513 81.5382 59.2457 81.9191 59.454C82.2969 59.669 82.7265 59.9158 83.2222 60.1478C84.1947 60.6518 85.4057 61.1403 86.7691 61.6272C88.1429 62.0827 89.6803 62.5095 91.3256 62.8102C92.9724 63.0985 94.562 63.2367 96.01 63.2704C97.4581 63.2592 98.765 63.1986 99.8454 63.0054C100.389 62.9383 100.872 62.8265 101.296 62.7276C101.722 62.6391 102.083 62.5421 102.373 62.4397C102.956 62.2523 103.272 62.1371 103.264 62.1118Z"
    fill="#455A64" />
  <path
    d="M80.927 60.4163C80.9069 60.4338 81.1273 60.7108 81.5446 61.1982C81.751 61.4442 82.0086 61.7406 82.3353 62.0584C82.6601 62.3777 83.01 62.7641 83.4493 63.1343C84.2953 63.9107 85.3702 64.7635 86.6389 65.6008C87.9164 66.4222 89.3862 67.2308 91.0094 67.8993C92.6388 68.5539 94.2547 69.0028 95.7441 69.2996C97.2386 69.5751 98.6035 69.7047 99.7508 69.7179C100.324 69.7516 100.843 69.7062 101.297 69.695C101.752 69.6868 102.142 69.6442 102.46 69.6026C103.096 69.5274 103.445 69.4734 103.442 69.447C103.435 69.3675 102.028 69.5483 99.76 69.4451C98.6263 69.3974 97.2823 69.241 95.8126 68.9508C94.3475 68.6388 92.7594 68.186 91.154 67.5416C89.5544 66.8828 88.102 66.0955 86.8303 65.3013C85.5682 64.4911 84.489 63.6713 83.6283 62.9286C81.9038 61.4457 80.9839 60.3644 80.927 60.4163Z"
    fill="#455A64" />
  <path
    d="M98.6777 75.465C98.6723 75.3726 97.2107 75.7362 94.8868 75.3718C92.5811 75.0358 89.4615 73.7764 86.8264 71.3382C84.192 68.8938 82.5522 66.0055 81.5252 63.8944C81.0101 62.8317 80.6339 61.9505 80.3787 61.3398C80.1231 60.7291 79.9793 60.3908 79.9526 60.4005C79.9294 60.4086 80.0257 60.764 80.2391 61.3934C80.4522 62.0231 80.7913 62.9244 81.2793 64.0104C82.2509 66.1665 83.8753 69.1243 86.5661 71.6222C89.2624 74.1178 92.4825 75.3691 94.8478 75.6419C96.0337 75.7909 97.0065 75.7587 97.6658 75.669C97.9976 75.6411 98.2489 75.5709 98.4206 75.5406C98.5919 75.5038 98.68 75.4781 98.6777 75.465Z"
    fill="#263238" />
  <path
    d="M69.5762 87.494C69.5681 87.4529 69.8941 87.5933 70.2823 87.2732C70.4675 87.1204 70.6419 86.8577 70.7169 86.5224C70.8012 86.1864 70.7161 85.7903 70.4756 85.4225C70.2378 85.0558 69.8666 84.7318 69.4378 84.4238C69.0105 84.1149 68.5106 83.8088 68.0791 83.3529C67.8664 83.124 67.6723 82.8524 67.5567 82.5326C67.4387 82.2141 67.4093 81.8583 67.4565 81.5153C67.5509 80.8239 67.8969 80.1934 68.2759 79.6091C68.6521 79.024 69.0314 78.4645 69.2004 77.8584C69.3713 77.2555 69.292 76.6327 69.1037 76.079C68.7232 74.9632 68.0566 74.0684 67.772 73.1768C67.4619 72.3019 67.4569 71.5049 67.634 71.0098C67.7144 70.7599 67.8258 70.5873 67.907 70.4786C67.9948 70.3735 68.0435 70.3227 68.0512 70.3289C68.081 70.3479 67.8664 70.5566 67.7411 71.0416C67.6058 71.52 67.6398 72.2697 67.9627 73.1077C68.2561 73.9551 68.9359 74.8262 69.3539 75.9941C69.5592 76.5722 69.6578 77.2628 69.471 77.9337C69.2874 78.6018 68.8887 79.1846 68.5171 79.7646C68.1432 80.3393 67.8223 80.9349 67.7349 81.5533C67.634 82.1726 67.8726 82.7561 68.2728 83.1736C68.6664 83.6012 69.1462 83.9089 69.5785 84.2329C70.0104 84.5557 70.3979 84.9064 70.6473 85.3154C70.8994 85.7166 70.9845 86.1907 70.8727 86.5609C70.7733 86.9298 70.5676 87.2061 70.3511 87.3621C70.1346 87.5231 69.9153 87.5596 69.7788 87.5464C69.64 87.5351 69.5739 87.499 69.5762 87.494Z"
    fill="#263238" />
  <path
    d="M106.536 76.5102C106.526 76.509 106.526 76.3957 106.535 76.1812C106.541 75.9662 106.573 75.6511 106.581 75.2437C106.616 74.4305 106.628 73.2502 106.514 71.8014C106.4 70.3538 106.139 68.6346 105.585 66.7978C105.04 64.9617 104.179 63.0132 102.931 61.1916C102.301 60.2871 101.59 59.4762 100.834 58.765C100.075 58.0546 99.2607 57.464 98.4599 56.9457C96.8414 55.9272 95.2386 55.259 93.8633 54.8093C92.4867 54.3577 91.3403 54.0923 90.5449 53.9321C90.1486 53.8432 89.8365 53.797 89.6273 53.7505C89.4174 53.7078 89.3079 53.6807 89.3091 53.6706C89.3103 53.6609 89.4228 53.6686 89.6358 53.6931C89.8481 53.7214 90.164 53.7497 90.565 53.8223C91.3696 53.9495 92.5289 54.1854 93.9247 54.6161C95.3191 55.0449 96.9485 55.7002 98.5995 56.7214C99.4166 57.2413 100.248 57.8373 101.024 58.5582C101.797 59.2795 102.525 60.1067 103.166 61.0282C104.434 62.8786 105.3 64.8601 105.837 66.7221C106.384 68.5857 106.626 70.3255 106.715 71.7867C106.804 73.249 106.762 74.4359 106.692 75.2507C106.666 75.6589 106.616 75.9732 106.592 76.187C106.565 76.3996 106.546 76.511 106.536 76.5102Z"
    fill="#455A64" />
  <path
    d="M105.781 96.7913C105.775 96.799 105.701 96.7451 105.566 96.6345C105.429 96.5259 105.24 96.3486 105.022 96.0971C104.586 95.6009 104.032 94.7721 103.734 93.605C103.587 93.0242 103.509 92.3626 103.556 91.6553C103.597 90.9422 103.842 90.2166 104.031 89.4747C104.216 88.7461 104.304 87.8777 103.76 87.2694C103.239 86.6489 102.364 86.3676 101.685 85.6898C101.342 85.3515 101.164 84.8102 101.282 84.338C101.391 83.8689 101.645 83.4999 101.813 83.1271C102.19 82.3949 102.002 81.5592 101.619 80.9174C101.238 80.2597 100.69 79.7689 100.164 79.3235C99.6376 78.8773 99.1342 78.4559 98.7494 77.9919C97.939 77.0677 97.8443 75.9611 98.0476 75.3248C98.1474 74.9989 98.3075 74.7781 98.4347 74.6566C98.5607 74.5325 98.6423 74.4867 98.6462 74.4921C98.6814 74.5166 98.321 74.7222 98.1551 75.3546C97.9966 75.965 98.1153 77.0005 98.9033 77.8596C99.2823 78.2972 99.7803 78.7 100.317 79.1408C100.849 79.5784 101.434 80.0851 101.846 80.7832C102.048 81.1304 102.216 81.5211 102.274 81.9514C102.338 82.3778 102.262 82.8469 102.069 83.2446C101.888 83.6419 101.649 84.0055 101.561 84.3985C101.471 84.7885 101.601 85.1955 101.894 85.4927C102.486 86.1003 103.383 86.3936 103.974 87.087C104.275 87.4284 104.432 87.8859 104.444 88.3142C104.467 88.7472 104.38 89.1543 104.287 89.538C104.085 90.3039 103.842 90.9938 103.793 91.6739C103.738 92.3521 103.801 92.9912 103.931 93.5569C104.195 94.693 104.706 95.5167 105.108 96.0254C105.514 96.5379 105.8 96.7695 105.781 96.7913Z"
    fill="#263238" />
  <path
    d="M124.545 90.5221C124.599 90.59 124.528 90.8084 124.179 91.0284C123.838 91.2434 123.178 91.385 122.433 91.1285C122.063 91.0043 121.671 90.7944 121.312 90.4526C121.131 90.285 120.964 90.0778 120.814 89.8369C120.68 89.6075 120.557 89.3635 120.469 89.0973C120.094 88.0245 120.17 86.7848 120.401 85.5972C120.625 84.4297 120.944 83.2626 120.795 82.2903C120.658 81.3117 120.021 80.3402 119.056 79.3279C118.112 78.3133 116.828 77.268 115.725 75.8021C114.64 74.3762 113.765 72.7509 113.085 71.0615C111.712 67.6755 111.013 64.4085 110.078 61.6483C109.169 58.9171 107.951 56.6116 106.64 54.9366C105.341 53.2376 103.922 52.2455 102.871 51.6592C102.336 51.3903 101.906 51.1657 101.601 51.0306C101.301 50.8778 101.141 50.7486 101.155 50.65C101.168 50.5519 101.354 50.489 101.711 50.4622C102.073 50.4184 102.591 50.4758 103.262 50.612C104.575 50.922 106.458 51.8226 108.154 53.588C109.868 55.327 111.419 57.8012 112.558 60.7466C113.694 63.6566 114.478 66.894 115.733 69.9682C116.352 71.5073 117.094 72.9022 117.967 74.1104C118.806 75.3031 119.957 76.3209 121.016 77.5555C121.542 78.1712 122.047 78.8409 122.441 79.6003C122.837 80.3549 123.106 81.2128 123.158 82.0602C123.212 82.9173 123.067 83.6793 122.899 84.335C122.727 84.9935 122.527 85.5646 122.366 86.0849C122.045 87.1011 121.898 87.9838 122.014 88.674C122.038 88.8478 122.088 89.0089 122.137 89.1582C122.186 89.2882 122.246 89.4198 122.328 89.5365C122.485 89.7767 122.693 89.9703 122.9 90.1123C123.761 90.711 124.428 90.3467 124.545 90.5221Z"
    fill="#263238" />
  <path
    d="M90.1349 91.1444C90.1067 91.2002 89.8032 91.0691 89.2986 90.9927C88.7994 90.9131 88.0779 90.9178 87.3734 91.2119C86.6692 91.5079 86.1592 92.0197 85.8646 92.4318C85.5641 92.8457 85.4439 93.1546 85.3843 93.1352C85.3379 93.1243 85.3611 92.7732 85.6237 92.2797C85.8785 91.7919 86.4167 91.1758 87.2183 90.8386C88.0206 90.5034 88.8357 90.5523 89.3604 90.7133C89.8944 90.8735 90.1597 91.1036 90.1349 91.1444Z"
    fill="#263238" />
  <path
    d="M92.4218 80.6148C92.4674 80.6373 92.4237 80.8562 92.237 81.1576C92.0525 81.4579 91.7065 81.8258 91.2309 82.0912C90.7545 82.355 90.2599 82.4547 89.9085 82.4524C89.5543 82.4516 89.3466 82.3725 89.3517 82.3216C89.3586 82.2037 90.1884 82.2219 91.0356 81.7377C91.894 81.274 92.3185 80.5586 92.4218 80.6148Z"
    fill="#006060" />
  <path
    d="M76.9816 84.6492C77.0184 84.6841 76.9178 84.8743 76.656 85.0931C76.3974 85.3115 75.9635 85.5354 75.445 85.6115C74.9261 85.6856 74.447 85.5936 74.1373 85.4574C73.8245 85.3216 73.6748 85.1676 73.7 85.1237C73.7537 85.0201 74.4725 85.3565 75.3874 85.2114C76.3057 85.0911 76.9008 84.565 76.9816 84.6492Z"
    fill="#006060" />
  <path
    d="M73.2677 92.9055C73.2104 92.9136 73.0519 92.1229 72.8037 90.8463C72.5558 89.5694 72.2086 87.8083 71.7798 85.873C71.3494 83.9372 70.9187 82.1943 70.6035 80.9326C70.2884 79.6708 70.0978 78.8874 70.1531 78.8707C70.2041 78.8552 70.4914 79.6095 70.8777 80.8557C71.2643 82.1012 71.7407 83.841 72.173 85.7853C72.6038 87.7291 72.9081 89.507 73.0848 90.7998C73.2615 92.0922 73.3206 92.8981 73.2677 92.9055Z"
    fill="#006060" />
  <path
    d="M96.0279 80.9788C95.8658 80.7805 95.6319 80.6548 95.3941 80.5605C94.7151 80.2924 93.9499 80.2482 93.2446 80.4364L93.4832 80.5796C93.7709 80.862 94.0586 81.1445 94.3462 81.4269C94.6076 81.6834 94.8837 81.9488 95.2344 82.0524C95.5851 82.156 96.0306 82.0361 96.1701 81.6974C96.268 81.4603 96.1899 81.1771 96.0279 80.9788Z"
    fill="#455A64" />
  <path
    d="M95.6418 83.9605C95.6442 83.7432 95.5606 83.5337 95.4574 83.3428C95.1624 82.7976 94.6903 82.3514 94.1304 82.0884L94.2073 82.3115C94.2406 82.6518 94.2742 82.9924 94.3075 83.3327C94.338 83.6419 94.3728 83.9647 94.5441 84.2235C94.7154 84.4823 95.0692 84.648 95.3437 84.5045C95.5363 84.404 95.6395 84.1778 95.6418 83.9605Z"
    fill="#455A64" />
  <path
    d="M88.5641 112.868C88.4539 112.884 88.1276 111.207 87.8353 109.123C87.5429 107.039 87.3952 105.338 87.505 105.322C87.6152 105.307 87.9416 106.983 88.2339 109.067C88.5262 111.151 88.6739 112.853 88.5641 112.868Z"
    fill="#006060" />
  <path
    d="M123.701 184.704L122.002 156.569L129.903 125.933L125.931 112.92C125.931 112.92 95.0336 115.747 93.4927 115.906C88.5643 116.416 81.3154 105.16 81.3154 105.16H77.2995C77.2995 105.16 73.3513 104.623 69.4954 108.062C65.6396 111.501 58.9379 117.274 58.9379 117.274L63.9738 107.405L49.0605 100.508C49.0605 100.508 40.118 116.417 37.6608 122.013C36.0387 125.707 33.5006 132.218 39.2975 138.453C42.8448 142.268 53.3099 143.6 56.6917 142.485C58.9963 141.725 66.3704 137.663 70.8348 135.152C70.8696 135.745 70.9242 136.321 71.0011 136.876C72.6 148.427 74.8082 155.357 74.8082 155.357L70.7873 184.704H123.701Z"
    fill="#455A64" />
  <path
    d="M52.0194 131.825C51.9193 131.776 54.4933 126.278 57.7676 119.547C61.0431 112.813 63.7783 107.395 63.8781 107.444C63.9779 107.493 61.4046 112.99 58.1295 119.724C54.8552 126.455 52.1192 131.874 52.0194 131.825Z"
    fill="#263238" />
  <path
    d="M75.4972 156.055C75.4705 156.063 75.3004 155.606 75.0147 154.772C74.7254 153.939 74.3403 152.722 73.8933 151.21C72.9974 148.186 71.9066 143.961 70.9956 139.233C70.0893 134.501 69.5367 130.172 69.2483 127.031C69.1029 125.46 69.0097 124.187 68.9695 123.306C68.9258 122.425 68.9146 121.937 68.9424 121.935C68.9703 121.933 69.0341 122.417 69.1257 123.294C69.2139 124.17 69.35 125.437 69.5313 127.001C69.8917 130.129 70.4868 134.438 71.3908 139.156C72.2991 143.872 73.3431 148.094 74.1671 151.132C74.5781 152.652 74.9211 153.879 75.1639 154.725C75.4036 155.573 75.5235 156.046 75.4972 156.055Z"
    fill="#263238" />
  <path
    d="M125.93 112.92C125.93 112.92 133.401 118.226 135.223 125.217C137.046 132.207 146.509 184.704 146.509 184.704H129.903L118.042 141.621L125.93 112.92Z"
    fill="#455A64" />
  <path
    d="M124.737 143.563C124.74 143.577 124.551 143.627 124.19 143.711C123.827 143.787 123.295 143.925 122.6 144.042C121.215 144.308 119.191 144.601 116.674 144.783C114.157 144.968 111.145 145 107.815 144.787C104.485 144.577 100.84 144.102 97.0597 143.376C89.4965 141.897 82.8432 139.772 78.0605 138.2C75.6689 137.407 73.743 136.74 72.4148 136.269C71.7609 136.033 71.249 135.848 70.889 135.718C70.5417 135.587 70.3612 135.512 70.3658 135.499C70.3701 135.486 70.5591 135.535 70.9149 135.641C71.2803 135.754 71.8003 135.914 72.4646 136.12C73.818 136.55 75.7567 137.167 78.1482 137.928C82.9503 139.429 89.6029 141.505 97.1363 142.979C100.902 143.702 104.527 144.185 107.84 144.415C111.153 144.647 114.149 144.646 116.656 144.497C119.164 144.352 121.186 144.104 122.575 143.887C123.272 143.794 123.807 143.681 124.174 143.631C124.541 143.573 124.734 143.55 124.737 143.563Z"
    fill="white" />
  <path
    d="M139.035 145.959C139.037 146.03 137.938 146.06 136.189 146.307C135.752 146.37 135.274 146.441 134.766 146.547C134.255 146.635 133.717 146.77 133.149 146.902C132.021 147.192 130.794 147.568 129.54 148.055C128.29 148.552 127.135 149.112 126.109 149.668C125.604 149.959 125.117 150.226 124.683 150.51C124.238 150.778 123.839 151.052 123.475 151.303C122.024 152.314 121.198 153.041 121.151 152.988C121.133 152.968 121.323 152.768 121.686 152.425C121.865 152.251 122.091 152.045 122.366 151.823C122.641 151.598 122.945 151.331 123.309 151.072C123.666 150.803 124.06 150.513 124.502 150.228C124.934 149.928 125.42 149.647 125.928 149.343C126.957 148.762 128.125 148.183 129.393 147.679C130.665 147.185 131.914 146.814 133.062 146.54C133.64 146.417 134.187 146.292 134.708 146.218C135.225 146.125 135.71 146.07 136.154 146.024C136.597 145.967 137.001 145.955 137.354 145.933C137.707 145.908 138.012 145.906 138.262 145.911C138.76 145.916 139.035 145.932 139.035 145.959Z"
    fill="white" />
  <path
    d="M65.3574 137.371C65.2886 137.379 65.1614 136.378 64.7759 134.804C64.5872 134.017 64.3107 133.093 63.955 132.085C63.5857 131.082 63.1294 129.999 62.5688 128.901C61.9988 127.808 61.3801 126.808 60.7769 125.927C60.1621 125.054 59.5698 124.294 59.0373 123.685C57.979 122.461 57.2374 121.779 57.2838 121.728C57.3024 121.707 57.5034 121.859 57.8534 122.153C58.0301 122.298 58.2408 122.482 58.4713 122.711C58.7033 122.938 58.9766 123.188 59.2488 123.494C59.8145 124.085 60.4386 124.837 61.0793 125.712C61.7084 126.594 62.3472 127.604 62.9264 128.716C63.4964 129.831 63.9499 130.937 64.3049 131.962C64.6471 132.992 64.8984 133.937 65.0535 134.742C65.1447 135.142 65.1911 135.51 65.2418 135.831C65.2948 136.152 65.323 136.43 65.3392 136.659C65.3775 137.115 65.3848 137.368 65.3574 137.371Z"
    fill="white" />
  <path
    d="M172.132 89.3828C172.567 86.7005 171.458 84.0462 170.764 81.4191C169.753 77.588 169.615 73.5881 169.422 69.6297C169.228 65.6713 168.963 61.6633 167.718 57.902C166.473 54.1407 164.127 50.5975 160.655 48.7076C157.183 46.8176 152.504 46.9224 149.581 49.5872L151.984 59.5809C151.784 73.9543 153.234 88.3503 156.297 102.393C160.607 102.723 164.956 102.542 169.225 101.855C170.101 101.714 171.11 101.447 171.45 100.625C171.865 99.6264 171.017 98.6013 170.617 97.5964C170.092 96.2764 170.357 94.7736 170.812 93.4277C171.266 92.0813 171.905 90.7854 172.132 89.3828Z"
    fill="#263238" />
  <path
    d="M155.606 51.7115C154.266 50.5521 152.638 49.7311 150.911 49.3443C150.207 49.1864 149.451 49.1041 148.78 49.3715C148.11 49.6388 147.571 50.3519 147.716 51.0612L152.349 56.688C153.231 57.3996 154.562 57.1745 155.536 56.5956C156.29 56.1475 156.966 55.4472 157.084 54.5757C157.235 53.4641 156.453 52.4444 155.606 51.7115Z"
    fill="#0E7979" />
  <path
    d="M125.576 71.2535C125.671 62.5906 132.466 55.1356 141.243 54.7107C150.555 54.2599 158.258 61.4736 158.391 70.5535L158.003 107.15C157.995 107.858 157.747 108.54 157.308 109.095C154.956 112.071 150.921 114.246 147.439 114.483C144.065 114.713 140.736 113.603 138.008 111.817C137.083 111.212 136.566 110.145 136.623 109.038L137.047 100.87C137.048 100.838 137.027 100.812 136.995 100.812C136.49 100.814 135.205 100.743 134.721 100.588C132.607 99.9108 127.275 97.4097 126.002 89.2086C125.58 86.4891 125.493 78.8474 125.576 71.2535Z"
    fill="#FFBE9D" />
  <path
    d="M136.683 84.0106C136.69 83.9299 135.796 83.777 134.346 83.5931C133.979 83.5551 133.631 83.4829 133.571 83.2354C133.486 82.9735 133.642 82.5824 133.823 82.1606C134.173 81.2833 134.541 80.3638 134.926 79.4C136.46 75.4695 137.572 72.2375 137.411 72.1789C137.25 72.1203 135.877 75.2585 134.344 79.1893C133.975 80.1581 133.621 81.082 133.285 81.9662C133.144 82.3783 132.902 82.8454 133.086 83.3894C133.184 83.6606 133.453 83.8573 133.688 83.9202C133.923 83.9912 134.13 83.9954 134.312 84.0063C135.771 84.0843 136.677 84.0913 136.683 84.0106Z"
    fill="#263238" />
  <path
    d="M129.903 77.5192C129.874 78.216 130.449 78.812 131.186 78.852C131.922 78.8912 132.544 78.36 132.573 77.6628C132.601 76.9659 132.027 76.3688 131.291 76.3296C130.554 76.29 129.933 76.8227 129.903 77.5192Z"
    fill="#263238" />
  <path
    d="M128.154 72.9501C128.299 73.1736 129.4 72.341 130.837 72.452C132.274 72.5377 133.241 73.512 133.418 73.3102C133.504 73.2214 133.372 72.8283 132.953 72.3887C132.54 71.9518 131.808 71.5021 130.912 71.4404C130.016 71.3799 129.224 71.7233 128.751 72.1004C128.269 72.4787 128.082 72.8497 128.154 72.9501Z"
    fill="#263238" />
  <path
    d="M143.575 78.0517C143.546 78.7485 144.121 79.3441 144.858 79.3841C145.594 79.4237 146.215 78.8921 146.244 78.1953C146.273 77.4984 145.699 76.9017 144.963 76.8621C144.226 76.8221 143.605 77.3549 143.575 78.0517Z"
    fill="#263238" />
  <path
    d="M141.744 73.1116C141.933 73.313 142.987 72.3318 144.54 72.239C146.09 72.1211 147.271 72.9506 147.43 72.7252C147.508 72.6255 147.311 72.2538 146.794 71.8774C146.287 71.5022 145.436 71.16 144.468 71.2252C143.501 71.2919 142.705 71.7443 142.256 72.1847C141.798 72.6282 141.652 73.022 141.744 73.1116Z"
    fill="#263238" />
  <path
    d="M137.05 100.813C137.05 100.813 142.608 101.267 149.587 97.1486C149.587 97.1486 147.35 104.396 136.912 103.425L137.05 100.813Z"
    fill="#006060" />
  <path
    d="M137.272 87.4338C137.794 86.7587 138.704 86.3886 139.604 86.4848C140.228 86.5515 140.858 86.8491 141.235 87.3512C141.612 87.8533 141.687 88.566 141.339 89.0444C140.948 89.583 140.135 89.7071 139.448 89.5139C138.762 89.3211 138.173 88.8741 137.614 88.4291C137.459 88.3061 137.301 88.1776 137.205 88.0089C137.109 87.8401 137.09 87.6197 137.21 87.48"
    fill="#006060" />
  <path
    d="M139.974 67.6648C140.107 68.0536 141.549 67.8969 143.234 68.1289C144.924 68.3272 146.275 68.8397 146.507 68.4975C146.611 68.3334 146.381 67.9663 145.84 67.5822C145.303 67.1992 144.439 66.8287 143.428 66.6987C142.416 66.5707 141.484 66.7127 140.863 66.9482C140.236 67.1829 139.917 67.4805 139.974 67.6648Z"
    fill="#263238" />
  <path
    d="M127.945 69.7004C128.254 70.0143 129.425 69.6453 130.843 69.5886C132.259 69.4901 133.467 69.7291 133.736 69.3838C133.853 69.2162 133.656 68.8988 133.124 68.6089C132.601 68.3199 131.729 68.0964 130.755 68.1488C129.782 68.2027 128.944 68.5197 128.459 68.8642C127.965 69.2099 127.809 69.5471 127.945 69.7004Z"
    fill="#263238" />
  <path
    d="M140.094 52.7971C140.934 51.5699 142.371 51.0833 143.946 50.9564C150.374 50.4388 157.207 54.7837 160.394 60.4097C163.581 66.0357 163.21 74.0673 160.187 79.7837L157.772 80.0343C152.823 79.3852 145.437 64.9012 139.006 56.7345C138.208 55.7203 139.365 53.8633 140.094 52.7971Z"
    fill="#263238" />
  <path
    d="M127.622 56.1249C130.496 53.2759 135.079 49.8758 140.455 52.3769C141.16 53.9871 139.38 55.8852 137.929 56.9653C135.804 58.5476 133.972 59.5882 132.571 60.7293C129.737 63.036 126.155 66.9304 125.574 71.4874C125.537 71.7734 125.316 71.7994 125.032 71.735C124.664 71.6512 123.938 69.7228 123.674 67.2066C123.11 61.8417 124.748 58.974 127.622 56.1249Z"
    fill="#263238" />
  <path
    d="M156.395 77.0125C156.548 76.9419 162.588 75.0244 162.527 81.253C162.465 87.4816 156.246 86.1352 156.237 85.9563C156.228 85.7775 156.395 77.0125 156.395 77.0125Z"
    fill="#FFBE9D" />
  <path
    d="M158.157 83.6151C158.184 83.5953 158.264 83.6919 158.446 83.7781C158.623 83.8615 158.929 83.9209 159.254 83.8029C159.912 83.5678 160.475 82.5287 160.516 81.4062C160.537 80.8397 160.424 80.2985 160.229 79.8496C160.043 79.3917 159.753 79.0709 159.424 79.0088C159.096 78.9292 158.86 79.1252 158.782 79.2998C158.697 79.4732 158.736 79.5978 158.702 79.6082C158.685 79.6238 158.57 79.5023 158.623 79.2455C158.649 79.1221 158.724 78.9758 158.871 78.8578C159.021 78.7376 159.241 78.6778 159.47 78.7054C159.949 78.743 160.375 79.1896 160.59 79.6823C160.832 80.1774 160.973 80.7858 160.948 81.4221C160.896 82.6769 160.244 83.8452 159.344 84.0962C158.907 84.2064 158.543 84.0706 158.357 83.9216C158.166 83.7657 158.135 83.6264 158.157 83.6151Z"
    fill="#006060" />
  <path
    d="M126.285 57.3041C126.277 57.3514 126.958 57.5105 128.077 57.6359C129.196 57.7623 130.758 57.8322 132.476 57.715C134.195 57.5947 135.733 57.3107 136.824 57.0317C137.916 56.7535 138.568 56.5025 138.554 56.4567C138.539 56.4005 137.863 56.5576 136.766 56.7652C135.669 56.9739 134.146 57.2114 132.45 57.3301C130.754 57.4457 129.213 57.4197 128.098 57.3639C126.984 57.3088 126.293 57.2459 126.285 57.3041Z"
    fill="#455A64" />
  <path
    d="M123.968 61.6532C123.956 61.6962 124.452 61.8964 125.3 62.0431C126.146 62.1913 127.35 62.2491 128.652 62.0357C129.953 61.8181 131.075 61.3746 131.829 60.9617C132.585 60.5493 132.99 60.2001 132.965 60.1629C132.907 60.0519 131.129 61.252 128.59 61.6551C126.056 62.0928 123.988 61.5294 123.968 61.6532Z"
    fill="#455A64" />
  <path
    d="M161.072 62.5711C161.066 62.4916 159.722 62.6623 157.563 62.4904C156.482 62.4295 155.209 62.2014 153.812 61.9077C152.422 61.5693 150.915 61.1119 149.377 60.5074C147.843 59.8904 146.434 59.1831 145.182 58.4867C143.947 57.7615 142.853 57.0716 141.987 56.4171C140.236 55.1347 139.271 54.1876 139.221 54.2404C139.202 54.2594 139.432 54.5066 139.866 54.9388C140.079 55.1599 140.353 55.4141 140.685 55.695C141.013 55.981 141.384 56.3092 141.824 56.6355C142.676 57.3242 143.766 58.0451 145.005 58.7951C146.261 59.5164 147.683 60.2424 149.235 60.8663C150.791 61.4785 152.322 61.9317 153.734 62.2549C155.155 62.5335 156.448 62.736 157.545 62.7632C158.091 62.8063 158.587 62.7935 159.022 62.7814C159.457 62.7799 159.83 62.7574 160.134 62.7147C160.742 62.6472 161.075 62.5975 161.072 62.5711Z"
    fill="#455A64" />
  <path
    d="M139.521 56.4388C139.498 56.452 139.658 56.7674 139.97 57.3285C140.124 57.6109 140.317 57.9528 140.574 58.3295C140.829 58.7074 141.095 59.1563 141.452 59.6068C142.127 60.5368 143.011 61.5875 144.087 62.6623C145.176 63.7231 146.455 64.8095 147.913 65.7896C149.38 66.7569 150.874 67.5205 152.274 68.1094C153.684 68.6782 154.996 69.0787 156.117 69.3212C156.672 69.4686 157.189 69.5284 157.637 69.6083C158.085 69.6913 158.476 69.7274 158.795 69.7507C159.434 69.8042 159.786 69.8213 159.788 69.7945C159.797 69.7154 158.383 69.611 156.181 69.0558C155.08 68.7822 153.793 68.3601 152.411 67.7812C151.038 67.1821 149.571 66.4209 148.126 65.4679C146.69 64.5022 145.423 63.4399 144.335 62.4074C143.259 61.361 142.365 60.3413 141.669 59.4415C140.274 57.6431 139.587 56.3992 139.521 56.4388Z"
    fill="#455A64" />
  <path
    d="M143.946 50.9564C143.95 50.916 143.468 50.8245 142.699 50.9769C141.939 51.1333 140.915 51.5939 140.071 52.4544C139.864 52.6721 139.673 52.896 139.517 53.1404C139.354 53.3864 139.259 53.6646 139.173 53.8862C138.991 54.3529 138.835 54.7906 138.756 55.1747C138.591 55.9507 138.743 56.44 138.784 56.4276C138.847 56.4225 138.799 55.9488 139.019 55.2426C139.126 54.8888 139.3 54.4818 139.501 54.0208C139.605 53.7787 139.688 53.5556 139.833 53.3469C139.975 53.1323 140.154 52.9263 140.345 52.7245C141.132 51.9229 142.065 51.455 142.766 51.2408C143.474 51.0309 143.947 51.0216 143.946 50.9564Z"
    fill="#455A64" />
  <path
    d="M153.924 74.7381C153.937 74.6465 152.432 74.7102 150.228 73.888C148.035 73.0973 145.228 71.2387 143.131 68.3221C141.036 65.3993 140.003 62.241 139.416 59.9666C139.123 58.8224 138.929 57.8834 138.8 57.2339C138.672 56.584 138.597 56.2239 138.57 56.2282C138.545 56.2317 138.569 56.5987 138.653 57.2587C138.736 57.9183 138.89 58.8697 139.152 60.0314C139.675 62.3384 140.679 65.5619 142.819 68.5484C144.965 71.5332 147.872 73.4042 150.135 74.1449C151.268 74.5282 152.227 74.6916 152.891 74.7354C153.222 74.7742 153.483 74.756 153.657 74.761C153.832 74.7587 153.923 74.7513 153.924 74.7381Z"
    fill="#263238" />
  <path
    d="M123.016 80.7005C123.016 80.6586 123.307 80.8615 123.751 80.6252C123.963 80.5127 124.186 80.29 124.327 79.9765C124.476 79.6642 124.472 79.2591 124.309 78.8505C124.149 78.4435 123.849 78.0516 123.49 77.6644C123.133 77.276 122.704 76.8764 122.372 76.3429C122.209 76.0759 122.073 75.771 122.023 75.4346C121.971 75.0989 122.013 74.7439 122.127 74.4176C122.357 73.7588 122.822 73.2102 123.309 72.7135C123.794 72.2157 124.277 71.7431 124.563 71.1829C124.85 70.6261 124.896 70.0002 124.822 69.4198C124.671 68.2504 124.195 67.24 124.094 66.3092C123.964 65.3896 124.117 64.6078 124.389 64.1581C124.518 63.9296 124.661 63.7825 124.762 63.6921C124.869 63.6068 124.927 63.5664 124.933 63.5742C124.959 63.5986 124.707 63.7604 124.488 64.2105C124.26 64.652 124.144 65.3939 124.294 66.2797C124.413 67.169 124.906 68.1584 125.084 69.3864C125.17 69.994 125.129 70.6905 124.813 71.3105C124.5 71.9286 123.994 72.4198 123.514 72.9137C123.033 73.4018 122.6 73.9214 122.392 74.51C122.17 75.0962 122.288 75.7159 122.597 76.2051C122.898 76.7029 123.307 77.1003 123.666 77.5042C124.025 77.9069 124.335 78.3283 124.498 78.7787C124.665 79.2222 124.654 79.7037 124.471 80.0444C124.3 80.3858 124.044 80.6155 123.801 80.7249C123.557 80.8394 123.334 80.8313 123.203 80.7909C123.07 80.7537 123.013 80.7048 123.016 80.7005Z"
    fill="#263238" />
  <path
    d="M161.416 77.3349C161.407 77.3318 161.429 77.2209 161.482 77.0125C161.53 76.803 161.624 76.5007 161.713 76.103C161.909 75.3131 162.154 74.1588 162.331 72.7162C162.507 71.2748 162.593 69.5381 162.415 67.6272C162.247 65.7194 161.79 63.6374 160.929 61.6027C160.492 60.5904 159.956 59.6534 159.356 58.8052C158.754 57.9571 158.074 57.2156 157.392 56.5471C156.008 55.2248 154.57 54.2497 153.312 53.5335C152.053 52.8153 150.983 52.326 150.235 52.0098C149.864 51.8433 149.568 51.7355 149.372 51.6482C149.175 51.5644 149.073 51.5159 149.076 51.5062C149.08 51.4969 149.188 51.5271 149.392 51.5939C149.595 51.6641 149.898 51.7549 150.277 51.9062C151.04 52.1918 152.129 52.655 153.412 53.3565C154.693 54.0561 156.159 55.0238 157.574 56.3554C158.271 57.0286 158.968 57.779 159.584 58.6407C160.199 59.5025 160.747 60.4585 161.193 61.4902C162.068 63.5574 162.523 65.672 162.678 67.6043C162.844 69.5396 162.735 71.2934 162.532 72.7426C162.329 74.1937 162.051 75.348 161.821 76.1321C161.715 76.5271 161.603 76.8251 161.537 77.0296C161.467 77.2325 161.426 77.338 161.416 77.3349Z"
    fill="#455A64" />
  <path
    d="M156.645 97.0574C156.637 97.0636 156.576 96.9961 156.465 96.8607C156.353 96.7272 156.203 96.5153 156.039 96.2255C155.711 95.6516 155.333 94.729 155.272 93.5258C155.243 92.9271 155.299 92.2636 155.485 91.5796C155.667 90.8889 156.052 90.227 156.384 89.5379C156.711 88.8609 156.97 88.0278 156.558 87.3228C156.171 86.6109 155.369 86.16 154.838 85.3599C154.57 84.9595 154.502 84.3934 154.712 83.9546C154.912 83.5166 155.234 83.2058 155.473 82.8744C155.988 82.2323 155.969 81.376 155.722 80.6702C155.48 79.9497 155.04 79.3591 154.613 78.8171C154.186 78.2747 153.776 77.761 153.492 77.229C152.882 76.1609 153.009 75.0578 153.334 74.475C153.497 74.1758 153.697 73.9915 153.846 73.898C153.994 73.8018 154.084 73.7731 154.086 73.7789C154.115 73.81 153.722 73.9395 153.433 74.5258C153.157 75.0923 153.067 76.131 153.668 77.1305C153.953 77.6352 154.361 78.1296 154.799 78.6689C155.234 79.2043 155.706 79.8181 155.971 80.5844C156.101 80.9655 156.186 81.3814 156.158 81.8148C156.135 82.2455 155.968 82.6897 155.7 83.0409C155.443 83.3939 155.137 83.702 154.973 84.0698C154.807 84.4342 154.854 84.8586 155.082 85.2086C155.541 85.9225 156.361 86.3893 156.803 87.1874C157.03 87.582 157.093 88.0616 157.02 88.4841C156.956 88.9129 156.79 89.2943 156.623 89.652C156.272 90.362 155.897 90.9894 155.714 91.6463C155.526 92.3001 155.46 92.9387 155.475 93.5188C155.507 94.6847 155.845 95.5946 156.138 96.1735C156.434 96.7555 156.668 97.0399 156.645 97.0574Z"
    fill="#263238" />
  <path
    d="M176.278 94.6696C176.318 94.7472 176.205 94.9466 175.819 95.0925C175.442 95.2349 174.767 95.2415 174.089 94.8411C173.751 94.6452 173.408 94.3612 173.125 93.9545C172.98 93.7539 172.858 93.5173 172.759 93.2515C172.673 93 172.601 92.7366 172.568 92.4576C172.413 91.3313 172.735 90.132 173.196 89.0141C173.648 87.9149 174.193 86.8351 174.239 85.8523C174.3 84.8664 173.869 83.7866 173.124 82.6013C172.401 81.4182 171.35 80.1367 170.561 78.4799C169.781 76.8655 169.247 75.0977 168.916 73.3063C168.244 69.7135 168.209 66.3724 167.84 63.4806C167.493 60.6226 166.758 58.1196 165.806 56.2161C164.871 54.2912 163.677 53.0349 162.764 52.2503C162.293 51.8794 161.916 51.5737 161.645 51.3801C161.381 51.1702 161.25 51.0115 161.283 50.918C161.315 50.8244 161.51 50.8 161.865 50.8454C162.229 50.8749 162.725 51.0351 163.355 51.3025C164.58 51.8693 166.246 53.1284 167.558 55.1976C168.892 57.2451 169.919 59.9797 170.45 63.0938C170.984 66.1726 171.109 69.502 171.727 72.7655C172.028 74.3978 172.478 75.9129 173.093 77.2717C173.678 78.608 174.604 79.836 175.396 81.258C175.79 81.9669 176.151 82.7239 176.387 83.5472C176.624 84.3659 176.717 85.2602 176.6 86.1014C176.483 86.9519 176.189 87.6697 175.894 88.2789C175.594 88.8896 175.285 89.4095 175.024 89.8867C174.507 90.8179 174.188 91.6537 174.165 92.3533C174.153 92.5282 174.17 92.6962 174.188 92.8522C174.21 92.9896 174.243 93.1304 174.301 93.2616C174.406 93.5281 174.572 93.7598 174.746 93.9402C175.473 94.6983 176.198 94.4741 176.278 94.6696Z"
    fill="#263238" />
  <path
    d="M141.988 87.4129C141.989 87.5382 140.714 87.5658 139.213 87.9228C137.707 88.2677 136.594 88.878 136.534 88.7791C136.468 88.6937 137.543 87.8929 139.12 87.5293C140.69 87.158 141.996 87.3159 141.988 87.4129Z"
    fill="#263238" />
  <path
    d="M128.421 107.405L140.615 106.385L158.003 107.15L169.623 109.281L151.158 120.068L137.426 118.298L128.421 107.405Z"
    fill="#FFBE9D" />
  <path
    d="M128.249 107.405C128.249 107.405 118.584 109.648 115.321 112.922C112.058 116.197 108.671 127.913 107.984 131.359C107.297 134.806 105.064 163.93 106.439 168.066C107.812 172.202 113.136 175.648 119.49 177.027C125.845 178.406 136.493 179.44 136.493 179.44L141.817 162.551L123.909 157.726L128.249 107.405Z"
    fill="#0E7979" />
  <path
    d="M149.326 159.102L164.255 159.706C164.255 159.706 168.463 155.014 169.515 148.914C170.567 142.815 170.099 138.475 170.099 138.475L174.308 110.558C174.308 110.558 180.269 110.323 182.724 117.596C185.179 124.868 182.966 146.239 182.724 151.847C182.527 156.404 180.114 167.11 176.619 173.382C175.125 176.063 172.528 177.38 170.918 177.47C165.541 177.77 150.11 175.307 150.11 175.307L149.326 159.589"
    fill="#0E7979" />
  <path
    d="M128.249 107.405C128.249 107.405 138.178 112.218 152.181 111.557C166.184 110.896 166.535 108.581 166.535 108.581L175.094 110.634L172.939 153.711L168.751 172.12L172.285 184.891C172.285 184.891 110.256 184.704 110.585 184.704L118.573 161.646L128.249 107.405Z"
    fill="#0E7979" />
  <path
    d="M151.76 158.156C151.757 158.139 152.011 158.086 152.492 158.005C152.974 157.928 153.684 157.826 154.596 157.727C156.419 157.511 159.055 157.404 162.208 156.933L162.069 157.086C162.275 152.941 162.28 147.778 162.481 142.191C162.614 138.674 162.857 135.321 163.271 132.294C163.676 129.266 164.248 126.568 164.87 124.343C165.497 122.118 166.161 120.367 166.671 119.182C166.921 118.587 167.139 118.136 167.291 117.832C167.441 117.528 167.526 117.371 167.539 117.377C167.552 117.383 167.491 117.551 167.365 117.866C167.237 118.18 167.043 118.64 166.816 119.242C166.353 120.441 165.733 122.197 165.145 124.418C164.562 126.64 164.022 129.327 163.639 132.343C163.248 135.358 163.016 138.696 162.884 142.207C162.684 147.781 162.649 152.951 162.395 157.104L162.387 157.239L162.256 157.257C159.073 157.694 156.436 157.752 154.614 157.913C153.702 157.983 152.99 158.055 152.505 158.101C152.02 158.152 151.762 158.173 151.76 158.156Z"
    fill="#263238" />
  <path
    d="M120.107 143.724C120.079 143.726 120.03 143.429 119.965 142.89C119.898 142.35 119.826 141.566 119.758 140.596C119.62 138.657 119.526 135.969 119.6 133.002C119.676 130.033 119.906 127.353 120.142 125.424C120.26 124.459 120.371 123.68 120.466 123.145C120.558 122.609 120.622 122.315 120.65 122.318C120.677 122.322 120.666 122.623 120.621 123.164C120.572 123.732 120.506 124.508 120.426 125.453C120.262 127.385 120.079 130.056 120.003 133.012C119.929 135.967 119.977 138.644 120.042 140.582C120.075 141.53 120.102 142.308 120.122 142.878C120.139 143.42 120.135 143.722 120.107 143.724Z"
    fill="#263238" />
  <path
    d="M149.19 174.089C149.194 174.103 149.065 174.143 148.818 174.209C148.571 174.274 148.206 174.364 147.734 174.475C146.788 174.689 145.417 174.988 143.711 175.299C140.302 175.93 135.556 176.633 130.276 177.015C127.634 177.2 125.12 177.332 122.818 177.328C120.519 177.321 118.436 177.07 116.756 176.579C115.912 176.346 115.184 176.02 114.56 175.717C113.948 175.386 113.447 175.055 113.064 174.75C112.879 174.594 112.713 174.454 112.568 174.331C112.433 174.2 112.325 174.082 112.237 173.989C112.061 173.802 111.974 173.699 111.984 173.69C111.994 173.681 112.101 173.764 112.293 173.931C112.393 174.018 112.51 174.121 112.646 174.24C112.797 174.353 112.967 174.481 113.158 174.624C113.548 174.905 114.052 175.21 114.66 175.515C115.281 175.793 115.999 176.093 116.832 176.304C118.489 176.75 120.54 176.969 122.819 176.956C125.098 176.94 127.616 176.797 130.246 176.612C135.51 176.232 140.248 175.575 143.662 175.018C145.371 174.744 146.748 174.488 147.702 174.322C148.178 174.234 148.548 174.169 148.801 174.13C149.054 174.09 149.187 174.075 149.19 174.089Z"
    fill="#263238" />
  <path
    d="M165.936 161.515C165.819 161.555 165.418 160.181 164.269 158.922C163.139 157.644 161.818 157.102 161.87 156.989C161.887 156.943 162.242 157.014 162.767 157.269C163.289 157.522 163.968 157.985 164.567 158.651C165.165 159.319 165.554 160.043 165.751 160.591C165.95 161.141 165.984 161.503 165.936 161.515Z"
    fill="#263238" />
  <g opacity="0.3">
    <path
      d="M107.369 161.667C110.664 164.064 114.163 166.543 118.21 166.98C121.066 167.289 123.936 166.541 126.808 166.623C130.621 166.733 134.251 168.301 137.546 170.233C140.84 172.164 143.904 174.48 147.257 176.306C150.891 178.284 154.883 179.677 159.004 180.01C163.125 180.344 167.38 179.578 170.959 177.501C165.936 178.104 159.257 177.916 154.008 176.208C148.164 174.307 147.162 172.772 143.801 170.885C139.448 168.44 135.613 165.045 130.982 163.185C127.085 161.62 122.729 161.228 118.617 162.073C116.55 162.498 114.341 163.214 112.408 162.364C111.549 161.986 110.832 161.323 109.959 160.977C109.086 160.63 107.896 160.734 107.459 161.568"
      fill="black" />
  </g>
  <path
    d="M153.79 149.537C153.792 149.565 153.559 149.604 153.133 149.651C152.92 149.678 152.658 149.701 152.353 149.7C152.049 149.702 151.7 149.723 151.317 149.689C150.933 149.669 150.513 149.642 150.066 149.569C149.615 149.521 149.144 149.413 148.645 149.309C147.656 149.066 146.588 148.713 145.52 148.217C144.458 147.708 143.505 147.108 142.688 146.499C142.29 146.18 141.905 145.885 141.581 145.568C141.24 145.268 140.951 144.961 140.691 144.676C140.42 144.402 140.213 144.12 140.021 143.883C139.825 143.649 139.676 143.432 139.561 143.25C139.325 142.89 139.206 142.685 139.229 142.669C139.29 142.626 139.828 143.406 140.896 144.478C141.164 144.744 141.459 145.034 141.802 145.317C142.129 145.617 142.514 145.895 142.909 146.199C143.72 146.778 144.654 147.354 145.691 147.851C146.734 148.335 147.772 148.689 148.734 148.947C149.219 149.058 149.678 149.177 150.117 149.238C150.553 149.323 150.963 149.366 151.339 149.403C152.842 149.544 153.785 149.462 153.79 149.537Z"
    fill="#263238" />
  <path
    d="M180.089 164.834C180.12 164.841 180.005 165.354 179.723 166.252C179.441 167.151 179.012 168.445 178.411 170.02C178.1 170.806 177.781 171.668 177.315 172.563C176.841 173.449 176.198 174.325 175.386 175.112C173.782 176.699 171.404 177.857 168.79 177.997C166.215 178.132 163.764 177.962 161.556 177.707C159.347 177.442 157.374 177.084 155.733 176.721C154.092 176.356 152.781 175.985 151.886 175.698C151.437 175.56 151.094 175.434 150.862 175.348C150.63 175.261 150.511 175.209 150.515 175.196C150.525 175.164 151.023 175.311 151.93 175.547C152.835 175.787 154.15 176.114 155.792 176.441C157.433 176.767 159.4 177.094 161.597 177.337C163.794 177.571 166.227 177.727 168.767 177.594C171.282 177.458 173.568 176.359 175.129 174.843C175.919 174.091 176.55 173.253 177.022 172.402C177.483 171.55 177.823 170.685 178.146 169.915C178.779 168.36 179.248 167.082 179.574 166.201C179.731 165.772 179.856 165.432 179.946 165.184C180.032 164.953 180.075 164.831 180.089 164.834Z"
    fill="#263238" />
  <path
    d="M112.171 137.25C112.171 137.25 120.889 144.032 121.183 144.819C121.477 145.605 124.416 150.225 126.865 152.191C129.313 154.157 151.76 158.757 151.76 158.757L150.472 174.863C150.472 174.863 132.056 163.691 126.57 163.986C121.085 164.281 116.775 165.362 114.424 164.576C112.073 163.789 106.172 160.054 106.172 160.054C106.172 160.054 105.154 157.988 106.262 157.006C106.262 157.006 105.588 154.845 105.745 153.862C105.745 153.862 104.854 151.606 105.721 150.716C105.721 150.716 105.51 147.374 107.371 147.374C109.232 147.374 112.758 147.964 114.424 147.866C116.089 147.768 116.677 146.588 116.677 146.588C116.677 146.588 116.677 145.704 115.305 144.721C113.935 143.737 108.743 139.707 112.171 137.25Z"
    fill="#FFBE9D" />
  <path
    d="M110.605 153.942C110.565 154.04 109.282 153.576 107.883 152.658C106.479 151.745 105.538 150.756 105.611 150.679C105.689 150.592 106.73 151.428 108.102 152.32C109.47 153.218 110.653 153.835 110.605 153.942Z"
    fill="#006060" />
  <path
    d="M110.985 157.443C110.961 157.541 109.419 157.121 107.844 155.978C106.26 154.847 105.369 153.517 105.454 153.462C105.547 153.384 106.549 154.559 108.079 155.65C109.599 156.754 111.029 157.329 110.985 157.443Z"
    fill="#006060" />
  <path
    d="M111.388 160.189C111.376 160.29 109.894 160.056 108.357 159.081C106.811 158.117 105.957 156.88 106.042 156.825C106.134 156.744 107.091 157.817 108.571 158.739C110.041 159.674 111.42 160.071 111.388 160.189Z"
    fill="#006060" />
  <path
    d="M119.513 130.881C119.494 131.012 117.015 130.449 113.962 130.829C110.904 131.176 108.626 132.305 108.577 132.183C108.555 132.14 109.094 131.802 110.042 131.413C110.988 131.024 112.357 130.615 113.914 130.427C115.471 130.244 116.898 130.32 117.909 130.477C118.922 130.632 119.524 130.834 119.513 130.881Z"
    fill="white" />
  <path
    d="M162.034 133.872C162.038 133.886 161.897 133.933 161.626 134.009C161.34 134.084 160.943 134.189 160.438 134.322C159.921 134.458 159.287 134.614 158.544 134.769C157.802 134.927 156.961 135.124 156.02 135.287C155.082 135.464 154.053 135.654 152.941 135.814C151.833 135.999 150.641 136.139 149.388 136.297C146.878 136.576 144.108 136.794 141.194 136.883C138.279 136.957 135.5 136.893 132.978 136.755C131.718 136.668 130.52 136.595 129.403 136.472C128.285 136.374 127.247 136.243 126.3 136.118C125.351 136.007 124.5 135.857 123.751 135.741C123.001 135.628 122.359 135.507 121.836 135.401C121.324 135.296 120.922 135.214 120.632 135.154C120.357 135.093 120.215 135.055 120.217 135.041C120.22 135.028 120.368 135.04 120.647 135.074C120.939 135.116 121.346 135.173 121.862 135.246C122.388 135.329 123.033 135.426 123.784 135.518C124.535 135.613 125.387 135.742 126.335 135.835C127.281 135.941 128.317 136.055 129.434 136.139C130.548 136.247 131.742 136.307 132.998 136.384C135.512 136.501 138.279 136.553 141.183 136.479C144.085 136.391 146.844 136.184 149.348 135.927C150.597 135.78 151.786 135.653 152.893 135.483C154.003 135.337 155.031 135.165 155.97 135.006C156.911 134.861 157.755 134.684 158.499 134.548C159.244 134.414 159.882 134.281 160.403 134.17C160.914 134.068 161.317 133.988 161.607 133.93C161.884 133.879 162.031 133.859 162.034 133.872Z"
    fill="white" />
  <path
    d="M182.303 132.66C182.26 132.725 181.391 132.031 179.754 131.396C178.129 130.747 175.708 130.282 173.034 130.427C170.357 130.573 167.976 131.156 166.261 131.57C164.546 131.997 163.482 132.266 163.466 132.209C163.458 132.182 163.714 132.081 164.183 131.92C164.653 131.761 165.336 131.542 166.188 131.294C167.889 130.808 170.284 130.172 173.014 130.023C175.743 129.874 178.227 130.398 179.861 131.132C180.682 131.491 181.307 131.865 181.711 132.159C182.116 132.451 182.318 132.641 182.303 132.66Z"
    fill="white" />
  <g opacity="0.3">
    <path
      d="M139.522 143.034L139.643 143.384C140.177 146.774 142.453 149.892 145.611 151.209C148.769 152.526 152.709 151.876 155.124 149.446C149.285 150.72 142.794 148.052 139.522 143.034Z"
      fill="black" />
  </g>
  <g opacity="0.3">
    <path
      d="M170.355 161.761C169.84 160.361 168.499 159.457 167.186 158.756C165.485 157.847 163.69 157.112 161.84 156.568L161.886 157.095C163.946 158.567 165.695 160.478 166.982 162.662C167.481 163.509 168.12 164.525 169.1 164.483C169.681 164.459 170.193 164.016 170.404 163.472C170.614 162.928 170.557 162.308 170.355 161.761Z"
      fill="black" />
  </g>
  <path
    d="M257.179 184.891C257.179 185.003 206.95 185.093 145.005 185.093C83.0384 185.093 32.8208 185.003 32.8208 184.891C32.8208 184.78 83.0384 184.689 145.005 184.689C206.95 184.689 257.179 184.78 257.179 184.891Z"
    fill="#263238" />
</svg>
