<svg width="290" height="194" viewBox="0 0 290 194" fill="none" xmlns="http://www.w3.org/2000/svg">
  <path
    d="M149.643 15.5472C149.643 15.5472 149.298 63.4652 123.651 59.1692C98.6504 54.9816 107.78 10.7336 107.78 10.7336C107.78 10.7336 127.82 25.4315 149.643 15.5472Z"
    fill="#EBEBEB" />
  <path
    d="M124.088 31.8121C120.717 30.082 117.485 28.0803 114.433 25.8315C113.457 27.4591 113.551 29.6366 114.561 31.2433C115.57 32.8504 117.417 34.125 119.303 33.9748C121.387 33.8092 122.68 33.0824 124.088 31.8121Z"
    fill="#E0E0E0" />
  <path
    d="M141.935 28.1471C138.636 30.0099 135.187 31.6065 131.633 32.916C132.445 34.6317 134.305 35.7566 136.198 35.8004C138.09 35.8442 140.17 35.0046 141.088 33.3436C142.101 31.5087 142.212 30.0262 141.935 28.1471Z"
    fill="#E0E0E0" />
  <path
    d="M118.288 45.8387C118.028 45.7557 117.869 45.3692 117.878 44.7057C117.896 44.0485 118.113 43.12 118.662 42.0794C119.215 41.05 120.095 39.8907 121.425 38.9571C122.079 38.4807 122.848 38.0694 123.711 37.771C124.572 37.475 125.53 37.2755 126.537 37.2942C128.561 37.3202 130.365 38.0969 131.641 39.1073C132.942 40.1103 133.775 41.3243 134.259 42.3991C134.744 43.4816 134.893 44.4283 134.859 45.0872C134.818 45.751 134.627 46.1235 134.362 46.1848C133.793 46.3152 133.123 45.2067 131.878 43.9658C131.258 43.3474 130.487 42.6881 129.56 42.19C128.642 41.6751 127.579 41.3534 126.503 41.3352C125.963 41.3204 125.42 41.414 124.894 41.5482C124.367 41.684 123.853 41.878 123.379 42.1228C122.414 42.5865 121.606 43.2209 120.937 43.799C119.604 44.9684 118.843 46.0133 118.288 45.8387Z"
    fill="#E0E0E0" />
  <path
    d="M232.468 31C228.855 29.8659 225.333 28.4404 221.947 26.741C221.258 28.5106 221.717 30.6408 222.982 32.0535C224.248 33.4662 226.282 34.4102 228.117 33.9422C230.143 33.4258 231.295 32.4904 232.468 31Z"
    fill="#E0E0E0" />
  <path
    d="M249.442 24.3641C246.503 26.7592 243.373 28.9169 240.09 30.8095C241.179 32.3631 243.202 33.1565 245.075 32.8791C246.947 32.6017 248.856 31.4222 249.481 29.6292C250.172 27.6493 250.031 26.1694 249.442 24.3641Z"
    fill="#E0E0E0" />
  <path
    d="M229.111 45.8077C228.84 45.77 228.619 45.4162 228.517 44.7601C228.424 44.1094 228.481 43.1576 228.847 42.0387C229.22 40.9305 229.892 39.6385 231.045 38.4931C231.609 37.9127 232.299 37.3772 233.099 36.9368C233.897 36.4992 234.808 36.1403 235.805 35.9878C237.803 35.6704 239.713 36.1302 241.139 36.9101C242.591 37.6779 243.616 38.7337 244.274 39.711C244.934 40.6962 245.24 41.6041 245.318 42.259C245.388 42.9206 245.264 43.3198 245.012 43.4254C244.473 43.65 243.626 42.6711 242.191 41.6588C241.475 41.1544 240.605 40.6353 239.606 40.3012C238.615 39.9493 237.514 39.8123 236.449 39.9764C235.915 40.0533 235.395 40.2376 234.899 40.4591C234.403 40.6822 233.93 40.9604 233.503 41.2821C232.63 41.9029 231.94 42.6649 231.378 43.3478C230.262 44.7271 229.688 45.8861 229.111 45.8077Z"
    fill="#E0E0E0" />
  <path
    d="M269.783 134.361C269.783 134.361 261.019 180.14 237.241 171.486C214.06 163.049 230.581 122.337 230.581 122.337C230.581 122.337 247.166 139.949 269.783 134.361Z"
    fill="#EBEBEB" />
  <path
    d="M231.221 141.851C234.386 143.742 237.399 145.887 240.222 148.261C241.27 146.742 241.315 144.622 240.434 142.999C239.554 141.376 237.841 140.023 236 140.051C233.966 140.082 232.666 140.706 231.221 141.851Z"
    fill="#E0E0E0" />
  <path
    d="M250.054 151.287C253.538 150.09 257.118 149.174 260.749 148.551C260.273 146.766 258.692 145.36 256.889 144.983C255.087 144.605 252.95 145.04 251.779 146.467C250.486 148.042 250.12 149.441 250.054 151.287Z"
    fill="#E0E0E0" />
  <path
    d="M252.3 155.366C252.54 155.495 252.619 155.917 252.475 156.592C252.323 157.258 251.918 158.164 251.153 159.121C250.386 160.066 249.263 161.081 247.725 161.78C246.965 162.142 246.101 162.415 245.163 162.556C244.228 162.694 243.212 162.716 242.187 162.507C240.128 162.098 238.429 160.966 237.313 159.694C236.167 158.424 235.538 157.026 235.236 155.836C234.937 154.637 234.953 153.639 235.102 152.97C235.259 152.297 235.513 151.95 235.785 151.938C236.37 151.913 236.824 153.189 237.862 154.729C238.379 155.496 239.048 156.336 239.917 157.042C240.772 157.762 241.823 158.311 242.953 158.54C243.518 158.66 244.106 158.667 244.683 158.627C245.261 158.585 245.835 158.479 246.376 158.312C247.471 158.008 248.429 157.496 249.227 157.016C250.822 156.04 251.783 155.092 252.3 155.366Z"
    fill="#E0E0E0" />
  <path
    d="M20.9229 55.9892C24.0877 57.8795 27.101 60.0251 29.9237 62.3989C30.9727 60.8799 31.0168 58.7603 30.1363 57.1373C29.2563 55.5142 27.543 54.1609 25.7017 54.1888C23.6682 54.2195 22.3682 54.8446 20.9229 55.9892Z"
    fill="#EBEBEB" />
  <path
    d="M39.7559 65.4253C43.2401 64.228 46.8206 63.3119 50.4511 62.6892C49.9758 60.904 48.3944 59.4983 46.5917 59.1207C44.7891 58.7432 42.652 59.1782 41.4816 60.6048C40.1885 62.1801 39.8216 63.5789 39.7559 65.4253Z"
    fill="#EBEBEB" />
  <path
    d="M42.0013 69.5044C42.2422 69.6332 42.3207 70.0557 42.1769 70.7301C42.0245 71.3959 41.6197 72.3019 40.8549 73.2594C40.0881 74.2038 38.9644 75.2196 37.4267 75.9188C36.6673 76.2804 35.8027 76.5536 34.8646 76.694C33.9293 76.8325 32.9139 76.8546 31.8892 76.6451C29.8298 76.2362 28.1312 75.1044 27.0145 73.8321C25.8688 72.5626 25.2397 71.165 24.9385 69.9742C24.6388 68.7753 24.6555 67.7774 24.8039 67.1085C24.9613 66.4357 25.2153 66.0884 25.4876 66.0768C26.0722 66.0516 26.5261 67.3277 27.564 68.8673C28.0813 69.634 28.7503 70.4748 29.6191 71.1801C30.474 71.8999 31.5254 72.4489 32.6548 72.6778C33.2201 72.7985 33.8086 72.8051 34.3855 72.7647C34.9636 72.7228 35.537 72.6169 36.0784 72.4501C37.173 72.1463 38.1308 71.6341 38.9296 71.1545C40.5246 70.1779 41.4855 69.2301 42.0013 69.5044Z"
    fill="#EBEBEB" />
  <path
    d="M65.0715 141.621C65.0715 141.621 77.5852 177.479 57.2983 181.156C37.5215 184.74 32.542 149.264 32.542 149.264C32.542 149.264 51.4175 154.856 65.0715 141.621Z"
    fill="#EBEBEB" />
  <path
    d="M48.0522 158.35C45.629 160.128 43.063 161.71 40.3877 163.075C41.1877 164.349 42.7576 165.06 44.2517 164.916C45.7457 164.772 47.304 163.915 47.8712 162.521C48.4976 160.98 48.4458 159.803 48.0522 158.35Z"
    fill="#E0E0E0" />
  <path
    d="M64.3653 156.779C61.3648 156.7 58.37 156.379 55.4205 155.82C55.2779 157.319 56.0879 158.844 57.3581 159.646C58.6283 160.449 60.3838 160.726 61.6818 159.97C63.1156 159.135 63.7919 158.171 64.3653 156.779Z"
    fill="#E0E0E0" />
  <path
    d="M49.9405 174.137C49.6671 174.152 49.3848 173.893 49.1567 173.351C48.9378 172.813 48.7994 171.987 48.9034 170.96C49.0148 169.941 49.3585 168.709 50.1512 167.517C50.5359 166.916 51.0382 166.332 51.6561 165.811C52.2728 165.292 53.0036 164.823 53.8462 164.519C55.5355 163.899 57.2748 163.982 58.6362 164.425C60.0186 164.855 61.0695 165.607 61.7845 166.353C62.5017 167.105 62.8938 167.85 63.0438 168.414C63.1892 168.985 63.1177 169.363 62.8903 169.515C62.4082 169.835 61.4778 169.207 60.1133 168.666C59.4328 168.396 58.6358 168.14 57.7821 168.049C56.9302 167.941 56.0452 168.02 55.244 168.309C54.4444 168.61 53.7004 169.144 53.0984 169.78C52.4797 170.403 52.0176 171.119 51.6387 171.757C50.8866 173.041 50.5166 174.101 49.9405 174.137Z"
    fill="#E0E0E0" />
  <path
    d="M167.639 90.591C166.974 87.9565 167.85 85.216 168.313 82.5384C168.989 78.6336 168.781 74.6372 168.632 70.6765C168.483 66.7162 168.4 62.7004 169.315 58.8448C170.23 54.9893 172.262 51.2552 175.557 49.0703C178.852 46.8855 183.523 46.5825 186.666 48.9827L185.136 59.1479C186.577 73.4499 186.377 87.9177 184.539 102.174C180.273 102.878 175.925 103.076 171.613 102.763C170.729 102.699 169.7 102.521 169.29 101.732C168.791 100.773 169.548 99.678 169.859 98.6416C170.267 97.2809 169.873 95.8069 169.304 94.5055C168.735 93.2046 167.987 91.9688 167.639 90.591Z"
    fill="#263238" />
  <path
    d="M180.847 51.6129C182.081 50.3414 183.632 49.3819 185.319 48.8461C186.007 48.6276 186.754 48.4794 187.445 48.6878C188.135 48.8961 188.734 49.5592 188.652 50.2782L184.522 56.2871C183.705 57.0728 182.359 56.9646 181.339 56.4726C180.55 56.0916 179.815 55.4529 179.622 54.5951C179.375 53.5005 180.066 52.4168 180.847 51.6129Z"
    fill="#455A64" />
  <path
    d="M212.453 68.4676C211.61 59.8455 204.196 53.0101 195.415 53.3508C186.099 53.712 179.048 61.5694 179.701 70.6261L183.251 107.051C183.32 107.756 183.627 108.413 184.111 108.928C186.711 111.689 190.919 113.504 194.409 113.437C197.791 113.372 201.01 111.977 203.574 109.96C204.442 109.277 204.866 108.169 204.713 107.072L203.585 98.971C203.581 98.94 203.6 98.9121 203.631 98.9093C204.135 98.8667 205.409 98.6843 205.878 98.488C207.925 97.6289 213.022 94.6731 213.58 86.3925C213.766 83.6462 213.192 76.0259 212.453 68.4676Z"
    fill="#FFBE9D" />
  <path
    d="M202.491 82.1435C202.477 82.064 203.355 81.8335 204.783 81.5242C205.146 81.4544 205.486 81.3524 205.525 81.1005C205.587 80.832 205.398 80.4565 205.181 80.0518C204.756 79.2083 204.311 78.324 203.843 77.3975C201.976 73.6152 200.588 70.4918 200.743 70.4197C200.898 70.3471 202.538 73.3541 204.405 77.1367C204.856 78.0699 205.288 78.9596 205.699 79.8108C205.876 80.2089 206.157 80.6536 206.02 81.2111C205.947 81.4897 205.696 81.7093 205.467 81.7923C205.238 81.8835 205.033 81.9056 204.853 81.9324C203.406 82.1373 202.504 82.223 202.491 82.1435Z"
    fill="#263238" />
  <path
    d="M211.133 74.6931C211.008 74.9283 209.84 74.1945 208.418 74.4304C206.993 74.6411 206.114 75.6957 205.921 75.5103C205.828 75.4292 205.924 75.026 206.304 74.5515C206.677 74.0805 207.368 73.5687 208.256 73.4294C209.143 73.2909 209.962 73.564 210.466 73.8985C210.978 74.2337 211.197 74.5868 211.133 74.6931Z"
    fill="#263238" />
  <path
    d="M196.961 75.5956C196.79 75.8124 195.655 74.9266 194.1 74.9693C192.545 74.9868 191.44 75.916 191.262 75.7054C191.176 75.6126 191.341 75.225 191.823 74.8056C192.295 74.3877 193.114 73.9726 194.083 73.9535C195.053 73.9357 195.884 74.3175 196.371 74.7171C196.865 75.1187 197.044 75.4982 196.961 75.5956Z"
    fill="#263238" />
  <path
    d="M203.578 98.914C203.578 98.914 198.08 99.8498 190.771 96.3547C190.771 96.3547 193.625 103.38 203.941 101.505L203.578 98.914Z"
    fill="#006060" />
  <path
    d="M202.446 85.5214C201.519 85.2013 200.41 85.4209 199.602 86.0836C199.042 86.5434 198.623 87.229 198.575 87.9511C198.528 88.6735 198.904 89.408 199.539 89.6486C200.255 89.9194 201.116 89.5244 201.657 88.9036C202.196 88.2832 202.483 87.48 202.742 86.6971C202.813 86.4806 202.885 86.2567 202.872 86.0336C202.858 85.8101 202.738 85.5858 202.534 85.5272"
    fill="#006060" />
  <path
    d="M197.66 73.1457C197.328 73.3855 196.241 72.4209 194.734 71.6321C193.241 70.8131 191.844 70.4468 191.852 70.0332C191.861 69.8392 192.26 69.6723 192.923 69.6739C193.582 69.6731 194.5 69.8718 195.4 70.3529C196.299 70.8356 196.978 71.4925 197.348 72.045C197.724 72.6002 197.813 73.0285 197.66 73.1457Z"
    fill="#263238" />
  <path
    d="M209.745 69.2009C209.703 69.6402 208.562 70.0949 207.426 70.9485C206.265 71.7683 205.478 72.7182 205.053 72.6204C204.857 72.5645 204.81 72.1936 205.04 71.6322C205.265 71.0761 205.8 70.3514 206.589 69.776C207.379 69.2017 208.228 68.9173 208.822 68.8777C209.422 68.8331 209.755 68.9953 209.745 69.2009Z"
    fill="#263238" />
  <path
    d="M196.394 51.3444C195.452 50.1948 193.978 49.8351 192.398 49.8459C185.949 49.8898 179.518 54.8131 176.829 60.6952C174.14 66.5773 175.204 74.5464 178.71 79.978L181.137 80.0176C186.012 78.9401 192.118 63.8679 197.818 55.1724C198.526 54.0922 197.213 52.3431 196.394 51.3444Z"
    fill="#263238" />
  <path
    d="M209.106 53.5742C205.997 50.9859 201.138 47.9975 195.998 50.9572C195.435 52.6225 197.373 54.3588 198.911 55.3086C201.165 56.7 203.08 57.5772 204.575 58.5918C207.597 60.6432 211.502 64.2109 212.476 68.7004C212.537 68.9821 212.759 68.9891 213.037 68.8998C213.396 68.7846 213.952 66.8 213.998 64.2706C214.096 58.8766 212.216 56.1622 209.106 53.5742Z"
    fill="#263238" />
  <path
    d="M182.248 76.8872C182.09 76.8306 175.906 75.4454 176.506 81.6453C177.105 87.8451 183.185 85.9626 183.178 85.7837C183.171 85.6048 182.248 76.8872 182.248 76.8872Z"
    fill="#FFBE9D" />
  <path
    d="M181.064 83.6187C181.035 83.6016 180.963 83.7044 180.79 83.8061C180.62 83.9046 180.321 83.9908 179.987 83.9011C179.311 83.7242 178.661 82.7379 178.523 81.6236C178.452 81.061 178.518 80.5119 178.674 80.0479C178.819 79.5757 179.081 79.2308 179.404 79.14C179.724 79.0321 179.975 79.2071 180.068 79.3743C180.167 79.5396 180.14 79.6673 180.174 79.6746C180.193 79.6886 180.297 79.5579 180.222 79.3064C180.184 79.1858 180.098 79.0465 179.942 78.9417C179.782 78.835 179.558 78.7947 179.331 78.842C178.858 78.9211 178.471 79.403 178.299 79.9125C178.102 80.4266 178.014 81.0447 178.093 81.6767C178.254 82.9222 179.004 84.0292 179.922 84.2014C180.368 84.2732 180.718 84.106 180.891 83.9419C181.067 83.7692 181.087 83.6276 181.064 83.6187Z"
    fill="#006060" />
  <path
    d="M184.513 74.406C184.492 74.316 185.996 74.2484 188.122 73.2373C190.238 72.2584 192.873 70.1628 194.71 67.0747C196.546 63.9808 197.302 60.7441 197.689 58.4273C197.883 57.2618 197.994 56.3096 198.066 55.6512C198.139 54.9928 198.181 54.6277 198.209 54.6292C198.234 54.6304 198.242 54.9986 198.216 55.6628C198.189 56.3271 198.119 57.2882 197.958 58.4685C197.636 60.8124 196.914 64.1112 195.04 67.2726C193.161 70.4332 190.426 72.5498 188.235 73.4845C187.14 73.9648 186.198 74.2112 185.541 74.3128C185.215 74.3804 184.954 74.385 184.78 74.4048C184.606 74.4188 184.514 74.4195 184.513 74.406Z"
    fill="#263238" />
  <path
    d="M215.82 77.6562C215.817 77.6147 215.544 77.8421 215.081 77.6454C214.86 77.5515 214.619 77.3493 214.452 77.0494C214.276 76.751 214.246 76.3471 214.372 75.9261C214.497 75.5067 214.761 75.0904 215.085 74.6733C215.408 74.2554 215.801 73.8197 216.085 73.2594C216.224 72.9797 216.334 72.6638 216.354 72.3239C216.377 71.9852 216.305 71.6352 216.163 71.3198C215.876 70.6835 215.366 70.1775 214.838 69.7251C214.312 69.2715 213.79 68.8424 213.456 68.3093C213.122 67.7797 213.022 67.16 213.046 66.5753C213.096 65.397 213.481 64.3494 213.503 63.4131C213.553 62.4858 213.332 61.7203 213.023 61.2958C212.875 61.0793 212.719 60.9451 212.611 60.864C212.497 60.7883 212.436 60.7534 212.43 60.7615C212.407 60.7883 212.672 60.9272 212.929 61.3567C213.194 61.7769 213.373 62.5056 213.301 63.4011C213.258 64.2974 212.853 65.326 212.782 66.5649C212.749 67.1779 212.85 67.8678 213.219 68.4583C213.584 69.0469 214.13 69.4919 214.651 69.9424C215.172 70.387 215.648 70.8666 215.906 71.4346C216.178 71.9996 216.114 72.627 215.849 73.1414C215.592 73.6637 215.219 74.0952 214.896 74.5285C214.573 74.9612 214.3 75.4078 214.177 75.8706C214.049 76.3269 214.101 76.8057 214.313 77.1289C214.513 77.4545 214.788 77.6605 215.04 77.7486C215.293 77.8413 215.513 77.8137 215.641 77.7621C215.771 77.714 215.824 77.6605 215.82 77.6562Z"
    fill="#263238" />
  <path
    d="M183.732 96.8781C183.74 96.8836 183.796 96.811 183.894 96.6667C183.995 96.5239 184.126 96.3 184.264 95.997C184.541 95.3968 184.838 94.4446 184.795 93.2406C184.771 92.642 184.658 91.9855 184.414 91.3204C184.173 90.6484 183.732 90.0226 183.342 89.3645C182.958 88.7185 182.628 87.9111 182.978 87.1727C183.302 86.4297 184.062 85.9105 184.521 85.0674C184.754 84.6453 184.773 84.0757 184.525 83.6567C184.288 83.238 183.941 82.9563 183.674 82.6467C183.106 82.0519 183.05 81.1971 183.236 80.4723C183.415 79.7332 183.802 79.107 184.18 78.5296C184.559 77.9523 184.923 77.4048 185.16 76.85C185.676 75.7329 185.453 74.645 185.079 74.0928C184.891 73.8088 184.675 73.6428 184.519 73.5624C184.363 73.4794 184.272 73.4588 184.269 73.4647C184.243 73.498 184.646 73.5927 184.984 74.1518C185.308 74.6919 185.487 75.7189 184.975 76.7669C184.735 77.2942 184.372 77.8223 183.982 78.3977C183.595 78.9692 183.178 79.6214 182.979 80.4079C182.883 80.7986 182.833 81.2208 182.9 81.6499C182.959 82.0771 183.164 82.5051 183.462 82.8314C183.748 83.1608 184.08 83.4413 184.275 83.7932C184.472 84.1417 184.462 84.5688 184.265 84.9371C183.869 85.6882 183.092 86.2248 182.721 87.0582C182.529 87.4711 182.507 87.9545 182.617 88.3689C182.718 88.7907 182.917 89.1562 183.113 89.498C183.524 90.1747 183.952 90.7671 184.191 91.4054C184.436 92.0402 184.556 92.6711 184.592 93.25C184.66 94.4143 184.402 95.3502 184.16 95.9524C183.916 96.5596 183.707 96.863 183.732 96.8781Z"
    fill="#263238" />
  <path
    d="M163.966 96.2085C163.933 96.2892 164.063 96.4781 164.46 96.5899C164.848 96.6989 165.521 96.6465 166.162 96.1887C166.482 95.964 166.799 95.6513 167.046 95.2214C167.173 95.0088 167.274 94.7624 167.35 94.4893C167.413 94.2312 167.462 93.9623 167.471 93.6818C167.528 92.5462 167.104 91.3794 166.548 90.3058C166.003 89.2501 165.366 88.2219 165.235 87.2468C165.089 86.2699 165.426 85.1567 166.065 83.9112C166.683 82.6696 167.619 81.3015 168.262 79.5823C168.899 77.9061 169.279 76.0984 169.454 74.2849C169.812 70.647 169.559 67.3157 169.676 64.4026C169.775 61.5252 170.291 58.9675 171.074 56.9883C171.839 54.9893 172.92 53.634 173.762 52.7727C174.199 52.3622 174.548 52.0246 174.802 51.8085C175.047 51.5765 175.163 51.4069 175.122 51.3165C175.082 51.2261 174.886 51.2187 174.535 51.2948C174.176 51.3557 173.696 51.5586 173.091 51.8799C171.92 52.5511 170.368 53.9506 169.241 56.1261C168.089 58.2819 167.302 61.0956 167.042 64.2443C166.776 67.358 166.939 70.6855 166.605 73.9908C166.446 75.6429 166.129 77.1918 165.634 78.5991C165.167 79.9812 164.351 81.2852 163.684 82.7705C163.353 83.5108 163.059 84.2965 162.896 85.1369C162.73 85.973 162.715 86.872 162.904 87.7C163.094 88.5373 163.449 89.2268 163.795 89.8076C164.146 90.39 164.5 90.8809 164.801 91.334C165.397 92.2167 165.786 93.0218 165.87 93.7164C165.897 93.8898 165.895 94.0586 165.89 94.2153C165.88 94.3538 165.859 94.497 165.813 94.6328C165.731 94.9075 165.586 95.1527 165.428 95.3475C164.771 96.1666 164.029 96.0067 163.966 96.2085Z"
    fill="#263238" />
  <path
    d="M201.658 89.7755C201.659 89.8034 201.516 89.8348 201.256 89.8876C200.993 89.9342 200.62 90.0195 200.121 90.0265C200.001 90.0284 199.844 90.0094 199.718 89.973C199.585 89.9376 199.445 89.8926 199.305 89.8174C199.167 89.744 199.031 89.6385 198.921 89.507C198.807 89.377 198.73 89.2167 198.659 89.0883C198.515 88.8163 198.316 88.5032 198.294 88.0881C198.291 87.9868 198.297 87.8836 198.318 87.7831L198.377 87.5177C198.421 87.3411 198.471 87.1615 198.537 86.9819C198.667 86.6237 198.856 86.278 199.123 86.0099C199.388 85.741 199.706 85.5602 200.019 85.4438C200.652 85.2126 201.264 85.2277 201.741 85.2937C202.703 85.4485 203.243 85.6871 203.234 85.7278C203.222 85.7957 202.638 85.6537 201.714 85.5781C201.254 85.5498 200.7 85.5703 200.153 85.7911C199.882 85.9017 199.619 86.0627 199.406 86.2858C199.192 86.5073 199.033 86.7976 198.915 87.1208C198.856 87.2822 198.809 87.4482 198.766 87.6151L198.708 87.863C198.692 87.9332 198.688 88.0035 198.688 88.0733C198.693 88.3534 198.845 88.6332 198.986 88.9137C199.121 89.2113 199.251 89.396 199.469 89.5252C199.684 89.6466 199.92 89.7273 200.134 89.7405C200.584 89.7696 200.974 89.7297 201.24 89.7305C201.507 89.7262 201.658 89.7479 201.658 89.7755Z"
    fill="#263238" />
  <path
    d="M210.286 102.164L201.752 105.182C201.752 105.182 202.734 113.515 202.777 112.998C202.819 112.48 210.286 102.164 210.286 102.164Z"
    fill="#FFBE9D" />
  <path
    d="M201.658 89.7755C201.659 89.8034 201.516 89.8348 201.256 89.8876C200.993 89.9342 200.62 90.0195 200.121 90.0265C200.001 90.0284 199.844 90.0094 199.718 89.973C199.585 89.9376 199.445 89.8926 199.305 89.8174C199.167 89.744 199.031 89.6385 198.921 89.507C198.807 89.377 198.73 89.2167 198.659 89.0883C198.515 88.8163 198.316 88.5032 198.294 88.0881C198.291 87.9868 198.297 87.8836 198.318 87.7831L198.377 87.5177C198.421 87.3411 198.471 87.1615 198.537 86.9819C198.667 86.6237 198.856 86.278 199.123 86.0099C199.388 85.741 199.706 85.5602 200.019 85.4438C200.652 85.2126 201.264 85.2277 201.741 85.2937C202.703 85.4485 203.243 85.6871 203.234 85.7278C203.222 85.7957 202.638 85.6537 201.714 85.5781C201.254 85.5498 200.7 85.5703 200.153 85.7911C199.882 85.9017 199.619 86.0627 199.406 86.2858C199.192 86.5073 199.033 86.7976 198.915 87.1208C198.856 87.2822 198.809 87.4482 198.766 87.6151L198.708 87.863C198.692 87.9332 198.688 88.0035 198.688 88.0733C198.693 88.3534 198.845 88.6332 198.986 88.9137C199.121 89.2113 199.251 89.396 199.469 89.5252C199.684 89.6466 199.92 89.7273 200.134 89.7405C200.584 89.7696 200.974 89.7297 201.24 89.7305C201.507 89.7262 201.658 89.7479 201.658 89.7755Z"
    fill="#263238" />
  <path d="M214.638 60.3623L210.897 67.3467L232.057 80.7793L238.321 69.6328L214.638 60.3623Z"
    fill="#FFBE9D" />
  <path
    d="M167.875 90.8304C167.875 90.8304 172.233 63.1974 173.256 60.3635C174.279 57.5295 181.031 50.2646 185.129 51.1733C189.227 52.082 192.131 56.0179 192.372 62.1176C192.612 68.2178 184.578 112.049 184.578 112.049C184.578 112.049 172.825 121.113 168.3 115.572C163.775 110.031 165.128 104.421 167.875 90.8304Z"
    fill="#455A64" />
  <path
    d="M175.974 107.197C175.974 107.197 196.235 113.041 197.712 112.734C203.919 111.442 210.286 102.163 210.286 102.163L214.269 101.037C214.269 101.037 221.141 122.922 218.947 134.374C216.753 145.827 214.189 152.632 214.189 152.632L217.804 184.704H158.785L170.823 150.005L167.655 114.72L175.974 107.197Z"
    fill="#455A64" />
  <path
    d="M230.573 81.4819L233.554 84.1987L213.587 101.23L218.004 126.794C218.004 126.794 235.146 110.509 241.937 103.813C252.702 93.1991 256.592 85.6304 255.558 82.7872C253.825 78.026 238.457 68.6267 238.457 68.6267L230.573 81.4819Z"
    fill="#455A64" />
  <path
    d="M183.752 125.217C183.709 125.233 183.386 124.539 183.054 123.347C182.886 122.752 182.732 122.031 182.608 121.222C182.494 120.412 182.414 119.513 182.404 118.568C182.402 117.623 182.469 116.723 182.573 115.911C182.686 115.101 182.83 114.377 182.991 113.78C183.307 112.584 183.621 111.886 183.665 111.902C183.796 111.933 182.763 114.834 182.807 118.565C182.812 122.296 183.884 125.184 183.752 125.217Z"
    fill="#263238" />
  <path
    d="M203.873 132.373C203.898 132.372 203.946 132.677 203.973 133.234C204.002 133.791 203.99 134.601 203.87 135.594C203.641 137.571 202.853 140.314 201.087 142.832C199.32 145.351 197.013 147.022 195.236 147.904C194.345 148.353 193.589 148.639 193.056 148.799C192.524 148.961 192.222 149.018 192.215 148.995C192.19 148.922 193.382 148.599 195.102 147.652C196.816 146.719 199.036 145.053 200.757 142.599C202.478 140.146 203.291 137.487 203.588 135.554C203.896 133.609 203.796 132.374 203.873 132.373Z"
    fill="#263238" />
  <path
    d="M225.173 113.858C225.22 113.902 224.638 114.572 223.774 115.71C222.909 116.846 221.788 118.473 220.754 120.389C219.723 122.308 218.98 124.14 218.506 125.488C218.031 126.836 217.791 127.692 217.729 127.677C217.683 127.666 217.825 126.783 218.236 125.399C218.644 124.016 219.355 122.14 220.399 120.197C221.448 118.255 222.621 116.632 223.551 115.531C224.481 114.429 225.139 113.825 225.173 113.858Z"
    fill="#263238" />
  <path
    d="M218.943 132.896C218.945 132.91 218.773 132.943 218.445 132.995C218.116 133.041 217.632 133.131 217.003 133.19C215.748 133.342 213.919 133.468 211.657 133.465C209.396 133.452 206.703 133.285 203.737 132.923C200.77 132.583 197.528 132.028 194.129 131.558C187.309 130.679 181.048 131.057 176.599 131.693C174.37 132.007 172.581 132.366 171.349 132.632C170.744 132.766 170.269 132.871 169.932 132.945C169.607 133.014 169.434 133.044 169.431 133.031C169.427 133.018 169.593 132.961 169.911 132.867C170.231 132.775 170.701 132.631 171.313 132.478C172.537 132.165 174.324 131.762 176.557 131.41C178.791 131.061 181.473 130.766 184.465 130.684C185.96 130.642 187.531 130.658 189.158 130.725C190.784 130.808 192.465 130.946 194.179 131.157C197.6 131.63 200.823 132.193 203.782 132.553C206.736 132.935 209.411 133.129 211.661 133.179C213.911 133.218 215.733 133.136 216.988 133.033C217.618 132.999 218.103 132.934 218.435 132.914C218.766 132.889 218.941 132.882 218.943 132.896Z"
    fill="white" />
  <path
    d="M234.343 111.493C234.261 111.494 234.287 110.201 233.914 108.171C233.864 107.917 233.811 107.652 233.756 107.377C233.7 107.102 233.611 106.822 233.535 106.529C233.396 105.939 233.17 105.332 232.953 104.687C232.468 103.417 231.832 102.058 231.009 100.721C230.17 99.3931 229.231 98.2253 228.304 97.2312C227.822 96.7524 227.377 96.2833 226.909 95.8992C226.679 95.7033 226.467 95.5003 226.245 95.3288C226.023 95.1589 225.808 94.9955 225.603 94.8392C223.947 93.6147 222.776 93.0726 222.814 92.9989C222.826 92.9737 223.121 93.0998 223.647 93.3508C223.78 93.4152 223.926 93.4858 224.083 93.5623C224.24 93.6453 224.403 93.7477 224.582 93.8521C224.935 94.0678 225.352 94.2921 225.769 94.6075C225.982 94.7596 226.205 94.9183 226.436 95.0836C226.667 95.2512 226.887 95.4511 227.125 95.6451C227.61 96.0245 228.073 96.4924 228.571 96.9728C229.529 97.9699 230.496 99.1541 231.35 100.507C232.188 101.87 232.827 103.26 233.301 104.561C233.513 105.22 233.73 105.842 233.858 106.446C233.928 106.746 234.01 107.032 234.06 107.313C234.107 107.595 234.151 107.865 234.194 108.124C234.295 108.638 234.313 109.113 234.352 109.526C234.367 109.733 234.388 109.925 234.394 110.102C234.393 110.278 234.392 110.44 234.392 110.589C234.387 111.172 234.371 111.493 234.343 111.493Z"
    fill="white" />
  <path
    d="M190.539 77.248C190.55 77.2737 190.294 77.4083 189.818 77.6314C189.58 77.7462 189.287 77.8782 188.935 78.0027C188.584 78.1304 188.19 78.2956 187.735 78.4194C187.285 78.5579 186.791 78.7054 186.248 78.8179C185.71 78.956 185.124 79.0422 184.509 79.1438C183.274 79.3083 181.901 79.3941 180.462 79.3324C179.023 79.2575 177.664 79.0394 176.45 78.7585C175.847 78.6006 175.272 78.4574 174.75 78.27C174.219 78.1075 173.741 77.9127 173.306 77.7334C172.865 77.5678 172.488 77.3656 172.15 77.2061C171.811 77.0494 171.531 76.8903 171.306 76.7541C170.852 76.488 170.609 76.3297 170.623 76.3056C170.659 76.2389 171.669 76.8119 173.41 77.4673C173.846 77.6271 174.323 77.8041 174.85 77.9503C175.369 78.1214 175.937 78.2502 176.533 78.3957C177.732 78.6522 179.067 78.8551 180.481 78.9289C181.895 78.9894 183.243 78.9161 184.46 78.7748C185.067 78.6848 185.645 78.6126 186.178 78.4904C186.716 78.3938 187.207 78.2642 187.656 78.1451C189.45 77.6562 190.509 77.1782 190.539 77.248Z"
    fill="white" />
  <path
    d="M172.868 59.7171C172.845 59.7043 172.954 59.4622 173.187 59.04C173.433 58.6276 173.816 58.0413 174.379 57.3883C175.495 56.0676 177.371 54.5675 179.582 53.1886C180.133 52.8386 180.674 52.5061 181.199 52.1868C181.727 51.8682 182.254 51.5722 182.794 51.3596C183.333 51.1454 183.888 51.0201 184.413 51.0239C184.938 51.0193 185.415 51.1318 185.828 51.2703C186.655 51.5586 187.243 51.9435 187.644 52.2011C188.043 52.4665 188.251 52.631 188.237 52.6539C188.222 52.6784 187.985 52.5589 187.565 52.3365C187.143 52.122 186.54 51.7817 185.743 51.5427C185.345 51.4278 184.898 51.3402 184.419 51.3588C183.941 51.3689 183.437 51.4938 182.934 51.7045C182.429 51.9136 181.924 52.205 181.405 52.5247C180.886 52.8495 180.349 53.1855 179.799 53.5296C177.6 54.902 175.739 56.3345 174.592 57.5796C173.434 58.8161 172.93 59.7547 172.868 59.7171Z"
    fill="#263238" />
  <path
    d="M68.8433 68.6216L63.4946 77.9255L62.3013 84.5494L52.0952 100.952L50.7148 103.17L61.279 110.579C61.279 110.579 67.9265 95.4491 68.6624 94.0069C69.3982 92.5647 72.4088 91.6421 72.4088 91.6421L77.1837 83.2015L68.8433 68.6216Z"
    fill="#FFBE9D" />
  <path
    d="M69.8127 89.924C69.7547 89.9158 69.8235 89.186 69.9379 88.0146C70.0431 86.8456 70.2001 85.2214 69.9944 83.4587C69.7871 81.6984 69.1503 80.1887 68.4864 79.2454C67.8294 78.2894 67.2266 77.8591 67.273 77.8025C67.2873 77.7827 67.4524 77.8677 67.7192 78.069C67.9872 78.2689 68.3441 78.6029 68.7161 79.0763C69.4685 80.0141 70.18 81.5828 70.3942 83.4099C70.6065 85.2342 70.3984 86.884 70.2206 88.0499C70.0327 89.2201 69.8649 89.9314 69.8127 89.924Z"
    fill="#006060" />
  <path
    d="M81.3145 105.16L125.93 112.92C125.93 112.92 88.2687 116.889 88.2532 116.37C88.2381 115.851 81.3145 105.16 81.3145 105.16Z"
    fill="#FFBE9D" />
  <path
    d="M119.431 86.1709C119.324 83.4557 117.709 81.0765 116.507 78.641C114.756 75.0892 113.825 71.1976 112.848 67.3572C111.871 63.5171 110.815 59.6426 108.848 56.2061C106.88 52.7695 103.877 49.7672 100.099 48.6102C96.3212 47.4532 91.757 48.4922 89.4219 51.6886L93.7634 61.0002C96.4248 75.1249 100.708 88.9412 106.5 102.089C110.789 101.549 115.015 100.501 119.061 98.9737C119.891 98.6606 120.827 98.1966 120.997 97.3236C121.205 96.2616 120.17 95.427 119.579 94.5222C118.802 93.3334 118.763 91.8082 118.941 90.3982C119.119 88.9889 119.487 87.591 119.431 86.1709Z"
    fill="#263238" />
  <path
    d="M95.7484 52.5643C94.2052 51.6964 92.4463 51.2179 90.6776 51.1846C89.9565 51.171 89.1987 51.2416 88.5951 51.6378C87.9915 52.0339 87.6048 52.8406 87.8871 53.5064L93.5463 58.0925C94.552 58.6132 95.8114 58.1263 96.6505 57.3642C97.3001 56.7741 97.8236 55.9523 97.7664 55.0751C97.6933 53.9557 96.7243 53.1129 95.7484 52.5643Z"
    fill="#455A64" />
  <path
    d="M70.0878 77.7242C68.4584 69.2165 73.6355 60.5509 82.1518 58.3781C91.1871 56.0726 100.17 61.5996 102.105 70.4701L108.998 106.409C109.132 107.104 110.479 110.115 110.16 110.747C108.448 114.134 103.47 114.78 100.104 115.709C96.8436 116.61 93.3617 116.188 90.3333 114.984C89.3071 114.576 88.5879 113.634 88.4244 112.539L87.2152 104.45C87.2106 104.419 87.1839 104.398 87.1534 104.404C86.6584 104.507 85.3852 104.695 84.8802 104.64C82.6738 104.399 76.9516 103.016 74.0744 95.2338C73.1201 92.6528 71.5158 85.1823 70.0878 77.7242Z"
    fill="#FFBE9D" />
  <path
    d="M83.6259 88.0019C83.6166 87.9216 82.7099 87.9507 81.2529 88.0605C80.8852 88.0969 80.5302 88.0958 80.422 87.8653C80.2862 87.6255 80.3616 87.2111 80.4552 86.7618C80.6246 85.8318 80.8017 84.8575 80.988 83.8359C81.7092 79.6773 82.1565 76.2878 81.9876 76.2625C81.8182 76.2369 81.0963 79.5873 80.3752 83.7459C80.2062 84.769 80.0438 85.7453 79.8903 86.6788C79.8334 87.1106 79.6892 87.6174 79.9781 88.1132C80.1273 88.3592 80.4301 88.4985 80.6733 88.5129C80.918 88.5354 81.1214 88.4981 81.3016 88.4721C82.747 88.2568 83.6355 88.0822 83.6259 88.0019Z"
    fill="#263238" />
  <path
    d="M78.2581 82.1741C78.0849 81.9719 77.1035 82.9435 75.6648 83.0238C74.2287 83.1293 73.1418 82.292 72.9933 82.5155C72.9198 82.6149 73.1019 82.9873 73.5756 83.3672C74.0419 83.7455 74.8272 84.0943 75.7235 84.0361C76.6194 83.9775 77.3595 83.5317 77.7783 83.0952C78.2063 82.6568 78.3428 82.2641 78.2581 82.1741Z"
    fill="#263238" />
  <path
    d="M91.8016 78.6678C91.5502 78.5549 90.9532 79.8675 89.5554 80.5519C88.1692 81.2589 86.761 80.9492 86.7007 81.2181C86.6666 81.3403 86.9918 81.6073 87.6128 81.7551C88.2245 81.906 89.1413 81.8932 90.0098 81.4598C90.8774 81.0249 91.4385 80.3001 91.6848 79.72C91.9373 79.1349 91.9207 78.7151 91.8016 78.6678Z"
    fill="#263238" />
  <path
    d="M87.3252 104.393C87.3252 104.393 92.8619 103.726 98.8823 98.2932C98.8823 98.2932 98.131 105.842 87.7092 106.981L87.3252 104.393Z"
    fill="#006060" />
  <path
    d="M91.4269 75.0516C91.3074 74.6585 89.8609 74.7656 88.1851 74.4758C86.5031 74.2193 85.1706 73.661 84.927 73.9947C84.8176 74.1549 85.0341 74.5301 85.5623 74.9325C86.0859 75.3336 86.9362 75.7341 87.9426 75.8986C88.9491 76.0612 89.886 75.9517 90.5144 75.7376C91.1481 75.5242 91.4772 75.2378 91.4269 75.0516Z"
    fill="#263238" />
  <path
    d="M76.4048 75.8676C75.9856 75.7337 75.1195 76.6063 73.8903 77.3179C72.6819 78.0652 71.5018 78.4171 71.4233 78.8478C71.3974 79.0508 71.7184 79.2405 72.3235 79.249C72.9217 79.2607 73.7963 79.0527 74.6342 78.5518C75.4713 78.0501 76.0664 77.3789 76.3367 76.8473C76.6136 76.3111 76.5965 75.9398 76.4048 75.8676Z"
    fill="#263238" />
  <path
    d="M80.7641 56.733C81.3434 55.3622 82.6542 54.5978 84.1726 54.1582C90.3689 52.3641 97.9283 55.2543 102.17 60.1295C106.411 65.0044 107.644 72.9491 105.817 79.1555L103.501 79.8846C98.5226 80.2392 88.4054 67.5244 80.4811 60.8093C79.4966 59.9747 80.2611 57.9238 80.7641 56.733Z"
    fill="#263238" />
  <path
    d="M69.2048 62.4902C71.4544 59.1231 75.2696 54.8741 81.0348 56.2488C82.0456 57.6855 80.6779 59.9018 79.4715 61.2509C77.7041 63.2266 76.1153 64.6133 74.9688 66.0116C72.6511 68.839 69.9151 73.372 70.2511 77.9539C70.2723 78.2414 70.0605 78.3112 69.7689 78.305C69.3915 78.2969 68.2973 76.552 67.5382 74.1395C65.9196 68.9954 66.9551 65.8572 69.2048 62.4902Z"
    fill="#263238" />
  <path
    d="M101.551 77.1992C101.687 77.0995 107.224 74.0114 108.403 80.127C109.581 86.2427 103.219 86.1682 103.174 85.9948C103.13 85.8213 101.551 77.1992 101.551 77.1992Z"
    fill="#FFBE9D" />
  <path
    d="M104.59 83.3168C104.613 83.292 104.711 83.3707 104.906 83.4185C105.096 83.4646 105.408 83.4619 105.702 83.2807C106.301 82.9187 106.645 81.7877 106.463 80.68C106.371 80.1205 106.152 79.613 105.871 79.2121C105.599 78.8005 105.25 78.5444 104.915 78.5494C104.578 78.537 104.386 78.7764 104.345 78.9631C104.296 79.1497 104.358 79.2645 104.328 79.2812C104.314 79.2998 104.177 79.204 104.178 78.9417C104.179 78.8156 104.223 78.6573 104.344 78.5122C104.467 78.3644 104.67 78.2619 104.901 78.2425C105.377 78.184 105.884 78.5359 106.193 78.9755C106.528 79.4124 106.786 79.98 106.889 80.6086C107.087 81.8486 106.681 83.1236 105.849 83.55C105.442 83.7455 105.059 83.685 104.847 83.5768C104.629 83.4619 104.571 83.3319 104.59 83.3168Z"
    fill="#006060" />
  <path
    d="M68.1279 63.9133C68.1303 63.9611 68.8282 63.9809 69.9507 63.8796C71.0724 63.7795 72.6168 63.5354 74.2771 63.0768C75.9374 62.6151 77.3878 62.0288 78.4017 61.5372C79.4167 61.046 80.0056 60.6697 79.9831 60.6274C79.9561 60.5754 79.3254 60.8648 78.2919 61.2877C77.2591 61.7118 75.8137 62.2492 74.175 62.7051C72.5363 63.1579 71.021 63.4408 69.9178 63.6091C68.8139 63.7783 68.1245 63.8551 68.1279 63.9133Z"
    fill="#455A64" />
  <path
    d="M66.7227 68.6387C66.7192 68.6838 67.2447 68.7804 68.105 68.7544C68.963 68.7303 70.1547 68.546 71.3878 68.0765C72.6197 67.6028 73.6312 66.9436 74.287 66.3883C74.9463 65.8327 75.2738 65.4094 75.2413 65.378C75.1624 65.281 73.6591 66.8128 71.2505 67.7161C68.8559 68.6515 66.7173 68.5138 66.7227 68.6387Z"
    fill="#455A64" />
  <path
    d="M103.263 62.1118C103.241 62.0354 101.958 62.4715 99.8081 62.7354C98.7367 62.8917 97.4448 62.9228 96.0165 62.915C94.587 62.8618 93.0194 62.7152 91.3927 62.4304C89.7672 62.1332 88.2457 61.7219 86.8803 61.2897C85.5258 60.8264 84.3167 60.3693 83.3385 59.901C81.3672 58.995 80.2331 58.2602 80.1949 58.3219C80.1806 58.3444 80.4551 58.5403 80.9659 58.8771C81.218 59.0513 81.5378 59.2457 81.9186 59.454C82.2964 59.669 82.726 59.9158 83.2217 60.1478C84.1942 60.6518 85.4052 61.1403 86.7686 61.6272C88.1424 62.0827 89.6798 62.5095 91.3251 62.8102C92.9719 63.0985 94.5615 63.2367 96.0095 63.2704C97.4576 63.2592 98.7645 63.1986 99.8449 63.0054C100.389 62.9383 100.872 62.8265 101.296 62.7276C101.721 62.6391 102.083 62.5421 102.372 62.4397C102.955 62.2523 103.272 62.1371 103.263 62.1118Z"
    fill="#455A64" />
  <path
    d="M80.9261 60.4163C80.906 60.4337 81.1264 60.7108 81.5436 61.1981C81.7501 61.4441 82.0076 61.7405 82.3343 62.0583C82.6591 62.3776 83.009 62.7641 83.4483 63.1342C84.2943 63.9106 85.3693 64.7634 86.6379 65.6007C87.9155 66.4221 89.3852 67.2307 91.0084 67.8993C92.6378 68.5538 94.2537 69.0027 95.7431 69.2995C97.2376 69.575 98.6025 69.7046 99.7498 69.7178C100.323 69.7516 100.842 69.7062 101.296 69.6949C101.751 69.6868 102.141 69.6441 102.459 69.6026C103.095 69.5273 103.444 69.4734 103.441 69.447C103.434 69.3674 102.027 69.5483 99.7591 69.445C98.6253 69.3973 97.2813 69.241 95.8116 68.9507C94.3465 68.6388 92.7585 68.186 91.153 67.5415C89.5534 66.8827 88.1011 66.0954 86.8293 65.3012C85.5672 64.4911 84.488 63.6712 83.6273 62.9286C81.9028 61.4456 80.9829 60.3643 80.9261 60.4163Z"
    fill="#455A64" />
  <path
    d="M98.6767 75.4648C98.6713 75.3725 97.2097 75.736 94.8859 75.3717C92.5802 75.0357 89.4605 73.7763 86.8254 71.3381C84.191 68.8937 82.5512 66.0054 81.5242 63.8943C81.0092 62.8316 80.6329 61.9504 80.3777 61.3397C80.1221 60.729 79.9783 60.3906 79.9516 60.4003C79.9284 60.4085 80.0247 60.7639 80.2381 61.3932C80.4512 62.023 80.7903 62.9243 81.2783 64.0103C82.25 66.1664 83.8744 69.1241 86.5652 71.6221C89.2614 74.1177 92.4816 75.369 94.8468 75.6418C96.0327 75.7908 97.0056 75.7585 97.6648 75.6689C97.9966 75.641 98.2479 75.5708 98.4196 75.5405C98.5909 75.5036 98.6791 75.478 98.6767 75.4648Z"
    fill="#263238" />
  <path
    d="M69.5757 87.494C69.5676 87.4529 69.8936 87.5933 70.2818 87.2732C70.467 87.1204 70.6414 86.8577 70.7164 86.5224C70.8007 86.1864 70.7156 85.7903 70.4751 85.4225C70.2373 85.0558 69.8661 84.7318 69.4373 84.4238C69.01 84.1149 68.5101 83.8088 68.0786 83.3529C67.8659 83.124 67.6718 82.8524 67.5562 82.5326C67.4382 82.2141 67.4089 81.8583 67.456 81.5153C67.5504 80.8239 67.8964 80.1934 68.2754 79.6091C68.6516 79.024 69.0309 78.4645 69.1999 77.8584C69.3708 77.2555 69.2915 76.6327 69.1032 76.079C68.7227 74.9632 68.0561 74.0684 67.7715 73.1768C67.4614 72.3019 67.4564 71.5049 67.6335 71.0098C67.7139 70.7599 67.8253 70.5873 67.9065 70.4786C67.9943 70.3735 68.043 70.3227 68.0507 70.3289C68.0805 70.3479 67.8659 70.5566 67.7406 71.0416C67.6053 71.52 67.6393 72.2697 67.9622 73.1077C68.2557 73.9551 68.9354 74.8262 69.3534 75.9941C69.5587 76.5722 69.6573 77.2628 69.4706 77.9337C69.2869 78.6018 68.8882 79.1846 68.5167 79.7646C68.1428 80.3393 67.8218 80.9349 67.7344 81.5533C67.6335 82.1726 67.8721 82.7561 68.2723 83.1736C68.6659 83.6012 69.1458 83.9089 69.5781 84.2329C70.01 84.5557 70.3974 84.9064 70.6468 85.3154C70.8989 85.7166 70.984 86.1907 70.8722 86.5609C70.7729 86.9298 70.5671 87.2061 70.3506 87.3621C70.1341 87.5231 69.9148 87.5596 69.7784 87.5464C69.6395 87.5351 69.5734 87.499 69.5757 87.494Z"
    fill="#263238" />
  <path
    d="M106.535 76.5101C106.526 76.509 106.526 76.3957 106.535 76.1811C106.54 75.9661 106.573 75.6511 106.581 75.2437C106.616 74.4304 106.627 73.2501 106.513 71.8013C106.399 70.3537 106.139 68.6345 105.584 66.7977C105.04 64.9617 104.179 63.0132 102.931 61.1915C102.301 60.2871 101.59 59.4761 100.833 58.7649C100.075 58.0545 99.2602 57.464 98.4595 56.9456C96.8409 55.9271 95.2381 55.259 93.8628 54.8093C92.4862 54.3576 91.3398 54.0923 90.5444 53.932C90.1481 53.8432 89.836 53.797 89.6268 53.7504C89.4169 53.7077 89.3074 53.6806 89.3086 53.6705C89.3098 53.6608 89.4223 53.6686 89.6353 53.693C89.8476 53.7213 90.1635 53.7497 90.5645 53.8222C91.3691 53.9495 92.5284 54.1854 93.9242 54.6161C95.3186 55.0448 96.948 55.7001 98.599 56.7213C99.4161 57.2413 100.248 57.8372 101.023 58.5581C101.796 59.2794 102.524 60.1066 103.166 61.0281C104.434 62.8785 105.3 64.86 105.837 66.722C106.384 68.5856 106.626 70.3254 106.715 71.7866C106.804 73.249 106.761 74.4359 106.691 75.2507C106.666 75.6588 106.616 75.9731 106.592 76.1869C106.565 76.3995 106.545 76.5109 106.535 76.5101Z"
    fill="#455A64" />
  <path
    d="M105.78 96.7913C105.774 96.799 105.7 96.7451 105.565 96.6345C105.428 96.5259 105.239 96.3486 105.021 96.0971C104.585 95.6009 104.031 94.7721 103.733 93.605C103.586 93.0242 103.508 92.3626 103.555 91.6553C103.596 90.9422 103.841 90.2166 104.03 89.4747C104.215 88.7461 104.303 87.8777 103.759 87.2694C103.238 86.6489 102.363 86.3676 101.684 85.6898C101.341 85.3515 101.163 84.8102 101.281 84.338C101.39 83.8689 101.644 83.4999 101.812 83.1271C102.189 82.3949 102.001 81.5592 101.618 80.9174C101.237 80.2597 100.689 79.7689 100.163 79.3235C99.6366 78.8773 99.1332 78.4559 98.7485 77.9919C97.938 77.0677 97.8433 75.9611 98.0467 75.3248C98.1464 74.9989 98.3065 74.7781 98.4337 74.6566C98.5598 74.5325 98.6414 74.4867 98.6452 74.4921C98.6804 74.5166 98.32 74.7222 98.1542 75.3546C97.9956 75.965 98.1143 77.0005 98.9024 77.8596C99.2813 78.2972 99.7793 78.7 100.316 79.1408C100.848 79.5784 101.433 80.0851 101.845 80.7832C102.048 81.1304 102.215 81.5211 102.273 81.9514C102.337 82.3778 102.261 82.8469 102.068 83.2446C101.887 83.6419 101.648 84.0055 101.56 84.3985C101.47 84.7885 101.6 85.1955 101.893 85.4927C102.485 86.1003 103.382 86.3936 103.973 87.087C104.274 87.4284 104.431 87.8859 104.443 88.3142C104.466 88.7472 104.379 89.1543 104.286 89.538C104.084 90.3039 103.841 90.9938 103.792 91.6739C103.737 92.3521 103.8 92.9912 103.93 93.5569C104.194 94.693 104.705 95.5167 105.107 96.0254C105.513 96.5379 105.799 96.7695 105.78 96.7913Z"
    fill="#263238" />
  <path
    d="M124.544 90.5219C124.598 90.5898 124.527 90.8083 124.179 91.0283C123.837 91.2432 123.177 91.3849 122.432 91.1284C122.062 91.0042 121.67 90.7943 121.312 90.4525C121.13 90.2849 120.963 90.0777 120.813 89.8367C120.679 89.6074 120.557 89.3634 120.469 89.0972C120.093 88.0244 120.17 86.7847 120.4 85.5971C120.624 84.4296 120.944 83.2625 120.794 82.2901C120.658 81.3116 120.02 80.34 119.055 79.3278C118.112 78.3131 116.827 77.2679 115.724 75.802C114.639 74.3761 113.764 72.7508 113.084 71.0614C111.712 67.6753 111.013 64.4084 110.077 61.6481C109.169 58.917 107.951 56.6115 106.64 54.9365C105.341 53.2375 103.921 52.2454 102.871 51.6591C102.335 51.3902 101.905 51.1655 101.601 51.0305C101.301 50.8777 101.141 50.7484 101.154 50.6499C101.167 50.5517 101.353 50.4889 101.711 50.4621C102.072 50.4183 102.591 50.4757 103.262 50.6119C104.575 50.9219 106.458 51.8224 108.154 53.5878C109.868 55.3268 111.418 57.8011 112.558 60.7464C113.693 63.6564 114.477 66.8939 115.732 69.968C116.351 71.5072 117.094 72.9021 117.967 74.1103C118.805 75.303 119.957 76.3208 121.016 77.5554C121.542 78.1711 122.046 78.8408 122.441 79.6001C122.836 80.3548 123.105 81.2127 123.158 82.06C123.211 82.9171 123.067 83.6792 122.898 84.3349C122.727 84.9933 122.526 85.5645 122.366 86.0848C122.044 87.1009 121.898 87.9836 122.014 88.6739C122.037 88.8477 122.087 89.0087 122.136 89.1581C122.185 89.2881 122.246 89.4196 122.328 89.5364C122.484 89.7766 122.693 89.9702 122.899 90.1122C123.761 90.7109 124.427 90.3466 124.544 90.5219Z"
    fill="#263238" />
  <path
    d="M90.1349 91.1443C90.1067 91.2002 89.8032 91.069 89.2986 90.9926C88.7994 90.9131 88.0779 90.9177 87.3734 91.2118C86.6692 91.5079 86.1592 92.0196 85.8646 92.4317C85.5641 92.8457 85.4439 93.1545 85.3843 93.1351C85.3379 93.1243 85.3611 92.7731 85.6237 92.2796C85.8785 91.7919 86.4167 91.1757 87.2183 90.8386C88.0206 90.5033 88.8357 90.5522 89.3604 90.7132C89.8944 90.8735 90.1597 91.1036 90.1349 91.1443Z"
    fill="#263238" />
  <path
    d="M92.4218 80.6148C92.4674 80.6373 92.4237 80.8561 92.237 81.1576C92.0525 81.4579 91.7065 81.8257 91.2309 82.0911C90.7545 82.3549 90.2599 82.4547 89.9085 82.4523C89.5543 82.4515 89.3466 82.3724 89.3517 82.3216C89.3586 82.2036 90.1884 82.2219 91.0356 81.7376C91.894 81.274 92.3185 80.5585 92.4218 80.6148Z"
    fill="#006060" />
  <path
    d="M76.9806 84.6492C77.0174 84.6841 76.9168 84.8742 76.6551 85.093C76.3964 85.3115 75.9626 85.5353 75.444 85.6114C74.9251 85.6855 74.446 85.5935 74.1363 85.4574C73.8235 85.3216 73.6739 85.1675 73.699 85.1237C73.7528 85.0201 74.4716 85.3565 75.3864 85.2114C76.3048 85.0911 76.8998 84.565 76.9806 84.6492Z"
    fill="#006060" />
  <path
    d="M73.2667 92.9054C73.2095 92.9135 73.0509 92.1228 72.8027 90.8463C72.5548 89.5694 72.2076 87.8082 71.7788 85.8729C71.3484 83.9372 70.9177 82.1943 70.6025 80.9325C70.2874 79.6707 70.0968 78.8873 70.1521 78.8707C70.2031 78.8551 70.4904 79.6094 70.8767 80.8557C71.2634 82.1012 71.7397 83.8409 72.172 85.7852C72.6028 87.7291 72.9071 89.5069 73.0838 90.7997C73.2605 92.0921 73.3197 92.898 73.2667 92.9054Z"
    fill="#006060" />
  <path
    d="M96.0274 80.9787C95.8654 80.7804 95.6314 80.6547 95.3936 80.5604C94.7146 80.2923 93.9494 80.2481 93.2441 80.4363L93.4827 80.5794C93.7704 80.8619 94.0581 81.1444 94.3458 81.4268C94.6071 81.6833 94.8832 81.9487 95.2339 82.0523C95.5846 82.1559 96.0301 82.036 96.1697 81.6973C96.2675 81.4602 96.1894 81.1769 96.0274 80.9787Z"
    fill="#455A64" />
  <path
    d="M95.6414 83.9605C95.6437 83.7432 95.5602 83.5337 95.4569 83.3428C95.1619 82.7976 94.6898 82.3514 94.1299 82.0884L94.2068 82.3115C94.2401 82.6518 94.2737 82.9924 94.307 83.3327C94.3375 83.6419 94.3723 83.9647 94.5436 84.2235C94.7149 84.4823 95.0687 84.648 95.3432 84.5045C95.5358 84.404 95.639 84.1778 95.6414 83.9605Z"
    fill="#455A64" />
  <path
    d="M88.5632 112.868C88.453 112.884 88.1266 111.207 87.8343 109.123C87.542 107.039 87.3943 105.338 87.5041 105.322C87.6143 105.307 87.9406 106.983 88.2329 109.067C88.5253 111.151 88.673 112.852 88.5632 112.868Z"
    fill="#006060" />
  <path
    d="M123.701 184.703L122.001 156.568L129.903 125.933L125.93 112.92C125.93 112.92 95.0331 115.747 93.4922 115.906C88.5638 116.416 81.3149 105.16 81.3149 105.16H77.299C77.299 105.16 73.3508 104.623 69.4949 108.062C65.6391 111.501 58.9374 117.274 58.9374 117.274L63.9733 107.405L49.06 100.508C49.06 100.508 40.1175 116.417 37.6603 122.013C36.0382 125.707 33.5001 132.218 39.297 138.453C42.8443 142.268 53.3095 143.6 56.6912 142.485C58.9958 141.725 66.3699 137.663 70.8343 135.152C70.8691 135.744 70.9237 136.321 71.0006 136.876C72.5995 148.427 74.8077 155.357 74.8077 155.357L70.7868 184.703H123.701Z"
    fill="#455A64" />
  <path
    d="M52.0194 131.825C51.9193 131.776 54.4933 126.278 57.7676 119.547C61.0431 112.813 63.7783 107.395 63.8781 107.444C63.9779 107.493 61.4046 112.99 58.1295 119.724C54.8552 126.455 52.1192 131.874 52.0194 131.825Z"
    fill="#263238" />
  <path
    d="M75.4967 156.055C75.4701 156.063 75.2999 155.606 75.0142 154.772C74.7249 153.939 74.3398 152.722 73.8928 151.21C72.9969 148.186 71.9061 143.961 70.9952 139.233C70.0888 134.501 69.5363 130.172 69.2478 127.031C69.1024 125.46 69.0092 124.187 68.969 123.306C68.9253 122.425 68.9141 121.937 68.942 121.935C68.9698 121.933 69.0336 122.417 69.1252 123.294C69.2134 124.17 69.3495 125.437 69.5309 127.001C69.8912 130.129 70.4863 134.438 71.3903 139.156C72.2986 143.872 73.3426 148.094 74.1666 151.132C74.5776 152.652 74.9206 153.879 75.1634 154.725C75.4032 155.573 75.523 156.046 75.4967 156.055Z"
    fill="#263238" />
  <path
    d="M125.93 112.92C125.93 112.92 133.401 118.226 135.223 125.217C137.046 132.207 146.509 184.703 146.509 184.703H129.903L118.042 141.621L125.93 112.92Z"
    fill="#455A64" />
  <path
    d="M124.736 143.563C124.739 143.577 124.551 143.627 124.189 143.711C123.827 143.787 123.295 143.925 122.6 144.042C121.215 144.308 119.19 144.601 116.673 144.783C114.156 144.968 111.145 145 107.814 144.787C104.484 144.577 100.839 144.102 97.0592 143.376C89.496 141.897 82.8427 139.772 78.06 138.2C75.6685 137.407 73.7425 136.74 72.4143 136.269C71.7604 136.033 71.2485 135.848 70.8885 135.718C70.5413 135.587 70.3607 135.512 70.3653 135.499C70.3696 135.486 70.5587 135.535 70.9144 135.641C71.2798 135.754 71.7999 135.914 72.4642 136.12C73.8175 136.55 75.7562 137.167 78.1478 137.928C82.9498 139.429 89.6024 141.505 97.1358 142.979C100.901 143.702 104.527 144.185 107.84 144.415C111.152 144.647 114.148 144.646 116.656 144.497C119.164 144.352 121.185 144.104 122.574 143.887C123.271 143.794 123.807 143.681 124.174 143.631C124.54 143.573 124.734 143.55 124.736 143.563Z"
    fill="white" />
  <path
    d="M139.035 145.959C139.036 146.03 137.937 146.059 136.189 146.307C135.752 146.37 135.274 146.441 134.766 146.547C134.254 146.634 133.717 146.77 133.149 146.901C132.02 147.192 130.794 147.568 129.54 148.055C128.289 148.552 127.134 149.112 126.109 149.668C125.603 149.958 125.117 150.225 124.682 150.51C124.237 150.778 123.839 151.052 123.475 151.303C122.024 152.314 121.197 153.041 121.151 152.988C121.132 152.967 121.323 152.768 121.685 152.425C121.865 152.251 122.09 152.045 122.366 151.822C122.64 151.598 122.945 151.331 123.308 151.072C123.665 150.803 124.059 150.513 124.502 150.228C124.934 149.928 125.42 149.647 125.928 149.343C126.957 148.762 128.124 148.183 129.393 147.679C130.665 147.185 131.913 146.814 133.062 146.54C133.64 146.416 134.187 146.292 134.707 146.218C135.224 146.125 135.71 146.07 136.154 146.024C136.596 145.967 137.001 145.955 137.354 145.933C137.707 145.908 138.012 145.906 138.261 145.911C138.759 145.916 139.034 145.931 139.035 145.959Z"
    fill="white" />
  <path
    d="M65.3569 137.371C65.2881 137.379 65.1609 136.378 64.7754 134.804C64.5867 134.017 64.3102 133.093 63.9545 132.085C63.5852 131.082 63.1289 129.999 62.5683 128.901C61.9983 127.808 61.3797 126.808 60.7765 125.927C60.1617 125.054 59.5693 124.294 59.0368 123.685C57.9785 122.461 57.2369 121.779 57.2833 121.728C57.3019 121.707 57.5029 121.859 57.8529 122.153C58.0296 122.298 58.2403 122.482 58.4708 122.711C58.7028 122.938 58.9761 123.188 59.2484 123.494C59.814 124.085 60.4381 124.837 61.0788 125.712C61.7079 126.594 62.3467 127.604 62.9259 128.716C63.4959 129.831 63.9494 130.937 64.3044 131.962C64.6466 132.992 64.8979 133.937 65.053 134.742C65.1442 135.142 65.1906 135.51 65.2413 135.831C65.2943 136.152 65.3225 136.43 65.3387 136.659C65.377 137.115 65.3844 137.368 65.3569 137.371Z"
    fill="white" />
  <path
    d="M172.132 89.3828C172.567 86.7005 171.457 84.0462 170.764 81.4191C169.753 77.588 169.615 73.5881 169.421 69.6297C169.227 65.6713 168.963 61.6633 167.718 57.902C166.473 54.1407 164.126 50.5975 160.655 48.7076C157.183 46.8176 152.504 46.9224 149.58 49.5872L151.983 59.5809C151.784 73.9543 153.234 88.3503 156.296 102.393C160.607 102.723 164.956 102.542 169.225 101.855C170.1 101.714 171.109 101.447 171.45 100.625C171.864 99.6264 171.016 98.6013 170.617 97.5964C170.092 96.2764 170.357 94.7736 170.811 93.4277C171.266 92.0813 171.904 90.7854 172.132 89.3828Z"
    fill="#263238" />
  <path
    d="M155.607 51.7115C154.267 50.5521 152.639 49.7311 150.912 49.3443C150.208 49.1864 149.451 49.1041 148.781 49.3715C148.111 49.6388 147.571 50.3519 147.716 51.0612L152.35 56.688C153.232 57.3996 154.563 57.1745 155.536 56.5956C156.29 56.1475 156.967 55.4472 157.085 54.5757C157.236 53.4641 156.454 52.4444 155.607 51.7115Z"
    fill="#0E7979" />
  <path
    d="M125.576 71.2535C125.671 62.5906 132.466 55.1356 141.243 54.7107C150.555 54.2599 158.258 61.4736 158.391 70.5535L158.003 107.15C157.995 107.858 157.747 108.54 157.308 109.095C154.956 112.071 150.921 114.246 147.439 114.483C144.065 114.713 140.736 113.603 138.008 111.817C137.083 111.212 136.566 110.145 136.623 109.038L137.047 100.87C137.048 100.838 137.027 100.812 136.995 100.812C136.49 100.814 135.205 100.743 134.721 100.588C132.607 99.9108 127.275 97.4097 126.002 89.2086C125.58 86.4891 125.493 78.8474 125.576 71.2535Z"
    fill="#FFBE9D" />
  <path
    d="M136.683 84.0105C136.69 83.9298 135.796 83.7769 134.346 83.593C133.979 83.555 133.631 83.4828 133.571 83.2353C133.486 82.9734 133.642 82.5823 133.823 82.1605C134.173 81.2833 134.541 80.3637 134.926 79.3999C136.46 75.4695 137.572 72.2374 137.411 72.1788C137.25 72.1203 135.877 75.2584 134.344 79.1892C133.975 80.1581 133.621 81.0819 133.285 81.9661C133.144 82.3782 132.902 82.8454 133.086 83.3893C133.184 83.6605 133.453 83.8573 133.688 83.9201C133.923 83.9911 134.13 83.9954 134.312 84.0063C135.771 84.0842 136.677 84.0912 136.683 84.0105Z"
    fill="#263238" />
  <path
    d="M129.903 77.5193C129.874 78.2162 130.449 78.8121 131.186 78.8521C131.922 78.8913 132.544 78.3601 132.573 77.6629C132.601 76.966 132.027 76.3689 131.291 76.3297C130.554 76.2901 129.933 76.8229 129.903 77.5193Z"
    fill="#263238" />
  <path
    d="M128.155 72.9502C128.3 73.1737 129.4 72.341 130.837 72.452C132.274 72.5378 133.242 73.512 133.418 73.3103C133.504 73.2214 133.373 72.8284 132.953 72.3888C132.541 71.9519 131.808 71.5022 130.912 71.4405C130.017 71.38 129.224 71.7234 128.752 72.1005C128.269 72.4788 128.083 72.8497 128.155 72.9502Z"
    fill="#263238" />
  <path
    d="M143.575 78.0516C143.546 78.7484 144.121 79.344 144.858 79.384C145.594 79.4235 146.215 78.892 146.244 78.1951C146.273 77.4983 145.699 76.9015 144.963 76.862C144.226 76.822 143.605 77.3547 143.575 78.0516Z"
    fill="#263238" />
  <path
    d="M141.744 73.1116C141.933 73.313 142.987 72.3317 144.54 72.239C146.09 72.121 147.271 72.9506 147.43 72.7251C147.508 72.6254 147.311 72.2537 146.794 71.8774C146.287 71.5022 145.436 71.1599 144.468 71.2251C143.501 71.2919 142.705 71.7443 142.256 72.1846C141.798 72.6281 141.652 73.022 141.744 73.1116Z"
    fill="#263238" />
  <path
    d="M137.05 100.813C137.05 100.813 142.608 101.267 149.588 97.1486C149.588 97.1486 147.351 104.396 136.912 103.425L137.05 100.813Z"
    fill="#006060" />
  <path
    d="M137.271 87.4338C137.793 86.7587 138.703 86.3886 139.603 86.4848C140.228 86.5515 140.858 86.8491 141.234 87.3512C141.611 87.8533 141.687 88.566 141.339 89.0444C140.947 89.583 140.134 89.7071 139.448 89.5139C138.761 89.3211 138.173 88.8741 137.614 88.4291C137.459 88.3061 137.301 88.1776 137.205 88.0089C137.109 87.8401 137.089 87.6197 137.21 87.48"
    fill="#006060" />
  <path
    d="M139.974 67.6648C140.107 68.0536 141.549 67.8969 143.234 68.1289C144.924 68.3272 146.275 68.8397 146.507 68.4975C146.611 68.3334 146.381 67.9663 145.84 67.5822C145.303 67.1992 144.439 66.8287 143.428 66.6987C142.416 66.5707 141.484 66.7127 140.863 66.9482C140.236 67.1829 139.917 67.4805 139.974 67.6648Z"
    fill="#263238" />
  <path
    d="M127.945 69.7003C128.254 70.0142 129.425 69.6452 130.843 69.5886C132.259 69.49 133.467 69.729 133.735 69.3837C133.852 69.2161 133.656 68.8987 133.124 68.6089C132.6 68.3198 131.729 68.0963 130.755 68.1487C129.781 68.2026 128.943 68.5196 128.458 68.8642C127.965 69.2099 127.808 69.5471 127.945 69.7003Z"
    fill="#263238" />
  <path
    d="M140.094 52.7971C140.934 51.5699 142.371 51.0833 143.946 50.9564C150.374 50.4388 157.207 54.7837 160.394 60.4097C163.581 66.0357 163.21 74.0673 160.187 79.7837L157.772 80.0343C152.823 79.3852 145.437 64.9012 139.006 56.7345C138.208 55.7203 139.365 53.8633 140.094 52.7971Z"
    fill="#263238" />
  <path
    d="M127.622 56.125C130.496 53.2759 135.079 49.8759 140.455 52.3769C141.16 53.9871 139.38 55.8852 137.929 56.9654C135.804 58.5477 133.972 59.5883 132.571 60.7294C129.737 63.0361 126.155 66.9304 125.574 71.4875C125.537 71.7734 125.316 71.7994 125.032 71.735C124.664 71.6512 123.938 69.7229 123.674 67.2067C123.11 61.8418 124.748 58.9741 127.622 56.125Z"
    fill="#263238" />
  <path
    d="M156.395 77.0126C156.548 76.942 162.588 75.0245 162.527 81.2531C162.466 87.4816 156.247 86.1353 156.238 85.9564C156.229 85.7775 156.395 77.0126 156.395 77.0126Z"
    fill="#FFBE9D" />
  <path
    d="M158.157 83.6152C158.185 83.5954 158.265 83.692 158.447 83.7781C158.624 83.8616 158.93 83.9209 159.255 83.803C159.913 83.5678 160.475 82.5288 160.516 81.4063C160.538 80.8398 160.424 80.2986 160.229 79.8496C160.044 79.3918 159.753 79.0709 159.424 79.0088C159.096 78.9293 158.861 79.1252 158.783 79.2998C158.698 79.4733 158.736 79.5978 158.703 79.6083C158.685 79.6238 158.571 79.5024 158.623 79.2455C158.65 79.1221 158.724 78.9759 158.871 78.8579C159.021 78.7376 159.241 78.6779 159.471 78.7054C159.949 78.7431 160.376 79.1896 160.591 79.6824C160.832 80.1775 160.973 80.7859 160.949 81.4222C160.896 82.677 160.245 83.8453 159.345 84.0963C158.907 84.2065 158.544 84.0707 158.357 83.9217C158.167 83.7657 158.136 83.6264 158.157 83.6152Z"
    fill="#006060" />
  <path
    d="M126.284 57.3041C126.277 57.3514 126.957 57.5105 128.077 57.6359C129.196 57.7623 130.758 57.8322 132.476 57.715C134.195 57.5947 135.732 57.3107 136.824 57.0317C137.916 56.7535 138.567 56.5025 138.554 56.4567C138.538 56.4005 137.862 56.5576 136.765 56.7652C135.669 56.9739 134.146 57.2114 132.449 57.3301C130.753 57.4457 129.212 57.4197 128.098 57.3639C126.983 57.3088 126.292 57.2459 126.284 57.3041Z"
    fill="#455A64" />
  <path
    d="M123.968 61.6532C123.956 61.6963 124.451 61.8965 125.3 62.0432C126.145 62.1914 127.35 62.2492 128.651 62.0358C129.953 61.8181 131.075 61.3746 131.828 60.9618C132.584 60.5494 132.99 60.2002 132.964 60.1629C132.906 60.0519 131.129 61.252 128.589 61.6552C126.056 62.0928 123.987 61.5294 123.968 61.6532Z"
    fill="#455A64" />
  <path
    d="M161.072 62.5713C161.066 62.4917 159.722 62.6624 157.563 62.4905C156.482 62.4296 155.209 62.2015 153.812 61.9078C152.422 61.5694 150.915 61.112 149.377 60.5075C147.843 59.8906 146.434 59.1832 145.182 58.4868C143.947 57.7616 142.853 57.0717 141.987 56.4172C140.236 55.1348 139.271 54.1877 139.221 54.2405C139.202 54.2595 139.432 54.5067 139.866 54.9389C140.079 55.1601 140.353 55.4142 140.685 55.6951C141.013 55.9811 141.384 56.3093 141.824 56.6356C142.676 57.3243 143.766 58.0452 145.005 58.7952C146.261 59.5165 147.683 60.2425 149.235 60.8664C150.791 61.4786 152.322 61.9318 153.734 62.255C155.155 62.5336 156.448 62.7362 157.545 62.7633C158.091 62.8064 158.587 62.7936 159.022 62.7815C159.457 62.78 159.83 62.7575 160.134 62.7148C160.742 62.6473 161.075 62.5976 161.072 62.5713Z"
    fill="#455A64" />
  <path
    d="M139.521 56.4389C139.498 56.4521 139.658 56.7675 139.97 57.3286C140.124 57.6111 140.317 57.9529 140.574 58.3296C140.829 58.7075 141.095 59.1565 141.452 59.6069C142.127 60.537 143.011 61.5877 144.087 62.6624C145.176 63.7232 146.455 64.8096 147.913 65.7897C149.38 66.757 150.874 67.5206 152.274 68.1096C153.684 68.6784 154.996 69.0788 156.117 69.3213C156.672 69.4687 157.189 69.5285 157.637 69.6084C158.085 69.6914 158.476 69.7275 158.795 69.7508C159.434 69.8043 159.786 69.8214 159.788 69.7946C159.797 69.7155 158.383 69.6111 156.181 69.0559C155.08 68.7824 153.793 68.3602 152.411 67.7813C151.038 67.1822 149.571 66.421 148.126 65.4681C146.69 64.5023 145.423 63.44 144.335 62.4075C143.259 61.3611 142.365 60.3414 141.669 59.4416C140.274 57.6433 139.587 56.3993 139.521 56.4389Z"
    fill="#455A64" />
  <path
    d="M143.946 50.9564C143.95 50.9161 143.468 50.8245 142.699 50.977C141.939 51.1334 140.915 51.5939 140.071 52.4545C139.864 52.6722 139.673 52.8961 139.517 53.1405C139.354 53.3865 139.259 53.6647 139.173 53.8862C138.991 54.353 138.835 54.7907 138.756 55.1748C138.591 55.9508 138.743 56.44 138.784 56.4276C138.847 56.4226 138.799 55.9488 139.019 55.2427C139.126 54.8888 139.3 54.4818 139.501 54.0209C139.605 53.7788 139.688 53.5557 139.833 53.3469C139.975 53.1323 140.154 52.9263 140.345 52.7246C141.132 51.9229 142.065 51.455 142.766 51.2408C143.474 51.0309 143.947 51.0216 143.946 50.9564Z"
    fill="#455A64" />
  <path
    d="M153.924 74.7381C153.937 74.6465 152.432 74.7102 150.228 73.888C148.035 73.0973 145.228 71.2387 143.131 68.3221C141.036 65.3993 140.003 62.241 139.416 59.9666C139.123 58.8224 138.929 57.8834 138.8 57.2339C138.672 56.584 138.597 56.2239 138.57 56.2282C138.545 56.2317 138.569 56.5987 138.653 57.2587C138.736 57.9183 138.89 58.8697 139.152 60.0314C139.675 62.3384 140.679 65.5619 142.819 68.5484C144.965 71.5332 147.872 73.4042 150.135 74.1449C151.268 74.5282 152.227 74.6916 152.891 74.7354C153.222 74.7742 153.483 74.756 153.657 74.761C153.832 74.7587 153.923 74.7513 153.924 74.7381Z"
    fill="#263238" />
  <path
    d="M123.016 80.7005C123.016 80.6586 123.307 80.8615 123.751 80.6252C123.963 80.5127 124.186 80.29 124.327 79.9765C124.476 79.6642 124.472 79.2591 124.309 78.8505C124.149 78.4435 123.849 78.0516 123.49 77.6644C123.133 77.276 122.704 76.8764 122.372 76.3429C122.209 76.0759 122.073 75.771 122.023 75.4346C121.971 75.0989 122.013 74.7439 122.127 74.4176C122.357 73.7588 122.822 73.2102 123.309 72.7135C123.794 72.2157 124.277 71.7431 124.563 71.1829C124.85 70.6261 124.896 70.0002 124.822 69.4198C124.671 68.2504 124.195 67.24 124.094 66.3092C123.964 65.3896 124.117 64.6078 124.389 64.1581C124.518 63.9296 124.661 63.7825 124.762 63.6921C124.869 63.6068 124.927 63.5664 124.933 63.5742C124.959 63.5986 124.707 63.7604 124.488 64.2105C124.26 64.652 124.144 65.3939 124.294 66.2797C124.413 67.169 124.906 68.1584 125.084 69.3864C125.17 69.994 125.129 70.6905 124.813 71.3105C124.5 71.9286 123.994 72.4198 123.514 72.9137C123.033 73.4018 122.6 73.9214 122.392 74.51C122.17 75.0962 122.288 75.7159 122.597 76.2051C122.898 76.7029 123.307 77.1003 123.666 77.5042C124.025 77.9069 124.335 78.3283 124.498 78.7787C124.665 79.2222 124.654 79.7037 124.471 80.0444C124.3 80.3858 124.044 80.6155 123.801 80.7249C123.557 80.8394 123.334 80.8313 123.203 80.7909C123.07 80.7537 123.013 80.7048 123.016 80.7005Z"
    fill="#263238" />
  <path
    d="M161.416 77.335C161.407 77.3319 161.429 77.2209 161.482 77.0126C161.53 76.803 161.624 76.5008 161.713 76.1031C161.909 75.3131 162.154 74.1588 162.331 72.7162C162.507 71.2748 162.593 69.5381 162.415 67.6272C162.247 65.7194 161.79 63.6374 160.929 61.6028C160.492 60.5905 159.956 59.6534 159.356 58.8053C158.754 57.9571 158.074 57.2156 157.392 56.5471C156.008 55.2248 154.57 54.2498 153.312 53.5335C152.053 52.8153 150.983 52.3261 150.235 52.0099C149.864 51.8434 149.568 51.7355 149.372 51.6482C149.175 51.5644 149.073 51.5159 149.076 51.5062C149.08 51.4969 149.188 51.5272 149.392 51.5939C149.595 51.6641 149.898 51.7549 150.277 51.9063C151.04 52.1918 152.129 52.6551 153.412 53.3566C154.693 54.0562 156.159 55.0238 157.574 56.3555C158.271 57.0286 158.968 57.779 159.584 58.6408C160.199 59.5025 160.747 60.4585 161.193 61.4902C162.068 63.5575 162.523 65.6721 162.678 67.6043C162.844 69.5397 162.735 71.2935 162.532 72.7426C162.329 74.1938 162.051 75.348 161.821 76.1322C161.715 76.5272 161.603 76.8252 161.537 77.0296C161.467 77.2326 161.426 77.3381 161.416 77.335Z"
    fill="#455A64" />
  <path
    d="M156.644 97.0574C156.637 97.0636 156.575 96.9961 156.464 96.8607C156.352 96.7272 156.202 96.5154 156.039 96.2256C155.71 95.6517 155.332 94.729 155.271 93.5259C155.243 92.9272 155.298 92.2637 155.485 91.5796C155.667 90.889 156.052 90.2271 156.384 89.538C156.71 88.8609 156.969 88.0279 156.557 87.3229C156.17 86.6109 155.368 86.1601 154.838 85.36C154.569 84.9596 154.502 84.3935 154.712 83.9547C154.912 83.5166 155.234 83.2058 155.473 82.8745C155.988 82.2323 155.969 81.376 155.721 80.6702C155.479 79.9497 155.039 79.3592 154.613 78.8172C154.186 78.2747 153.776 77.761 153.491 77.2291C152.881 76.1609 153.008 75.0578 153.334 74.4751C153.497 74.1759 153.697 73.9916 153.846 73.8981C153.994 73.8019 154.083 73.7732 154.086 73.779C154.115 73.81 153.721 73.9396 153.433 74.5259C153.156 75.0924 153.067 76.131 153.668 77.1305C153.952 77.6353 154.36 78.1296 154.798 78.6689C155.233 79.2044 155.705 79.8182 155.971 80.5845C156.1 80.9655 156.186 81.3815 156.157 81.8148C156.135 82.2455 155.967 82.6898 155.699 83.0409C155.443 83.394 155.136 83.7021 154.973 84.0699C154.806 84.4342 154.853 84.8587 155.081 85.2087C155.541 85.9226 156.361 86.3894 156.803 87.1875C157.029 87.5821 157.093 88.0616 157.02 88.4842C156.956 88.9129 156.789 89.2943 156.622 89.6521C156.272 90.3621 155.896 90.9895 155.713 91.6464C155.525 92.3002 155.459 92.9388 155.474 93.5189C155.507 94.6848 155.844 95.5947 156.137 96.1736C156.434 96.7556 156.668 97.04 156.644 97.0574Z"
    fill="#263238" />
  <path
    d="M176.278 94.6697C176.317 94.7473 176.204 94.9467 175.819 95.0926C175.442 95.235 174.767 95.2416 174.088 94.8412C173.75 94.6452 173.408 94.3612 173.124 93.9546C172.979 93.754 172.857 93.5173 172.758 93.2515C172.672 93.0001 172.601 92.7367 172.567 92.4577C172.412 91.3313 172.734 90.132 173.195 89.0142C173.647 87.915 174.192 86.8352 174.239 85.8524C174.299 84.8665 173.868 83.7867 173.123 82.6013C172.401 81.4183 171.35 80.1367 170.56 78.48C169.781 76.8655 169.246 75.0978 168.915 73.3064C168.243 69.7135 168.208 66.3724 167.84 63.4807C167.492 60.6227 166.757 58.1197 165.805 56.2162C164.87 54.2913 163.676 53.0349 162.764 52.2504C162.292 51.8795 161.916 51.5737 161.644 51.3801C161.38 51.1702 161.25 51.0115 161.282 50.918C161.314 50.8245 161.509 50.8001 161.865 50.8455C162.228 50.8749 162.724 51.0352 163.355 51.3025C164.579 51.8694 166.246 53.1285 167.557 55.1977C168.891 57.2451 169.918 59.9798 170.449 63.0938C170.984 66.1726 171.108 69.5021 171.727 72.7655C172.028 74.3978 172.477 75.913 173.093 77.2718C173.677 78.608 174.603 79.836 175.396 81.2581C175.789 81.9669 176.15 82.7239 176.386 83.5473C176.624 84.3659 176.716 85.2603 176.6 86.1015C176.482 86.952 176.189 87.6698 175.893 88.2789C175.594 88.8896 175.285 89.4096 175.024 89.8868C174.506 90.818 174.188 91.6538 174.164 92.3533C174.152 92.5283 174.169 92.6963 174.188 92.8523C174.21 92.9896 174.243 93.1305 174.3 93.2616C174.406 93.5282 174.572 93.7598 174.746 93.9402C175.473 94.6984 176.198 94.4741 176.278 94.6697Z"
    fill="#263238" />
  <path
    d="M141.988 87.4129C141.989 87.5382 140.714 87.5658 139.213 87.9228C137.707 88.2677 136.594 88.878 136.534 88.7791C136.468 88.6937 137.543 87.8929 139.12 87.5293C140.69 87.158 141.996 87.3159 141.988 87.4129Z"
    fill="#263238" />
  <path
    d="M128.421 107.405L140.614 106.385L158.002 107.15L169.623 109.281L151.157 120.068L137.426 118.298L128.421 107.405Z"
    fill="#FFBE9D" />
  <path
    d="M128.249 107.405C128.249 107.405 118.584 109.648 115.321 112.922C112.058 116.197 108.671 127.913 107.984 131.359C107.297 134.806 105.064 163.93 106.439 168.066C107.812 172.202 113.136 175.648 119.49 177.027C125.845 178.406 136.493 179.44 136.493 179.44L141.817 162.551L123.909 157.726L128.249 107.405Z"
    fill="#0E7979" />
  <path
    d="M149.326 159.102L164.255 159.706C164.255 159.706 168.463 155.014 169.515 148.914C170.567 142.815 170.099 138.475 170.099 138.475L174.308 110.558C174.308 110.558 180.269 110.323 182.724 117.596C185.179 124.868 182.966 146.239 182.724 151.847C182.527 156.404 180.114 167.11 176.619 173.382C175.125 176.063 172.528 177.38 170.918 177.47C165.541 177.77 150.11 175.307 150.11 175.307L149.326 159.589"
    fill="#0E7979" />
  <path
    d="M128.249 107.405C128.249 107.405 138.178 112.218 152.181 111.557C166.184 110.896 166.535 108.581 166.535 108.581L175.094 110.634L172.939 153.711L168.751 172.12L172.285 184.891C172.285 184.891 110.256 184.704 110.585 184.704L118.573 161.646L128.249 107.405Z"
    fill="#0E7979" />
  <path
    d="M151.76 158.156C151.757 158.139 152.011 158.086 152.492 158.005C152.974 157.928 153.684 157.826 154.596 157.727C156.419 157.511 159.055 157.404 162.208 156.933L162.069 157.086C162.275 152.941 162.28 147.778 162.481 142.191C162.614 138.674 162.857 135.321 163.271 132.294C163.676 129.266 164.248 126.568 164.87 124.343C165.497 122.118 166.161 120.367 166.671 119.182C166.921 118.587 167.139 118.136 167.291 117.832C167.441 117.528 167.526 117.371 167.539 117.377C167.552 117.383 167.491 117.551 167.365 117.866C167.237 118.18 167.043 118.64 166.816 119.242C166.353 120.441 165.733 122.197 165.145 124.418C164.562 126.64 164.022 129.327 163.639 132.343C163.248 135.358 163.016 138.696 162.884 142.207C162.684 147.781 162.649 152.951 162.395 157.104L162.387 157.239L162.256 157.257C159.073 157.694 156.436 157.752 154.614 157.913C153.702 157.983 152.99 158.055 152.505 158.101C152.02 158.152 151.762 158.173 151.76 158.156Z"
    fill="#263238" />
  <path
    d="M120.107 143.724C120.079 143.726 120.03 143.429 119.965 142.89C119.898 142.35 119.826 141.566 119.757 140.596C119.619 138.657 119.525 135.969 119.599 133.002C119.676 130.033 119.905 127.353 120.142 125.424C120.259 124.459 120.371 123.68 120.465 123.145C120.558 122.609 120.622 122.315 120.649 122.318C120.677 122.322 120.665 122.623 120.621 123.164C120.572 123.732 120.506 124.508 120.425 125.453C120.262 127.385 120.078 130.056 120.002 133.012C119.929 135.967 119.977 138.644 120.042 140.582C120.075 141.53 120.102 142.308 120.122 142.878C120.138 143.42 120.134 143.722 120.107 143.724Z"
    fill="#263238" />
  <path
    d="M149.19 174.089C149.194 174.103 149.065 174.143 148.818 174.209C148.571 174.274 148.206 174.364 147.734 174.475C146.788 174.689 145.417 174.988 143.711 175.299C140.302 175.93 135.556 176.633 130.276 177.015C127.634 177.2 125.12 177.332 122.818 177.328C120.519 177.321 118.436 177.07 116.756 176.579C115.912 176.346 115.184 176.02 114.56 175.717C113.948 175.386 113.447 175.055 113.064 174.75C112.879 174.594 112.713 174.454 112.568 174.331C112.433 174.2 112.325 174.082 112.237 173.989C112.061 173.802 111.974 173.699 111.984 173.69C111.994 173.681 112.101 173.764 112.293 173.931C112.393 174.018 112.51 174.121 112.646 174.24C112.797 174.353 112.967 174.481 113.158 174.624C113.548 174.905 114.052 175.21 114.66 175.515C115.281 175.793 115.999 176.093 116.832 176.304C118.489 176.75 120.54 176.969 122.819 176.956C125.098 176.94 127.616 176.797 130.246 176.612C135.51 176.232 140.248 175.575 143.662 175.018C145.371 174.744 146.748 174.488 147.702 174.322C148.178 174.234 148.548 174.169 148.801 174.13C149.054 174.09 149.187 174.075 149.19 174.089Z"
    fill="#263238" />
  <path
    d="M165.936 161.515C165.819 161.555 165.418 160.181 164.269 158.922C163.139 157.644 161.818 157.102 161.87 156.989C161.887 156.943 162.242 157.014 162.767 157.269C163.289 157.522 163.968 157.985 164.567 158.651C165.165 159.319 165.554 160.043 165.751 160.591C165.95 161.141 165.984 161.503 165.936 161.515Z"
    fill="#263238" />
  <g opacity="0.3">
    <path
      d="M107.369 161.667C110.665 164.064 114.164 166.543 118.211 166.98C121.067 167.289 123.937 166.541 126.808 166.623C130.622 166.733 134.252 168.301 137.546 170.233C140.84 172.164 143.904 174.48 147.258 176.306C150.892 178.284 154.883 179.677 159.004 180.01C163.125 180.344 167.381 179.578 170.96 177.501C165.936 178.104 159.258 177.916 154.009 176.208C148.164 174.307 147.163 172.772 143.801 170.885C139.449 168.44 135.613 165.045 130.982 163.185C127.086 161.62 122.729 161.228 118.618 162.073C116.551 162.498 114.341 163.214 112.409 162.364C111.549 161.986 110.833 161.323 109.959 160.977C109.086 160.63 107.896 160.734 107.459 161.568"
      fill="black" />
  </g>
  <path
    d="M153.79 149.537C153.792 149.565 153.559 149.604 153.133 149.651C152.92 149.678 152.658 149.701 152.353 149.7C152.049 149.702 151.7 149.723 151.317 149.689C150.933 149.669 150.513 149.642 150.066 149.569C149.615 149.521 149.144 149.413 148.645 149.309C147.656 149.066 146.588 148.713 145.52 148.217C144.458 147.708 143.505 147.108 142.688 146.499C142.29 146.18 141.905 145.885 141.581 145.568C141.24 145.268 140.951 144.961 140.691 144.676C140.42 144.402 140.213 144.12 140.021 143.883C139.825 143.649 139.676 143.432 139.561 143.25C139.325 142.89 139.206 142.685 139.229 142.669C139.29 142.626 139.828 143.406 140.896 144.478C141.164 144.744 141.459 145.034 141.802 145.317C142.129 145.617 142.514 145.895 142.909 146.199C143.72 146.778 144.654 147.354 145.691 147.851C146.734 148.335 147.772 148.689 148.734 148.947C149.219 149.058 149.678 149.177 150.117 149.238C150.553 149.323 150.963 149.366 151.339 149.403C152.842 149.544 153.785 149.462 153.79 149.537Z"
    fill="#263238" />
  <path
    d="M180.09 164.834C180.12 164.841 180.005 165.354 179.723 166.252C179.441 167.151 179.013 168.445 178.412 170.02C178.101 170.806 177.782 171.668 177.316 172.563C176.841 173.449 176.198 174.325 175.386 175.112C173.782 176.699 171.404 177.857 168.79 177.997C166.215 178.132 163.765 177.962 161.556 177.707C159.347 177.442 157.375 177.084 155.733 176.721C154.092 176.356 152.782 175.985 151.886 175.698C151.437 175.56 151.095 175.434 150.863 175.348C150.631 175.261 150.511 175.209 150.516 175.196C150.526 175.164 151.024 175.311 151.93 175.547C152.835 175.787 154.151 176.114 155.792 176.441C157.433 176.767 159.401 177.094 161.598 177.337C163.794 177.571 166.228 177.727 168.768 177.594C171.282 177.458 173.568 176.359 175.13 174.843C175.92 174.091 176.551 173.253 177.022 172.402C177.483 171.55 177.823 170.685 178.147 169.915C178.779 168.36 179.248 167.082 179.575 166.201C179.732 165.772 179.856 165.432 179.947 165.184C180.032 164.953 180.076 164.831 180.09 164.834Z"
    fill="#263238" />
  <path
    d="M112.171 137.25C112.171 137.25 120.889 144.032 121.183 144.819C121.477 145.605 124.416 150.225 126.865 152.191C129.313 154.157 151.76 158.757 151.76 158.757L150.472 174.863C150.472 174.863 132.056 163.691 126.57 163.986C121.085 164.281 116.775 165.362 114.424 164.576C112.073 163.789 106.172 160.054 106.172 160.054C106.172 160.054 105.154 157.988 106.262 157.006C106.262 157.006 105.588 154.845 105.745 153.862C105.745 153.862 104.854 151.606 105.721 150.716C105.721 150.716 105.51 147.374 107.371 147.374C109.232 147.374 112.758 147.964 114.424 147.866C116.089 147.768 116.677 146.588 116.677 146.588C116.677 146.588 116.677 145.704 115.305 144.721C113.935 143.737 108.743 139.707 112.171 137.25Z"
    fill="#FFBE9D" />
  <path
    d="M110.605 153.942C110.564 154.04 109.281 153.576 107.882 152.658C106.479 151.745 105.537 150.756 105.61 150.679C105.688 150.592 106.729 151.428 108.102 152.32C109.47 153.218 110.653 153.835 110.605 153.942Z"
    fill="#006060" />
  <path
    d="M110.985 157.443C110.961 157.541 109.419 157.121 107.844 155.978C106.26 154.847 105.369 153.517 105.454 153.462C105.547 153.384 106.549 154.559 108.079 155.65C109.599 156.754 111.029 157.329 110.985 157.443Z"
    fill="#006060" />
  <path
    d="M111.388 160.189C111.376 160.29 109.894 160.056 108.357 159.081C106.811 158.117 105.957 156.88 106.042 156.825C106.134 156.744 107.091 157.817 108.571 158.739C110.041 159.674 111.42 160.071 111.388 160.189Z"
    fill="#006060" />
  <path
    d="M119.513 130.881C119.494 131.012 117.015 130.449 113.962 130.829C110.904 131.176 108.626 132.305 108.577 132.183C108.555 132.14 109.094 131.802 110.042 131.413C110.988 131.024 112.357 130.615 113.914 130.427C115.471 130.244 116.898 130.32 117.909 130.477C118.922 130.632 119.524 130.834 119.513 130.881Z"
    fill="white" />
  <path
    d="M162.034 133.872C162.037 133.886 161.896 133.933 161.626 134.009C161.34 134.084 160.942 134.189 160.437 134.322C159.921 134.458 159.286 134.614 158.544 134.769C157.802 134.927 156.96 135.124 156.019 135.287C155.081 135.464 154.052 135.654 152.941 135.814C151.833 135.999 150.641 136.139 149.388 136.297C146.878 136.576 144.107 136.794 141.194 136.883C138.278 136.957 135.499 136.893 132.978 136.755C131.717 136.668 130.52 136.595 129.403 136.472C128.284 136.374 127.246 136.243 126.299 136.118C125.351 136.007 124.5 135.857 123.751 135.741C123.001 135.628 122.359 135.507 121.835 135.401C121.324 135.296 120.921 135.214 120.631 135.154C120.357 135.093 120.214 135.055 120.217 135.041C120.22 135.028 120.367 135.04 120.646 135.074C120.939 135.116 121.346 135.173 121.862 135.246C122.388 135.329 123.033 135.426 123.784 135.518C124.534 135.613 125.386 135.742 126.334 135.835C127.28 135.941 128.317 136.055 129.433 136.139C130.547 136.247 131.742 136.307 132.998 136.384C135.511 136.501 138.279 136.553 141.182 136.479C144.085 136.391 146.844 136.184 149.347 135.927C150.596 135.78 151.786 135.653 152.892 135.483C154.002 135.337 155.031 135.165 155.97 135.006C156.911 134.861 157.754 134.684 158.498 134.548C159.243 134.414 159.881 134.281 160.402 134.17C160.914 134.068 161.317 133.988 161.607 133.93C161.884 133.879 162.031 133.859 162.034 133.872Z"
    fill="white" />
  <path
    d="M182.303 132.66C182.26 132.725 181.391 132.031 179.754 131.396C178.129 130.747 175.708 130.282 173.034 130.427C170.357 130.573 167.976 131.156 166.261 131.57C164.546 131.997 163.482 132.266 163.466 132.209C163.458 132.182 163.714 132.081 164.183 131.92C164.653 131.761 165.336 131.542 166.188 131.294C167.889 130.808 170.284 130.172 173.014 130.023C175.743 129.874 178.227 130.398 179.861 131.132C180.682 131.491 181.307 131.865 181.711 132.159C182.116 132.451 182.318 132.641 182.303 132.66Z"
    fill="white" />
  <g opacity="0.3">
    <path
      d="M139.522 143.034L139.643 143.384C140.177 146.774 142.453 149.892 145.611 151.209C148.769 152.526 152.709 151.876 155.124 149.446C149.285 150.72 142.794 148.052 139.522 143.034Z"
      fill="black" />
  </g>
  <g opacity="0.3">
    <path
      d="M170.355 161.761C169.84 160.361 168.499 159.457 167.186 158.756C165.485 157.847 163.69 157.112 161.84 156.568L161.886 157.095C163.946 158.567 165.695 160.478 166.982 162.662C167.481 163.509 168.12 164.525 169.1 164.483C169.681 164.459 170.193 164.016 170.404 163.472C170.614 162.928 170.557 162.308 170.355 161.761Z"
      fill="black" />
  </g>
  <path
    d="M257.179 184.891C257.179 185.003 206.951 185.093 145.006 185.093C83.0389 185.093 32.8213 185.003 32.8213 184.891C32.8213 184.78 83.0389 184.689 145.006 184.689C206.951 184.689 257.179 184.78 257.179 184.891Z"
    fill="#263238" />
</svg>
