<?xml version="1.0" encoding="UTF-8" standalone="no"?>
<svg
  viewBox="0 0 322.4155 237.23056"
  version="1.1"
  id="svg283"
  sodipodi:docname="compare_yourself.svg"
  width="322.4155"
  height="237.23056"
  inkscape:version="1.2.2 (b0a8486541, 2022-12-01)"
  xmlns:inkscape="http://www.inkscape.org/namespaces/inkscape"
  xmlns:sodipodi="http://sodipodi.sourceforge.net/DTD/sodipodi-0.dtd"
  xmlns="http://www.w3.org/2000/svg"
  xmlns:svg="http://www.w3.org/2000/svg">
  <defs
    id="defs287" />
  <sodipodi:namedview
    id="namedview285"
    pagecolor="#ffffff"
    bordercolor="#666666"
    borderopacity="1.0"
    inkscape:showpageshadow="2"
    inkscape:pageopacity="0.0"
    inkscape:pagecheckerboard="0"
    inkscape:deskcolor="#d1d1d1"
    showgrid="false"
    inkscape:zoom="1.728"
    inkscape:cx="53.530093"
    inkscape:cy="170.71759"
    inkscape:window-width="956"
    inkscape:window-height="1028"
    inkscape:window-x="0"
    inkscape:window-y="0"
    inkscape:window-maximized="1"
    inkscape:current-layer="svg283" />
  <g
    id="freepik--main-charts--inject-2"
    transform="translate(-56.312208,-79.239052)">
    <g
      style="opacity:0.3"
      id="g100">
      <path
        d="m 307,257.33 -0.17,-103.88 a 3.85,3.85 0 0 0 -1.74,-3 L 182.53,80 c -1,-0.55 -1.73,-0.1 -1.73,1 l 0.2,103.84 a 3.82,3.82 0 0 0 1.74,3 l 122.57,70.5 c 0.93,0.55 1.69,0.1 1.69,-1.01 z"
        style="fill:#ffffff"
        id="path98" />
    </g>
    <path
      d="m 306.06,259.07 a 2.09,2.09 0 0 1 -1,-0.3 l -122.57,-70.5 a 4.29,4.29 0 0 1 -2,-3.43 L 180.3,81 a 1.55,1.55 0 0 1 2.48,-1.44 L 305.35,150 a 4.31,4.31 0 0 1 2,3.43 l 0.17,103.88 a 1.72,1.72 0 0 1 -0.75,1.56 1.4,1.4 0 0 1 -0.71,0.2 z M 181.76,80.22 a 0.39,0.39 0 0 0 -0.2,0 0.77,0.77 0 0 0 -0.26,0.69 l 0.17,103.88 a 3.3,3.3 0 0 0 1.53,2.61 l 122.57,70.5 c 0.3,0.17 0.56,0.22 0.72,0.12 0.16,-0.1 0.26,-0.34 0.26,-0.69 l -0.17,-103.88 a 3.32,3.32 0 0 0 -1.48,-2.56 L 182.28,80.39 a 1.09,1.09 0 0 0 -0.52,-0.17 z"
      style="fill:#b249f8"
      id="path102" />
    <path
      d="m 295.36,234.41 c -3.25,-2.31 -5.15,-4.4 -6.44,-20.46 l -0.11,-1.37 c -1.21,-15.09 -2,-25.05 -8.88,-29.16 -3.3,-2 -5.94,0 -8.73,2.17 -2.53,1.93 -5.13,3.91 -8.06,2.24 -5.15,-3 -6,-8.94 -7.6,-19.78 -0.2,-1.34 -0.4,-2.75 -0.63,-4.23 -0.35,-2.31 -0.65,-4.46 -0.93,-6.48 -1.58,-11.38 -2.54,-18.26 -8.36,-21.77 a 4.51,4.51 0 0 0 -4,-0.61 c -4.41,1.54 -7.86,10.87 -11.51,20.76 -0.28,0.73 -0.55,1.5 -0.84,2.27 -2.65,7.29 -5.65,15.56 -9.8,17.09 a 4.14,4.14 0 0 1 -3.59,-0.36 c -4.13,-2.34 -4.87,-8.74 -5.58,-14.94 -0.71,-6.2 -1.4,-12.43 -5.3,-14.78 a 2.4,2.4 0 0 0 -2.25,-0.19 c -4.84,1.88 -9.13,16.2 -9.17,16.34 l -1,-0.28 c 0.18,-0.61 4.47,-14.93 9.76,-17 a 3.41,3.41 0 0 1 3.13,0.27 c 4.31,2.58 5.06,9.15 5.79,15.5 0.73,6.35 1.39,12.1 5.09,14.19 a 3.1,3.1 0 0 0 2.74,0.29 c 3.71,-1.37 6.76,-9.75 9.21,-16.49 0.29,-0.78 0.56,-1.54 0.84,-2.28 3.9,-10.55 7.27,-19.66 12.12,-21.36 a 5.49,5.49 0 0 1 4.82,0.71 c 6.22,3.76 7.21,10.81 8.83,22.49 0.28,2 0.58,4.16 0.93,6.46 0.23,1.49 0.43,2.9 0.63,4.23 1.53,10.54 2.38,16.34 7.11,19.06 2.35,1.35 4.48,-0.28 6.95,-2.16 2.8,-2.14 6,-4.55 9.85,-2.24 7.31,4.38 8.13,14.55 9.36,29.94 l 0.11,1.37 c 1.32,16.38 3.3,17.78 6,19.73 z"
      style="fill:#b249f8"
      id="path104" />
    <g
      style="opacity:0.4"
      id="g108">
      <path
        d="m 295.36,234.41 c -3.25,-2.31 -5.15,-4.4 -6.44,-20.46 l -0.11,-1.37 c -1.21,-15.09 -2,-25.05 -8.88,-29.16 -3.3,-2 -5.94,0 -8.73,2.17 -2.53,1.93 -5.13,3.91 -8.06,2.24 -5.15,-3 -6,-8.94 -7.6,-19.78 -0.2,-1.34 -0.4,-2.75 -0.63,-4.23 -0.35,-2.31 -0.65,-4.46 -0.93,-6.48 -1.58,-11.38 -2.54,-18.26 -8.36,-21.77 a 4.51,4.51 0 0 0 -4,-0.61 c -4.41,1.54 -7.86,10.87 -11.51,20.76 -0.28,0.73 -0.55,1.5 -0.84,2.27 -2.65,7.29 -5.65,15.56 -9.8,17.09 a 4.14,4.14 0 0 1 -3.59,-0.36 c -4.13,-2.34 -4.87,-8.74 -5.58,-14.94 -0.71,-6.2 -1.4,-12.43 -5.3,-14.78 a 2.4,2.4 0 0 0 -2.25,-0.19 c -4.84,1.88 -9.13,16.2 -9.17,16.34 l -1,-0.28 c 0.18,-0.61 4.47,-14.93 9.76,-17 a 3.41,3.41 0 0 1 3.13,0.27 c 4.31,2.58 5.06,9.15 5.79,15.5 0.73,6.35 1.39,12.1 5.09,14.19 a 3.1,3.1 0 0 0 2.74,0.29 c 3.71,-1.37 6.76,-9.75 9.21,-16.49 0.29,-0.78 0.56,-1.54 0.84,-2.28 3.9,-10.55 7.27,-19.66 12.12,-21.36 a 5.49,5.49 0 0 1 4.82,0.71 c 6.22,3.76 7.21,10.81 8.83,22.49 0.28,2 0.58,4.16 0.93,6.46 0.23,1.49 0.43,2.9 0.63,4.23 1.53,10.54 2.38,16.34 7.11,19.06 2.35,1.35 4.48,-0.28 6.95,-2.16 2.8,-2.14 6,-4.55 9.85,-2.24 7.31,4.38 8.13,14.55 9.36,29.94 l 0.11,1.37 c 1.32,16.38 3.3,17.78 6,19.73 z"
        id="path106" />
    </g>
    <path
      d="m 278.45,179 a 5.71,5.71 0 0 1 2.57,4.43 c 0,1.63 -1.15,2.29 -2.56,1.48 a 5.65,5.65 0 0 1 -2.57,-4.43 c 0,-1.59 1.11,-2.25 2.56,-1.48 z"
      style="fill:#b249f8"
      id="path110" />
    <g
      style="opacity:0.2"
      id="g114">
      <path
        d="m 278.45,179 a 5.71,5.71 0 0 1 2.57,4.43 c 0,1.63 -1.15,2.29 -2.56,1.48 a 5.65,5.65 0 0 1 -2.57,-4.43 c 0,-1.59 1.11,-2.25 2.56,-1.48 z"
        id="path112" />
    </g>
    <path
      d="m 245.88,132.19 a 5.66,5.66 0 0 1 2.56,4.43 c 0,1.63 -1.14,2.29 -2.55,1.48 a 5.64,5.64 0 0 1 -2.57,-4.43 c 0,-1.67 1.14,-2.29 2.56,-1.48 z"
      style="fill:#b249f8"
      id="path116" />
    <g
      style="opacity:0.5"
      id="g120">
      <path
        d="m 245.88,132.19 a 5.66,5.66 0 0 1 2.56,4.43 c 0,1.63 -1.14,2.29 -2.55,1.48 a 5.64,5.64 0 0 1 -2.57,-4.43 c 0,-1.67 1.14,-2.29 2.56,-1.48 z"
        style="fill:#ffffff"
        id="path118" />
    </g>
    <path
      d="m 205.27,141.64 a 5.62,5.62 0 0 1 2.57,4.42 c 0,1.64 -1.14,2.3 -2.56,1.49 a 5.67,5.67 0 0 1 -2.56,-4.43 c -0.01,-1.63 1.14,-2.3 2.55,-1.48 z"
      style="fill:#b249f8"
      id="path122" />
    <path
      d="M 241.87,252.75 V 148.87 a 3.84,3.84 0 0 0 -1.73,-3 L 133.93,84.55 c -1,-0.55 -1.73,-0.1 -1.73,1 v 103.88 a 3.83,3.83 0 0 0 1.73,3 l 106.21,61.32 c 0.96,0.56 1.73,0.11 1.73,-1 z"
      style="opacity:0.65;fill:#ffffff"
      id="path124" />
    <path
      d="m 240.92,254.49 a 2.09,2.09 0 0 1 -1,-0.3 L 133.68,192.87 a 4.34,4.34 0 0 1 -2,-3.44 V 85.55 a 1.55,1.55 0 0 1 2.48,-1.43 l 106.21,61.32 a 4.32,4.32 0 0 1 2,3.43 v 103.88 a 1.72,1.72 0 0 1 -0.75,1.56 1.4,1.4 0 0 1 -0.7,0.18 z M 133.16,84.82 a 0.4,0.4 0 0 0 -0.2,0 0.77,0.77 0 0 0 -0.26,0.69 v 103.92 a 3.33,3.33 0 0 0 1.48,2.57 l 106.21,61.32 a 0.77,0.77 0 0 0 0.73,0.12 c 0.16,-0.09 0.25,-0.34 0.25,-0.69 V 148.87 a 3.3,3.3 0 0 0 -1.48,-2.56 L 133.68,85 a 1,1 0 0 0 -0.52,-0.18 z"
      style="fill:#b249f8"
      id="path126" />
    <path
      d="m 223.6,229.14 v -68.36 a 1.92,1.92 0 0 0 -0.87,-1.5 l -10.45,-6 c -0.48,-0.28 -0.87,-0.06 -0.87,0.5 v 68.32 a 1.89,1.89 0 0 0 0.87,1.5 l 10.45,6 c 0.48,0.32 0.87,0.09 0.87,-0.46 z"
      style="fill:#b249f8"
      id="path128" />
    <g
      style="opacity:0.3"
      id="g132">
      <path
        d="m 223.6,229.14 v -68.36 a 1.92,1.92 0 0 0 -0.87,-1.5 l -10.45,-6 c -0.48,-0.28 -0.87,-0.06 -0.87,0.5 v 68.32 a 1.89,1.89 0 0 0 0.87,1.5 l 10.45,6 c 0.48,0.32 0.87,0.09 0.87,-0.46 z"
        id="path130" />
    </g>
    <path
      d="m 203.29,217.41 v -35.52 a 1.92,1.92 0 0 0 -0.87,-1.5 l -10.46,-6 c -0.47,-0.27 -0.86,0 -0.86,0.5 v 35.53 a 1.94,1.94 0 0 0 0.86,1.5 l 10.46,6 c 0.48,0.27 0.87,0.08 0.87,-0.51 z"
      style="fill:#b249f8"
      id="path134" />
    <g
      style="opacity:0.2"
      id="g138">
      <path
        d="m 203.29,217.41 v -35.52 a 1.92,1.92 0 0 0 -0.87,-1.5 l -10.46,-6 c -0.47,-0.27 -0.86,0 -0.86,0.5 v 35.53 a 1.94,1.94 0 0 0 0.86,1.5 l 10.46,6 c 0.48,0.27 0.87,0.08 0.87,-0.51 z"
        style="fill:#ffffff"
        id="path136" />
    </g>
    <path
      d="M 183,205.69 V 151.4 a 1.92,1.92 0 0 0 -0.87,-1.5 l -10.46,-6 c -0.47,-0.28 -0.86,-0.06 -0.86,0.5 v 54.28 a 1.92,1.92 0 0 0 0.86,1.5 l 10.46,6 c 0.46,0.28 0.87,0.06 0.87,-0.49 z"
      style="fill:#b249f8"
      id="path140" />
    <g
      style="opacity:0.2"
      id="g144">
      <path
        d="M 183,205.69 V 151.4 a 1.92,1.92 0 0 0 -0.87,-1.5 l -10.46,-6 c -0.47,-0.28 -0.86,-0.06 -0.86,0.5 v 54.28 a 1.92,1.92 0 0 0 0.86,1.5 l 10.46,6 c 0.46,0.28 0.87,0.06 0.87,-0.49 z"
        id="path142" />
    </g>
    <path
      d="m 162.66,194 v -77.78 a 1.91,1.91 0 0 0 -0.86,-1.5 l -10.46,-6 c -0.47,-0.28 -0.86,0 -0.86,0.5 v 77.74 a 1.94,1.94 0 0 0 0.86,1.5 l 10.46,6 c 0.48,0.28 0.86,0.05 0.86,-0.46 z"
      style="fill:#b249f8"
      id="path146" />
  </g>

  <g
    id="freepik--character-2--inject-2"
    transform="translate(-56.312208,-79.239052)">
    <path
      d="m 378.63,206.43 c -0.14,-0.75 -3.81,-9.29 -5.32,-12.65 l -7.65,3.58 2.93,6.71 7.92,6.13 a 3.13,3.13 0 0 0 2.12,-3.77 z"
      style="fill:#ffa8a7"
      id="path149" />
    <rect
      x="357.48999"
      y="295.88"
      width="5.9000001"
      height="8.6000004"
      style="fill:#ffa8a7"
      id="rect151" />
    <rect
      x="336.87"
      y="285.34"
      width="5.9000001"
      height="8.6000004"
      transform="rotate(-1.97,340.30987,290.05917)"
      style="fill:#ffa8a7"
      id="rect153" />
    <path
      d="m 344.08,172.72 a 12.66,12.66 0 0 0 -10.56,6.14 c -3.26,4.85 -9,13.14 -9,13.14 l 10.75,3.41 z"
      style="fill:#b249f8"
      id="path155" />
    <g
      style="opacity:0.7"
      id="g159">
      <path
        d="m 344.08,172.72 a 12.66,12.66 0 0 0 -10.56,6.14 c -3.26,4.85 -9,13.14 -9,13.14 l 10.75,3.41 z"
        style="fill:#ffffff"
        id="path157" />
    </g>
    <path
      d="m 363,212 c 0,5.64 0.73,42.11 0.73,42.11 0.14,1.62 1.66,4.61 1.33,10.84 -0.45,8.47 -1.18,32 -1.18,32 0,0 -2.77,2.75 -6.68,0 0,0 -5.35,-31.95 -6.4,-40.34 -0.93,-7.32 -2.49,-27.2 -2.49,-27.2 l -5.47,23.41 c 0,0 1,5.5 1.17,9.38 0.17,3.88 -1,26.32 -1,26.32 a 6.48,6.48 0 0 1 -6.43,0.25 c 0,0 -4.74,-32.78 -5.35,-36.29 -0.61,-3.51 4.16,-40.48 4.16,-40.48 z"
      style="fill:#b249f8"
      id="path161" />
    <path
      d="m 363,212 c 0,5.64 0.73,42.11 0.73,42.11 0.14,1.62 1.66,4.61 1.33,10.84 -0.45,8.47 -1.18,32 -1.18,32 0,0 -2.77,2.75 -6.68,0 0,0 -5.35,-31.95 -6.4,-40.34 -0.93,-7.32 -2.49,-27.2 -2.49,-27.2 l -5.47,23.41 c 0,0 1,5.5 1.17,9.38 0.17,3.88 -1,26.32 -1,26.32 a 6.48,6.48 0 0 1 -6.43,0.25 c 0,0 -4.74,-32.78 -5.35,-36.29 -0.61,-3.51 4.16,-40.48 4.16,-40.48 z"
      style="opacity:0.2"
      id="path163" />
    <path
      d="m 354.12,172.9 c 5.29,1.27 12,3.41 14.36,8.29 2.36,4.88 6,12.79 6,12.79 l -8.76,5.18 -2.72,-4.68 V 212 c -4.14,4.5 -18.58,6.6 -27.62,0 v -28.84 c 0,-4.59 2.56,-10.12 9.61,-10.53 z"
      style="fill:#b249f8"
      id="path165" />
    <path
      d="m 354.12,172.9 c 5.29,1.27 12,3.41 14.36,8.29 2.36,4.88 6,12.79 6,12.79 l -8.76,5.18 -2.72,-4.68 V 212 c -4.14,4.5 -18.58,6.6 -27.62,0 v -28.84 c 0,-4.59 2.56,-10.12 9.61,-10.53 z"
      style="opacity:0.7;fill:#ffffff"
      id="path167" />
    <path
      d="m 356.11,149.36 a 3.14,3.14 0 0 1 2.6,0.92 c 1.12,1.14 0.89,3.26 0,8.12 l -3.46,0.4 z"
      style="fill:#263238"
      id="path169" />
    <path
      d="m 336,148 a 5.31,5.31 0 0 1 -2.16,-0.43 c -1.06,-0.61 -1.34,0.59 -0.76,1.64 a 4.94,4.94 0 0 0 4,2.67 c 0,-0.15 1,-2.7 1,-2.7 z"
      style="fill:#263238"
      id="path171" />
    <path
      d="m 354.49,158.8 c 0.51,0.31 1.24,-0.68 1.87,-1.34 a 2.23,2.23 0 0 1 3.73,0.6 c 1.05,2.21 -1.33,5.16 -2.73,6.13 a 2.46,2.46 0 0 1 -2.87,0.25 l -0.37,8.46 a 9,9 0 0 1 -6.8,5.16 c -5,0.67 -3.95,-3.42 -2.32,-5.43 v -3.08 a 11.84,11.84 0 0 1 -3.78,0.2 c -0.65,-0.17 -2.19,-2 -3.19,-4.13 -1.12,-2.35 -3,-6.52 -1.32,-13.57 1.78,-7.57 9.91,-7.8 14.77,-4.75 4.86,3.05 3.01,11.5 3.01,11.5 z"
      style="fill:#ffa8a7"
      id="path173" />
    <path
      d="m 354.49,159.66 c 0.25,0 1.24,-1.62 1.87,-2.2 0.89,-0.81 -0.25,-8.1 -0.25,-8.1 0,0 0.89,-2.76 -0.86,-4.6 -1.75,-1.84 -5.13,-1.52 -7.61,-1.61 a 22.38,22.38 0 0 1 -8.86,-1.78 c -3.52,-1.53 -3.78,-1.71 -4.22,-0.16 -0.44,1.55 -0.6,5.08 1.5,7.45 l 1.75,0.65 c 0,0 0.94,0.83 4.22,1.23 a 48.23,48.23 0 0 0 9.1,-0.17 c 0.95,-0.13 1.15,0.79 1.66,3.31 0.46,2.22 0.83,5.97 1.7,5.98 z"
      style="fill:#263238"
      id="path175" />
    <path
      d="m 356.1,149.93 3.1,-1.67 a 1.7,1.7 0 0 0 -2.34,-0.77 1.85,1.85 0 0 0 -0.76,2.44 z"
      style="fill:#263238"
      id="path177" />
    <path
      d="m 345,169.55 a 34.83,34.83 0 0 0 6.21,-1.78 5.23,5.23 0 0 0 2.22,-2.2 7.25,7.25 0 0 1 -1.26,2.6 c -1.18,1.5 -7.17,2.61 -7.17,2.61 z"
      style="fill:#f28f8f"
      id="path179" />
    <path
      d="m 346.12,157.65 a 0.92,0.92 0 0 0 0.92,0.95 1,1 0 1 0 -0.92,-0.95 z"
      style="fill:#263238"
      id="path181" />
    <path
      d="m 347.09,154.17 2,1.09 a 1.19,1.19 0 0 0 -0.46,-1.57 1.1,1.1 0 0 0 -1.54,0.48 z"
      style="fill:#263238"
      id="path183" />
    <path
      d="m 346.19,163.9 -2.11,0.79 a 1.12,1.12 0 0 0 1.43,0.7 1.19,1.19 0 0 0 0.68,-1.49 z"
      style="fill:#f28f8f"
      id="path185" />
    <path
      d="m 337.9,154.94 1.79,-1.39 a 1.09,1.09 0 0 0 -1.56,-0.24 1.19,1.19 0 0 0 -0.23,1.63 z"
      style="fill:#263238"
      id="path187" />
    <path
      d="m 338.45,157.39 a 0.92,0.92 0 1 0 1.84,0 0.92,0.92 0 0 0 -0.92,-0.95 0.94,0.94 0 0 0 -0.92,0.95 z"
      style="fill:#263238"
      id="path189" />
    <polygon
      points="342.84,162.06 339.95,161.07 343.14,156.51 "
      style="fill:#f28f8f"
      id="polygon191" />
    <polygon
      points="319.06,189.91 342.64,196.12 349.6,225.39 327.18,218.88 "
      style="fill:#b249f8"
      id="polygon193" />
    <path
      d="m 329.34,209.28 a 4.24,4.24 0 0 1 -4.26,2.13 l -0.34,-1.21 z"
      style="fill:#b249f8"
      id="path195" />
    <path
      d="m 334.61,210.2 c 0.1,0.78 1.71,2.22 4.42,3.12 3.08,1 7.81,0.49 7.81,0.49 l -0.42,-1.46 z"
      style="fill:#b249f8"
      id="path197" />
    <path
      d="m 326,194.15 -0.2,-0.9 c -0.1,-0.5 1.28,-0.52 3.1,-0.05 l 3.47,0.9 c 1.82,0.48 3.37,1.26 3.48,1.76 l 0.2,0.9 z"
      style="opacity:0.43;fill:#455a64"
      id="path199" />
    <path
      d="m 324.32,190.76 c -0.06,-0.31 0.5,-0.39 1.26,-0.18 L 327,191 c 0,0 -0.41,-2 2.65,-1.27 a 4.79,4.79 0 0 1 3.72,2.89 l 1.47,0.42 c 0.81,0.23 1.54,0.66 1.64,1 l 0.17,0.56 -12.15,-3.2 z"
      style="fill:#37474f"
      id="path201" />
    <path
      d="m 326,191.73 c 1.11,0.27 1.57,0.42 1.74,1.18 0.17,0.76 0.27,1.52 0.27,1.52 l 5.37,1.42 c 0,0 -0.26,-1.11 -0.34,-1.54 -0.08,-0.43 0.1,-0.69 1,-0.47 l 0.07,-0.34 -8.43,-2.14 z"
      style="fill:#37474f"
      id="path203" />
    <path
      d="m 325.81,194.24 -0.19,-0.9 c -0.11,-0.5 1.27,-0.52 3.09,-0.05 l 3.47,0.9 c 1.82,0.47 3.38,1.25 3.49,1.75 l 0.19,0.9 z"
      style="fill:#37474f"
      id="path205" />
    <path
      d="m 376.51,210.2 -7.92,-6.13 c 0,0 -16.6,3.12 -18.47,3.27 -1.87,0.15 -3.35,-1.7 -4.06,-3.54 -0.71,-1.84 -2.15,-1.61 -2.15,-1.61 0,0 0.55,2.34 0.73,3.08 0.18,0.74 -4.15,1.35 -6.64,0.51 -2.49,-0.84 -6.1,0.38 -3.87,3.78 2.23,3.4 6.59,3.78 9.61,3.79 a 32.21,32.21 0 0 0 3.78,-0.26 c 1,-0.12 2,-0.22 2.93,-0.29 6.18,-0.44 23.25,-1.72 26.06,-2.6 z"
      style="fill:#ffa8a7"
      id="path207" />
    <path
      d="m 321.45,198.47 1.05,3.73 c 0.2,0.72 2.94,2 4.68,2.5 1.74,0.5 3.63,1 2.81,3.47 -0.76,2.23 -3.61,2.74 -5.06,2.68 a 5.37,5.37 0 0 1 -4.23,-3.69 c -1,-2.85 -0.46,-5.9 -0.86,-7.57 -0.4,-1.67 0.75,-2.11 1.61,-1.12 z"
      style="fill:#f28f8f"
      id="path209" />
    <path
      d="m 357.49,301.57 v -0.85 c -0.56,0.25 -1.88,5.26 -4.22,7.39 -1.86,1.7 -4.4,3.67 -5,5.56 -0.6,1.89 3.54,3.06 5.28,2.75 2,-0.36 5.53,-1.78 6.41,-3.1 0.88,-1.32 1.29,-3.27 2,-4.24 0.71,-0.97 2.36,-2 2.75,-3.16 a 7.15,7.15 0 0 0 -0.34,-3.1 c -0.27,-1.05 -0.57,-2.19 -0.92,-2.1 0,0.13 0,0.65 0,0.65 a 4.78,4.78 0 0 1 -3,1 c -0.87,0.03 -2.97,-0.14 -2.96,-0.8 z"
      style="fill:#37474f"
      id="path211" />
    <path
      d="m 337,292.22 c -0.31,0 -0.56,0.44 -1.23,1.17 a 12.85,12.85 0 0 1 -3.48,2.5 c -2.21,1.11 -6.5,2.81 -8.45,3.69 -1.22,0.55 -1.16,2 0.1,2.85 1.26,0.85 4.29,1.44 7.93,0.62 2,-0.44 4.57,-2.27 6.2,-2.18 1.63,0.09 4.69,0.08 5.9,-0.75 1.21,-0.83 0.72,-2.61 0.38,-4.14 -0.34,-1.53 -0.9,-4.21 -1.45,-4.1 v 0.53 c -0.71,1.07 -4.33,1.51 -5.89,0.72 z"
      style="fill:#37474f"
      id="path213" />
  </g>
  <g
    id="freepik--character-1--inject-2"
    transform="translate(-56.312208,-79.239052)">
    <path
      d="m 81.31,288.63 3.69,5.13 a 12.39,12.39 0 0 1 -5.37,1.14 c -3.3,0.13 -4.21,-1 -4.33,-1.22 -0.56,-1.19 0.31,-3.35 0.55,-5.21 z"
      style="fill:#37474f"
      id="path216" />
    <path
      d="m 75.3,283.47 c 0,0 0.56,4.66 0.6,5.66 0.04,1 4.55,1.33 5.41,-0.5 l 0.13,-5.7 z"
      style="fill:#f28f8f"
      id="path218" />
    <path
      d="m 75.3,191.66 c -3.08,4.8 -6,9 -6.64,14.42 -1.32,11.39 3,24.41 3.93,32.83 a 15.3,15.3 0 0 0 -2.91,8.23 c 0,3.48 5.62,36.33 5.62,36.33 0,0 4.08,1.25 6.14,-0.54 l 3.86,-60.43 -2,-7.36 z"
      style="fill:#b249f8"
      id="path220" />
    <path
      d="m 75.3,191.66 c -3.08,4.8 -6,9 -6.64,14.42 -1.32,11.39 3,24.41 3.93,32.83 a 15.3,15.3 0 0 0 -2.91,8.23 c 0,3.48 5.62,36.33 5.62,36.33 0,0 4.08,1.25 6.14,-0.54 l 3.86,-60.43 -2,-7.36 z"
      style="opacity:0.5;fill:#ffffff"
      id="path222" />
    <polygon
      points="103.77,169.15 124.08,178.9 111.89,206.31 92.95,195.38 "
      style="fill:#b249f8"
      id="polygon224" />
    <polygon
      points="121.69,179.4 111.17,202.76 96.59,194.36 104.86,171.37 "
      style="fill:#b249f8"
      id="polygon226" />
    <polygon
      points="104.86,171.37 121.69,179.4 110.33,203.01 94.41,193.92 "
      style="fill:#ffffff"
      id="polygon228" />
    <path
      d="m 108.52,174.75 0.39,-0.84 c 0.22,-0.46 1.61,-0.27 3.11,0.44 l 2.87,1.36 c 1.5,0.7 2.53,1.66 2.32,2.12 l -0.4,0.84 z"
      style="fill:#e0e0e0"
      id="path230" />
    <path
      d="m 68.41,179 c -1.48,4.22 -4.41,10.92 -3.47,12.27 0.94,1.35 6.58,1.06 9.72,0.94 4,-0.15 7.32,-0.31 7.32,-0.31 l -0.67,-7 h -5.68 l 2.5,-7.08 z"
      style="fill:#f28f8f"
      id="path232" />
    <path
      d="m 74.1,164 c -2.07,3.4 -6.25,15.4 -6.25,15.4 a 8.51,8.51 0 0 0 4.41,2.65 9,9 0 0 0 4.6,0.18 l 4.62,-11.5 z"
      style="fill:#b249f8"
      id="path234" />
    <path
      d="m 74.1,164 c -2.07,3.4 -6.25,15.4 -6.25,15.4 a 8.51,8.51 0 0 0 4.41,2.65 9,9 0 0 0 4.6,0.18 l 4.62,-11.5 z"
      style="opacity:0.4"
      id="path236" />
    <path
      d="m 94.77,166.14 c 3.63,1.09 5.84,1.28 9.85,7.45 4.01,6.17 12.79,18.41 13.66,19.88 1.21,2 1.73,4.48 0.69,6.36 -1.04,1.88 -3.81,1 -7.79,-2.51 C 107.2,193.81 99.7,184.4 99.7,184.4 c 0,0 -7.82,-8.81 -4.93,-18.26 z"
      style="fill:#ffa8a7"
      id="path238" />
    <polygon
      points="91.87,158.14 90.89,166.81 82.33,167.8 83.57,156.29 "
      style="fill:#ffa8a7"
      id="polygon240" />
    <path
      d="m 73.56,145.47 c 0.71,-8 5,-11.31 8.41,-12.1 6.77,-1.6 12.81,0.86 15.55,5.61 0.72,1.25 1.93,5.93 -0.48,8.69 -2.41,2.76 -23.48,-2.2 -23.48,-2.2"
      style="fill:#263238"
      id="path242" />
    <path
      d="m 98.19,148.29 c 0,0 1.78,3 1.51,3.34 a 4.67,4.67 0 0 1 -1.53,0.56 z"
      style="fill:#f28f8f"
      id="path244" />
    <path
      d="m 92.79,138.64 c 1.84,1.09 5,3.08 5.43,10.08 0.45,7.19 -0.92,9.4 -2,10.28 -0.69,0.6 -4.23,0.4 -6,-0.25 -2.17,-0.82 -7,-3.05 -9.08,-6.87 -2.4,-4.49 -2.61,-10.3 0.57,-12.39 a 11.41,11.41 0 0 1 11.08,-0.85 z"
      style="fill:#ffa8a7"
      id="path246" />
    <path
      d="m 93.33,139 c 0,0 1.27,6.61 -0.93,10.61 0,0 -1,-2.61 -3.24,-2 -2.24,0.61 -2.21,3.55 -0.56,5.15 a 3.28,3.28 0 0 0 3.37,0.92 9.78,9.78 0 0 1 -2.74,5.44 12.7,12.7 0 0 1 -12.78,-4.44 c -5,-5.94 -3.69,-16 4.24,-18.16 7.93,-2.16 12.64,2.48 12.64,2.48 z"
      style="fill:#263238"
      id="path248" />
    <path
      d="m 84.79,291.3 c 0,0 4.48,-0.29 7.57,-0.68 3.09,-0.39 5.54,1.12 4.81,2.4 -0.73,1.28 -2.43,2.33 -5.08,3.22 -2.27,0.77 -5,1.32 -7.36,2 -2.36,0.68 -4,1.56 -5.37,1.09 -1.53,-0.53 -2.19,-1.14 -2.06,-2.26 a 48.54,48.54 0 0 1 1.24,-4.72 z"
      style="fill:#37474f"
      id="path250" />
    <path
      d="m 79.84,286.34 -1.61,7.07 c 0,0 -0.15,0.86 3.53,1.41 3.68,0.55 9.46,-1.92 10.45,-2.43 0.99,-0.51 1.1,-1.5 -2.52,-1.3 -3.62,0.2 -4.9,0.21 -4.9,0.21 L 86,288.16 Z"
      style="fill:#ffa8a7"
      id="path252" />
    <path
      d="m 85.3,222.5 -2,-7.36 a 49.13,49.13 0 0 1 -11,-4.37 c 0,0 2.08,3.79 8,5.86 l 3.11,9.46 0.27,21.64 z"
      style="fill:#b249f8"
      id="path254" />
    <path
      d="m 75.3,191.66 c -1.65,2.69 -5.59,7.3 -4.76,11.72 1,5.37 3.91,9.13 12.73,11.76 l 8.28,30 c 0,0 -4.31,4 -5.63,7.87 -1.32,3.87 -6.08,33.36 -6.08,33.36 0,0 1.47,2.4 6.12,1.82 0,0 16.21,-37 17.36,-39.41 a 12,12 0 0 0 1.37,-8 c -0.51,-3.89 -6,-46.36 -6,-46.36 z"
      style="fill:#b249f8"
      id="path256" />
    <path
      d="m 75.3,191.66 c -1.65,2.69 -5.59,7.3 -4.76,11.72 1,5.37 3.91,9.13 12.73,11.76 l 8.28,30 c 0,0 -4.31,4 -5.63,7.87 -1.32,3.87 -6.08,33.36 -6.08,33.36 0,0 1.47,2.4 6.12,1.82 0,0 16.21,-37 17.36,-39.41 a 12,12 0 0 0 1.37,-8 c -0.51,-3.89 -6,-46.36 -6,-46.36 z"
      style="opacity:0.5;fill:#ffffff"
      id="path258" />
    <path
      d="m 73.8,164.62 c 0.64,-1.7 2.68,-3.12 4.52,-2.62 5.77,1.57 14.74,3.64 16.45,4.14 v 0 c 0,0 -0.76,13 5.88,16.88 -0.31,2.47 -2,11.33 -2,11.33 0,0 -8,3.88 -14.56,2 -6.56,-1.88 -8.79,-4.66 -8.79,-4.66 l 3.29,-5.36 c -0.7,-1.75 -3.42,-7.66 -5.17,-13.16 a 16.17,16.17 0 0 1 0.38,-8.55 z"
      style="fill:#b249f8"
      id="path260" />
    <path
      d="m 73.8,164.62 c 0.64,-1.7 2.68,-3.12 4.52,-2.62 5.77,1.57 14.74,3.64 16.45,4.14 v 0 c 0,0 -0.76,13 5.88,16.88 -0.31,2.47 -2,11.33 -2,11.33 0,0 -8,3.88 -14.56,2 -6.56,-1.88 -8.79,-4.66 -8.79,-4.66 l 3.29,-5.36 c -0.7,-1.75 -3.42,-7.66 -5.17,-13.16 a 16.17,16.17 0 0 1 0.38,-8.55 z"
      style="opacity:0.2"
      id="path262" />
    <path
      d="m 77.69,184.19 a 57.64,57.64 0 0 0 8.57,4.23 16.06,16.06 0 0 1 -7.67,-2.12 z"
      style="opacity:0.25;fill:#b249f8"
      id="path264" />
    <path
      d="m 79.39,135.15 c 0,0 -2.74,-4.67 -9.45,-3.46 -6.71,1.21 -9.43,8.33 -9.33,12.84 0.1,4.51 1.61,7.66 -2.43,13 a 9.23,9.23 0 0 0 2.87,13.63 c 5.39,3 6.7,-2.22 5.45,-6.68 -1.44,-5.11 3.91,-6 5.34,-9.87 1.43,-3.87 -1.38,-12 0.42,-14.76 2,-3 4.7,-2.58 6,-1.56 z"
      style="fill:#263238"
      id="path266" />
    <path
      d="m 94.77,166.14 a 28.05,28.05 0 0 1 5.23,1.66 c 2.2,1.08 10.78,14.55 10.78,14.55 0,0 -0.61,5.07 -7.63,7.08 L 99,184.19 c 0,0 -6.1,-9.11 -4.23,-18.05 z"
      style="fill:#b249f8"
      id="path268" />
    <path
      d="m 94.77,166.14 a 28.05,28.05 0 0 1 5.23,1.66 c 2.2,1.08 10.78,14.55 10.78,14.55 0,0 -0.61,5.07 -7.63,7.08 L 99,184.19 c 0,0 -6.1,-9.11 -4.23,-18.05 z"
      style="opacity:0.1"
      id="path270" />
    <path
      d="m 100.22,185.77 a 21,21 0 0 1 -4.09,-7.34 c 0,0 0,5.82 3.83,8.83 z"
      style="fill:#b249f8"
      id="path272" />
    <path
      d="m 100.22,185.77 a 21,21 0 0 1 -4.09,-7.34 c 0,0 0,5.82 3.83,8.83 z"
      style="opacity:0.4"
      id="path274" />
    <path
      d="m 109.25,171.13 c 0.13,-0.29 0.74,-0.27 1.36,0 l 1.12,0.55 c 0,0 0.87,-1.81 3.47,-0.72 2.6,1.09 1.8,3.18 1.8,3.18 l 1.19,0.61 c 0.66,0.33 1.1,0.84 1,1.14 l -0.2,0.53 -10,-4.8 z"
      style="fill:#455a64"
      id="path276" />
    <path
      d="m 110.27,172.27 c 0.94,0.42 1.3,0.62 1,1.34 -0.3,0.72 -0.73,1.41 -0.73,1.41 l 4.42,2.12 c 0,0 0.47,-1 0.67,-1.44 0.2,-0.44 0.56,-0.61 1.26,-0.27 l 0.3,-0.3 -7,-3.25 z"
      style="fill:#455a64"
      id="path278" />
    <path
      d="m 108.44,174.5 0.4,-0.84 c 0.22,-0.47 1.61,-0.27 3.11,0.44 l 2.87,1.36 c 1.49,0.7 2.53,1.65 2.31,2.12 l -0.4,0.84 z"
      style="fill:#455a64"
      id="path280" />
  </g>

  <animate
    href="#path146"
    repeatCount="indefinite"
    attributeName="d"
    from="m 162.66,194 v -77.78 a 1.91,1.91 0 0 0 -0.86,-1.5 l -10.46,-6 c -0.47,-0.28 -0.86,0 -0.86,0.5 v 77.74 a 1.94,1.94 0 0 0 0.86,1.5 l 10.46,6 c 0.48,0.28 0.86,0.05 0.86,-0.46 z"
    to="m 162.66,184 v -77.78 a 1.91,1.91 0 0 0 -0.86,-1.5 l -10.46,-6 c -0.47,-0.28 -0.86,0 -0.86,0.5 v 90.74 a 1.94,1.94 0 0 0 0.86,1.5 l 10.46,6 c 0.48,0.08 0.86,0.05 0.86,-0.46 z"
    dur="5s"
    fill="freeze"
  />

  <animate
    href="#path142"
    repeatCount="indefinite"
    attributeName="d"
    from="M 183,205.69 V 151.4 a 1.92,1.92 0 0 0 -0.87,-1.5 l -10.46,-6 c -0.47,-0.28 -0.86,-0.06 -0.86,0.5 v 54.28 a 1.92,1.92 0 0 0 0.86,1.5 l 10.46,6 c 0.46,0.28 0.87,0.06 0.87,-0.49 z"
    to="M 183,205.69 V 141.4 a 1.92,1.92 0 0 0 -0.87,-1.5 l -10.46,-6 c -0.47,-0.28 -0.86,-0.06 -0.86,0.5 v 64.28 a 1.92,1.92 0 0 0 0.86,1.5 l 10.46,6 c 0.46,0.28 0.87,0.06 0.87,-0.49 z"
    dur="5s"
    fill="freeze"
  />

  <animate
    href="#path140"
    repeatCount="indefinite"
    attributeName="d"
    from="M 183,205.69 V 151.4 a 1.92,1.92 0 0 0 -0.87,-1.5 l -10.46,-6 c -0.47,-0.28 -0.86,-0.06 -0.86,0.5 v 54.28 a 1.92,1.92 0 0 0 0.86,1.5 l 10.46,6 c 0.46,0.28 0.87,0.06 0.87,-0.49 z"
    to="M 183,205.69 V 141.4 a 1.92,1.92 0 0 0 -0.87,-1.5 l -10.46,-6 c -0.47,-0.28 -0.86,-0.06 -0.86,0.5 v 64.28 a 1.92,1.92 0 0 0 0.86,1.5 l 10.46,6 c 0.46,0.28 0.87,0.06 0.87,-0.49 z"
    dur="5s"
    fill="freeze"
  />


  <animate
    href="#path134"
    repeatCount="indefinite"
    attributeName="d"
    from="m 203.29,217.41 v -35.52 a 1.92,1.92 0 0 0 -0.87,-1.5 l -10.46,-6 c -0.47,-0.27 -0.86,0 -0.86,0.5 v 35.53 a 1.94,1.94 0 0 0 0.86,1.5 l 10.46,6 c 0.48,0.27 0.87,0.08 0.87,-0.51 z"
    to="m 203.29,217.41 v -25.52 a 1.92,1.92 0 0 0 -0.87,-1.5 l -10.46,-6 c -0.47,-0.27 -0.86,0 -0.86,0.5 v 25.53 a 1.94,1.94 0 0 0 0.86,1.5 l 10.46,6 c 0.48,0.27 0.87,0.08 0.87,-0.51 z"
    dur="5s"
    fill="freeze"
  />

  <animate
    href="#path128"
    repeatCount="indefinite"
    attributeName="d"
    from="m 223.6,229.14 v -68.36 a 1.92,1.92 0 0 0 -0.87,-1.5 l -10.45,-6 c -0.48,-0.28 -0.87,-0.06 -0.87,0.5 v 68.32 a 1.89,1.89 0 0 0 0.87,1.5 l 10.45,6 c 0.48,0.32 0.87,0.09 0.87,-0.46 z"
    to="m 223.6,229.14 v -58.36 a 1.92,1.92 0 0 0 -0.87,-1.5 l -10.45,-6 c -0.48,-0.28 -0.87,-0.06 -0.87,0.5 v 58.32 a 1.89,1.89 0 0 0 0.87,1.5 l 10.45,6 c 0.48,0.32 0.87,0.09 0.87,-0.46 z"
    dur="5s"
    fill="freeze"
  />

  <animate
    href="#path130"
    repeatCount="indefinite"
    attributeName="d"
    from="m 223.6,229.14 v -68.36 a 1.92,1.92 0 0 0 -0.87,-1.5 l -10.45,-6 c -0.48,-0.28 -0.87,-0.06 -0.87,0.5 v 68.32 a 1.89,1.89 0 0 0 0.87,1.5 l 10.45,6 c 0.48,0.32 0.87,0.09 0.87,-0.46 z"
    to="m 223.6,229.14 v -58.36 a 1.92,1.92 0 0 0 -0.87,-1.5 l -10.45,-6 c -0.48,-0.28 -0.87,-0.06 -0.87,0.5 v 58.32 a 1.89,1.89 0 0 0 0.87,1.5 l 10.45,6 c 0.48,0.32 0.87,0.09 0.87,-0.46 z"
    dur="5s"
    fill="freeze"
  />
</svg>
