<svg width="500" height="500" viewBox="0 0 500 500" fill="none" xmlns="http://www.w3.org/2000/svg">
  <path
    d="M88 384C177.46 430.74 322.52 430.74 412 384C501.48 337.26 501.47 261.48 412 214.74C322.53 168 177.48 168 88 214.74C-1.48004 261.48 -1.46004 337.3 88 384Z"
    fill="#5D5D5D" />
  <path
    d="M82.9199 305.81C95.6114 305.81 105.9 300.908 105.9 294.86C105.9 288.812 95.6114 283.91 82.9199 283.91C70.2284 283.91 59.9399 288.812 59.9399 294.86C59.9399 300.908 70.2284 305.81 82.9199 305.81Z"
    fill="#5D5D5D" />
  <path
    d="M345.16 320.43C362.098 320.43 375.83 313.884 375.83 305.81C375.83 297.736 362.098 291.19 345.16 291.19C328.221 291.19 314.49 297.736 314.49 305.81C314.49 313.884 328.221 320.43 345.16 320.43Z"
    fill="#5D5D5D" />
  <path
    d="M436.85 245.66C436.85 245.66 439.22 238.34 446.93 230.54C450.33 227.1 452.55 224.7 451.84 222.65C451.2 220.84 449.04 219.9 445.95 221.36C441.56 223.44 438.6 227.3 436.85 235.05V245.66Z"
    fill="#FF0080" />
  <path opacity="0.1"
    d="M436.85 245.66C436.85 245.66 439.22 238.34 446.93 230.54C450.33 227.1 452.55 224.7 451.84 222.65C451.2 220.84 449.04 219.9 445.95 221.36C441.56 223.44 438.6 227.3 436.85 235.05V245.66Z"
    fill="black" />
  <path
    d="M436.36 241.06H436.27C436.173 241.034 436.091 240.971 436.041 240.885C435.99 240.799 435.975 240.697 436 240.6C438.75 229.98 445.86 223.4 448.87 221.88C448.96 221.838 449.064 221.831 449.159 221.863C449.254 221.895 449.333 221.962 449.38 222.05C449.422 222.139 449.428 222.241 449.396 222.334C449.364 222.428 449.297 222.505 449.21 222.55C446.3 224.02 439.41 230.42 436.73 240.79C436.706 240.869 436.657 240.938 436.59 240.987C436.523 241.036 436.442 241.061 436.36 241.06Z"
    fill="white" />
  <path
    d="M436.85 254.75C436.85 254.75 440.14 248.3 444.11 244.87C448.08 241.44 453.18 237.94 448.86 235.26C444.54 232.58 437.43 237.84 436.86 243.03L436.85 254.75Z"
    fill="#FF0080" />
  <path
    d="M436.36 250.16H436.28C436.184 250.136 436.101 250.076 436.049 249.992C435.996 249.908 435.979 249.807 436 249.71C437.87 241.71 444.58 237.19 446.81 236.44C446.902 236.421 446.998 236.437 447.079 236.484C447.16 236.531 447.221 236.607 447.249 236.696C447.278 236.786 447.272 236.883 447.234 236.968C447.195 237.054 447.126 237.122 447.04 237.16C445.04 237.84 438.5 242.29 436.73 249.88C436.708 249.961 436.66 250.032 436.593 250.083C436.526 250.134 436.444 250.161 436.36 250.16Z"
    fill="white" />
  <path
    d="M144.39 319.58C144.39 319.58 142.87 316.2 136.52 314.77C130.34 313.38 127.27 314.77 123.1 314.05C118.93 313.33 120.02 305.54 131.24 306.35C141.51 307.09 144.39 315.17 144.39 315.17V319.58Z"
    fill="#FF0080" />
  <path
    d="M145 317.72C144.927 317.718 144.857 317.696 144.796 317.655C144.736 317.614 144.689 317.557 144.66 317.49C143.66 315.1 139.96 311.2 134.75 310.01C128.28 308.54 124.84 310.01 124.81 310.01C124.721 310.04 124.623 310.036 124.537 309.998C124.45 309.96 124.381 309.892 124.342 309.806C124.303 309.72 124.298 309.622 124.327 309.532C124.356 309.443 124.418 309.367 124.5 309.32C124.65 309.26 128.21 307.71 134.91 309.24C140.7 310.56 144.39 314.8 145.35 317.17C145.37 317.215 145.38 317.264 145.381 317.313C145.381 317.363 145.372 317.411 145.353 317.457C145.335 317.503 145.307 317.544 145.272 317.579C145.237 317.614 145.196 317.641 145.15 317.66L145 317.72Z"
    fill="white" />
  <path
    d="M144.39 315.73C143.124 313.463 141.504 311.414 139.59 309.66C133.59 303.84 125.59 302.01 121.59 298.83C117.19 295.4 122.52 291.44 128.18 291.69C131.42 291.84 134.84 293.98 136.72 295.52C143.34 300.93 144.43 309.66 144.43 309.66L144.39 315.73Z"
    fill="#FF0080" />
  <path opacity="0.5"
    d="M144.39 315.73C143.124 313.463 141.504 311.414 139.59 309.66C133.59 303.84 125.59 302.01 121.59 298.83C117.19 295.4 122.52 291.44 128.18 291.69C131.42 291.84 134.84 293.98 136.72 295.52C143.34 300.93 144.43 309.66 144.43 309.66L144.39 315.73Z"
    fill="white" />
  <path
    d="M145 315.14C144.91 315.139 144.824 315.106 144.757 315.047C144.689 314.989 144.644 314.908 144.63 314.82C143.842 310.616 141.935 306.702 139.11 303.49C134.39 298.12 126.32 295.24 126.23 295.21C126.139 295.176 126.064 295.108 126.021 295.021C125.978 294.933 125.971 294.833 126 294.74C126.016 294.693 126.041 294.649 126.073 294.612C126.106 294.575 126.146 294.545 126.191 294.523C126.236 294.502 126.285 294.489 126.334 294.487C126.384 294.485 126.433 294.493 126.48 294.51C126.82 294.62 134.82 297.51 139.67 302.99C142.611 306.304 144.586 310.361 145.38 314.72C145.387 314.769 145.384 314.82 145.371 314.868C145.358 314.916 145.335 314.961 145.304 315C145.274 315.04 145.235 315.072 145.191 315.096C145.148 315.12 145.1 315.135 145.05 315.14H145Z"
    fill="white" />
  <path
    d="M281.63 377.88C281.63 377.88 283.33 374.58 289.75 373.49C295.99 372.43 298.98 373.94 303.19 373.49C307.4 373.04 306.72 365.15 295.47 365.36C285.18 365.55 281.87 373.46 281.87 373.46L281.63 377.88Z"
    fill="#FF0080" />
  <path opacity="0.1"
    d="M281.63 377.88C281.63 377.88 283.33 374.58 289.75 373.49C295.99 372.43 298.98 373.94 303.19 373.49C307.4 373.04 306.72 365.15 295.47 365.36C285.18 365.55 281.87 373.46 281.87 373.46L281.63 377.88Z"
    fill="black" />
  <path
    d="M281.14 376.3C281.061 376.297 280.985 376.273 280.92 376.23C280.879 376.202 280.845 376.166 280.818 376.125C280.792 376.084 280.774 376.037 280.766 375.989C280.757 375.94 280.759 375.891 280.77 375.843C280.781 375.795 280.801 375.75 280.83 375.71C283.22 372.29 287.57 369.71 292.48 368.85C298.79 367.72 302.48 369.72 302.64 369.85C302.682 369.874 302.72 369.905 302.75 369.944C302.781 369.982 302.803 370.026 302.817 370.072C302.83 370.119 302.834 370.168 302.829 370.217C302.823 370.265 302.808 370.312 302.785 370.355C302.761 370.398 302.729 370.435 302.691 370.466C302.653 370.496 302.609 370.519 302.562 370.532C302.515 370.546 302.466 370.55 302.418 370.544C302.369 370.539 302.322 370.524 302.28 370.5C302.28 370.5 298.65 368.55 292.61 369.63C287.9 370.47 283.72 372.92 281.45 376.18C281.41 376.221 281.361 376.253 281.308 376.274C281.254 376.294 281.197 376.303 281.14 376.3Z"
    fill="white" />
  <path
    d="M282.08 373.25C283.532 371.423 285.182 369.763 287 368.3C293.33 362.82 301.34 361.93 305.58 358.97C310.16 355.78 305.05 351.54 299.38 351.49C296.14 351.49 292.61 353.42 290.64 354.86C286.442 358.005 283.302 362.355 281.64 367.33L282.08 373.25Z"
    fill="#FF0080" />
  <path opacity="0.5"
    d="M282.08 373.25C283.532 371.423 285.182 369.763 287 368.3C293.33 362.82 301.34 361.93 305.58 358.97C310.16 355.78 305.05 351.54 299.38 351.49C296.14 351.49 292.61 353.42 290.64 354.86C286.442 358.005 283.302 362.355 281.64 367.33L282.08 373.25Z"
    fill="white" />
  <path
    d="M281.14 373.17H281C280.908 373.136 280.833 373.069 280.788 372.982C280.744 372.895 280.734 372.794 280.76 372.7C282.323 368.408 284.792 364.502 288 361.25C291.479 357.662 295.999 355.258 300.92 354.38C300.968 354.373 301.017 354.376 301.064 354.388C301.111 354.401 301.155 354.423 301.193 354.452C301.231 354.482 301.263 354.52 301.287 354.562C301.31 354.605 301.325 354.652 301.33 354.7C301.337 354.749 301.334 354.8 301.321 354.848C301.308 354.896 301.285 354.941 301.254 354.98C301.224 355.02 301.185 355.052 301.141 355.076C301.098 355.1 301.049 355.115 301 355.12C296.262 356.019 291.912 358.343 288.53 361.78C285.423 364.943 283.035 368.74 281.53 372.91C281.503 372.991 281.45 373.06 281.38 373.107C281.309 373.154 281.225 373.177 281.14 373.17Z"
    fill="white" />
  <path
    d="M185 320.42V244.87H144.39V320.43C144.39 323.43 146.39 326.43 150.39 328.71C158.32 333.29 171.18 333.29 179.11 328.71C183.11 326.42 185.05 323.43 185.06 320.43L185 320.42Z"
    fill="#37474F" />
  <path
    d="M150.34 253.67C142.4 249.09 142.4 241.67 150.34 237.08C158.28 232.49 171.13 232.5 179.06 237.08C186.99 241.66 186.99 249.08 179.06 253.67C171.13 258.26 158.27 258.24 150.34 253.67Z"
    fill="#455A64" />
  <path
    d="M233.75 348.57V293.57H193.13V348.57C193.13 351.57 195.13 354.57 199.13 356.85C207.06 361.43 219.92 361.43 227.85 356.85C231.85 354.57 233.8 351.57 233.8 348.57H233.75Z"
    fill="#37474F" />
  <path
    d="M199.08 302.38C191.15 297.8 191.15 290.38 199.08 285.79C207.01 281.2 219.87 281.21 227.8 285.79C235.73 290.37 235.74 297.79 227.8 302.38C219.86 306.97 207 307 199.08 302.38Z"
    fill="#455A64" />
  <path
    d="M282.5 376.71V334H241.88V376.72C241.88 379.72 243.88 382.72 247.88 385.01C255.81 389.59 268.67 389.59 276.6 385.01C280.6 382.72 282.54 379.72 282.55 376.72L282.5 376.71Z"
    fill="#37474F" />
  <path
    d="M262.19 346.22C273.407 346.22 282.5 340.968 282.5 334.49C282.5 328.012 273.407 322.76 262.19 322.76C250.973 322.76 241.88 328.012 241.88 334.49C241.88 340.968 250.973 346.22 262.19 346.22Z"
    fill="#455A64" />
  <path
    d="M141.79 347.06L132.2 341.53L137.51 334.65C138.19 333.77 137.87 333.29 136.8 333.56L124.08 336.84L114.49 331.3C113.685 330.891 112.794 330.677 111.89 330.677C110.987 330.677 110.096 330.891 109.29 331.3L94.1801 340C92.7401 340.83 92.7401 342.17 94.1801 343L121.48 358.76C122.286 359.169 123.177 359.383 124.08 359.383C124.984 359.383 125.875 359.169 126.68 358.76L141.79 350.03C143.22 349.23 143.22 347.89 141.79 347.06Z"
    fill="#FF0080" />
  <path
    d="M194.61 377.54L185 372L190.31 365.13C190.98 364.25 190.66 363.76 189.59 364.04L176.87 367.31L167.28 361.78C166.476 361.371 165.587 361.158 164.685 361.158C163.783 361.158 162.894 361.371 162.09 361.78L147 370.5C145.57 371.33 145.57 372.68 147 373.5L174.3 389.27C175.107 389.675 175.997 389.885 176.9 389.885C177.803 389.885 178.693 389.675 179.5 389.27L194.61 380.54C196.05 379.71 196.05 378.37 194.61 377.54Z"
    fill="#FF0080" />
  <path
    d="M247.39 408L237.8 402.47L243.12 395.58C243.79 394.71 243.47 394.22 242.4 394.5L229.68 397.77L220.09 392.24C219.284 391.831 218.394 391.617 217.49 391.617C216.586 391.617 215.696 391.831 214.89 392.24L199.78 401C198.35 401.83 198.35 403.18 199.78 404L227.08 419.77C227.887 420.175 228.777 420.385 229.68 420.385C230.583 420.385 231.473 420.175 232.28 419.77L247.39 411C248.83 410.2 248.83 408.86 247.39 408Z"
    fill="#FF0080" />
  <path d="M384.05 243.03L367.8 233.65V186.74L384.05 196.12V243.03Z" fill="#37474F" />
  <path d="M384.05 243.03L400.3 233.65V186.74L384.05 196.12V243.03Z" fill="#455A64" />
  <path d="M367.8 186.74L384.05 196.12L400.3 186.74L384.05 177.36L367.8 186.74Z" fill="#455A64" />
  <path d="M347.49 221.92L331.24 212.54V118.73L347.49 128.11V221.92Z" fill="#37474F" />
  <path d="M347.49 221.92L363.74 212.54V118.73L347.49 128.11V221.92Z" fill="#455A64" />
  <path d="M331.24 118.73L347.49 128.11L363.74 118.73L347.49 109.35L331.24 118.73Z" fill="#455A64" />
  <path d="M310.93 200.81L294.68 191.43V158.6L310.93 167.98V200.81Z" fill="#37474F" />
  <path d="M310.93 200.81L327.18 191.43V158.6L310.93 167.98V200.81Z" fill="#455A64" />
  <path d="M294.68 158.6L310.93 167.98L327.18 158.6L310.93 149.22L294.68 158.6Z" fill="#455A64" />
  <path d="M420.61 264.14L404.36 254.75V165.64L420.6 175.02L420.61 264.14Z" fill="#37474F" />
  <path d="M420.6 264.14L436.85 254.75V165.64L420.6 175.02V264.14Z" fill="#455A64" />
  <path d="M404.36 165.64L420.6 175.02L436.85 165.64L420.61 156.25L404.36 165.64Z" fill="#455A64" />
  <g opacity="0.3">
    <path
      d="M307 257.33L306.83 153.45C306.795 152.849 306.619 152.264 306.317 151.743C306.015 151.222 305.594 150.779 305.09 150.45L182.53 80C181.53 79.45 180.8 79.9 180.8 81L181 184.84C181.033 185.442 181.207 186.027 181.51 186.549C181.812 187.07 182.234 187.513 182.74 187.84L305.31 258.34C306.24 258.89 307 258.44 307 257.33Z"
      fill="white" />
  </g>
  <path
    d="M306.06 259.07C305.707 259.056 305.363 258.953 305.06 258.77L182.49 188.27C181.905 187.902 181.418 187.398 181.069 186.8C180.721 186.203 180.522 185.531 180.49 184.84L180.3 81C180.258 80.6955 180.308 80.3854 180.443 80.1091C180.578 79.8329 180.792 79.603 181.057 79.4486C181.323 79.2943 181.629 79.2224 181.936 79.2423C182.242 79.2621 182.536 79.3727 182.78 79.56L305.35 150C305.934 150.37 306.42 150.874 306.769 151.471C307.117 152.068 307.316 152.74 307.35 153.43L307.52 257.31C307.544 257.613 307.487 257.917 307.356 258.191C307.224 258.465 307.022 258.699 306.77 258.87C306.556 258.999 306.31 259.068 306.06 259.07ZM181.76 80.22C181.695 80.2026 181.626 80.2026 181.56 80.22C181.462 80.3041 181.388 80.4113 181.342 80.5318C181.297 80.6524 181.282 80.7824 181.3 80.91L181.47 184.79C181.498 185.316 181.652 185.827 181.918 186.281C182.184 186.735 182.555 187.118 183 187.4L305.57 257.9C305.87 258.07 306.13 258.12 306.29 258.02C306.45 257.92 306.55 257.68 306.55 257.33L306.38 153.45C306.348 152.938 306.198 152.44 305.941 151.996C305.684 151.552 305.328 151.173 304.9 150.89L182.28 80.39C182.124 80.29 181.945 80.2315 181.76 80.22Z"
    fill="#FF0080" />
  <path
    d="M295.36 234.41C292.11 232.1 290.21 230.01 288.92 213.95L288.81 212.58C287.6 197.49 286.81 187.53 279.93 183.42C276.63 181.42 273.99 183.42 271.2 185.59C268.67 187.52 266.07 189.5 263.14 187.83C257.99 184.83 257.14 178.89 255.54 168.05C255.34 166.71 255.14 165.3 254.91 163.82C254.56 161.51 254.26 159.36 253.98 157.34C252.4 145.96 251.44 139.08 245.62 135.57C245.047 135.164 244.387 134.897 243.692 134.791C242.998 134.685 242.288 134.743 241.62 134.96C237.21 136.5 233.76 145.83 230.11 155.72C229.83 156.45 229.56 157.22 229.27 157.99C226.62 165.28 223.62 173.55 219.47 175.08C218.883 175.295 218.256 175.374 217.634 175.312C217.012 175.249 216.413 175.047 215.88 174.72C211.75 172.38 211.01 165.98 210.3 159.78C209.59 153.58 208.9 147.35 205 145C204.669 144.786 204.291 144.657 203.899 144.624C203.506 144.591 203.112 144.655 202.75 144.81C197.91 146.69 193.62 161.01 193.58 161.15L192.58 160.87C192.76 160.26 197.05 145.94 202.34 143.87C202.845 143.661 203.393 143.576 203.938 143.623C204.483 143.67 205.008 143.847 205.47 144.14C209.78 146.72 210.53 153.29 211.26 159.64C211.99 165.99 212.65 171.74 216.35 173.83C216.754 174.086 217.211 174.246 217.686 174.296C218.161 174.346 218.642 174.286 219.09 174.12C222.8 172.75 225.85 164.37 228.3 157.63C228.59 156.85 228.86 156.09 229.14 155.35C233.04 144.8 236.41 135.69 241.26 133.99C242.064 133.729 242.917 133.658 243.753 133.781C244.589 133.904 245.385 134.219 246.08 134.7C252.3 138.46 253.29 145.51 254.91 157.19C255.19 159.19 255.49 161.35 255.84 163.65C256.07 165.14 256.27 166.55 256.47 167.88C258 178.42 258.85 184.22 263.58 186.94C265.93 188.29 268.06 186.66 270.53 184.78C273.33 182.64 276.53 180.23 280.38 182.54C287.69 186.92 288.51 197.09 289.74 212.48L289.85 213.85C291.17 230.23 293.15 231.63 295.85 233.58L295.36 234.41Z"
    fill="#FF0080" />
  <g opacity="0.4">
    <path
      d="M295.36 234.41C292.11 232.1 290.21 230.01 288.92 213.95L288.81 212.58C287.6 197.49 286.81 187.53 279.93 183.42C276.63 181.42 273.99 183.42 271.2 185.59C268.67 187.52 266.07 189.5 263.14 187.83C257.99 184.83 257.14 178.89 255.54 168.05C255.34 166.71 255.14 165.3 254.91 163.82C254.56 161.51 254.26 159.36 253.98 157.34C252.4 145.96 251.44 139.08 245.62 135.57C245.047 135.164 244.387 134.897 243.692 134.791C242.998 134.685 242.288 134.743 241.62 134.96C237.21 136.5 233.76 145.83 230.11 155.72C229.83 156.45 229.56 157.22 229.27 157.99C226.62 165.28 223.62 173.55 219.47 175.08C218.883 175.295 218.256 175.374 217.634 175.312C217.012 175.249 216.413 175.047 215.88 174.72C211.75 172.38 211.01 165.98 210.3 159.78C209.59 153.58 208.9 147.35 205 145C204.669 144.786 204.291 144.657 203.899 144.624C203.506 144.591 203.112 144.655 202.75 144.81C197.91 146.69 193.62 161.01 193.58 161.15L192.58 160.87C192.76 160.26 197.05 145.94 202.34 143.87C202.845 143.661 203.393 143.576 203.938 143.623C204.483 143.67 205.008 143.847 205.47 144.14C209.78 146.72 210.53 153.29 211.26 159.64C211.99 165.99 212.65 171.74 216.35 173.83C216.754 174.086 217.211 174.246 217.686 174.296C218.161 174.346 218.642 174.286 219.09 174.12C222.8 172.75 225.85 164.37 228.3 157.63C228.59 156.85 228.86 156.09 229.14 155.35C233.04 144.8 236.41 135.69 241.26 133.99C242.064 133.729 242.917 133.658 243.753 133.781C244.589 133.904 245.385 134.219 246.08 134.7C252.3 138.46 253.29 145.51 254.91 157.19C255.19 159.19 255.49 161.35 255.84 163.65C256.07 165.14 256.27 166.55 256.47 167.88C258 178.42 258.85 184.22 263.58 186.94C265.93 188.29 268.06 186.66 270.53 184.78C273.33 182.64 276.53 180.23 280.38 182.54C287.69 186.92 288.51 197.09 289.74 212.48L289.85 213.85C291.17 230.23 293.15 231.63 295.85 233.58L295.36 234.41Z"
      fill="black" />
  </g>
  <path
    d="M278.45 179C279.194 179.487 279.813 180.142 280.26 180.911C280.706 181.68 280.966 182.542 281.02 183.43C281.02 185.06 279.87 185.72 278.46 184.91C277.713 184.426 277.091 183.773 276.644 183.003C276.198 182.233 275.939 181.369 275.89 180.48C275.89 178.89 277 178.23 278.45 179Z"
    fill="#FF0080" />
  <g opacity="0.2">
    <path
      d="M278.45 179C279.194 179.487 279.813 180.142 280.26 180.911C280.706 181.68 280.966 182.542 281.02 183.43C281.02 185.06 279.87 185.72 278.46 184.91C277.713 184.426 277.091 183.773 276.644 183.003C276.198 182.233 275.939 181.369 275.89 180.48C275.89 178.89 277 178.23 278.45 179Z"
      fill="black" />
  </g>
  <path
    d="M245.88 132.19C246.624 132.676 247.244 133.33 247.689 134.099C248.134 134.869 248.391 135.732 248.44 136.62C248.44 138.25 247.3 138.91 245.89 138.1C245.142 137.617 244.52 136.963 244.073 136.194C243.626 135.424 243.368 134.559 243.32 133.67C243.32 132 244.46 131.38 245.88 132.19Z"
    fill="#FF0080" />
  <g opacity="0.5">
    <path
      d="M245.88 132.19C246.624 132.676 247.244 133.33 247.689 134.099C248.134 134.869 248.391 135.732 248.44 136.62C248.44 138.25 247.3 138.91 245.89 138.1C245.142 137.617 244.52 136.963 244.073 136.194C243.626 135.424 243.368 134.559 243.32 133.67C243.32 132 244.46 131.38 245.88 132.19Z"
      fill="white" />
  </g>
  <path
    d="M205.27 141.64C206.017 142.121 206.64 142.772 207.087 143.541C207.533 144.309 207.791 145.173 207.84 146.06C207.84 147.7 206.7 148.36 205.28 147.55C204.536 147.064 203.916 146.41 203.472 145.64C203.027 144.871 202.769 144.007 202.72 143.12C202.71 141.49 203.86 140.82 205.27 141.64Z"
    fill="#FF0080" />
  <path opacity="0.65"
    d="M241.87 252.75V148.87C241.836 148.269 241.663 147.685 241.362 147.164C241.062 146.643 240.643 146.2 240.14 145.87L133.93 84.55C132.93 84 132.2 84.45 132.2 85.55V189.43C132.232 190.031 132.406 190.615 132.706 191.137C133.007 191.658 133.426 192.101 133.93 192.43L240.14 253.75C241.1 254.31 241.87 253.86 241.87 252.75Z"
    fill="white" />
  <path
    d="M240.92 254.49C240.567 254.476 240.223 254.373 239.92 254.19L133.68 192.87C133.096 192.498 132.61 191.991 132.262 191.393C131.915 190.794 131.715 190.121 131.68 189.43V85.55C131.64 85.2463 131.692 84.9377 131.828 84.6631C131.963 84.3886 132.177 84.1604 132.443 84.0074C132.708 83.8544 133.013 83.7835 133.318 83.8035C133.624 83.8235 133.917 83.9337 134.16 84.12L240.37 145.44C240.953 145.81 241.439 146.315 241.787 146.912C242.135 147.508 242.335 148.18 242.37 148.87V252.75C242.394 253.053 242.337 253.357 242.205 253.631C242.074 253.905 241.872 254.139 241.62 254.31C241.406 254.43 241.165 254.492 240.92 254.49ZM133.16 84.82C133.094 84.8031 133.026 84.8031 132.96 84.82C132.862 84.9041 132.787 85.0113 132.742 85.1318C132.697 85.2524 132.682 85.3824 132.7 85.51V189.43C132.731 189.944 132.881 190.443 133.138 190.889C133.395 191.335 133.751 191.715 134.18 192L240.39 253.32C240.492 253.4 240.612 253.452 240.74 253.473C240.867 253.494 240.998 253.483 241.12 253.44C241.28 253.35 241.37 253.1 241.37 252.75V148.87C241.339 148.358 241.19 147.859 240.933 147.415C240.676 146.971 240.319 146.592 239.89 146.31L133.68 85C133.527 84.8925 133.347 84.8302 133.16 84.82Z"
    fill="#FF0080" />
  <path
    d="M223.6 229.14V160.78C223.583 160.479 223.495 160.187 223.344 159.926C223.193 159.666 222.983 159.444 222.73 159.28L212.28 153.28C211.8 153 211.41 153.22 211.41 153.78V222.1C211.425 222.401 211.512 222.695 211.663 222.956C211.814 223.217 212.026 223.438 212.28 223.6L222.73 229.6C223.21 229.92 223.6 229.69 223.6 229.14Z"
    fill="#FF0080" />
  <g opacity="0.3">
    <path
      d="M223.6 229.14V160.78C223.583 160.479 223.495 160.187 223.344 159.926C223.193 159.666 222.983 159.444 222.73 159.28L212.28 153.28C211.8 153 211.41 153.22 211.41 153.78V222.1C211.425 222.401 211.512 222.695 211.663 222.956C211.814 223.217 212.026 223.438 212.28 223.6L222.73 229.6C223.21 229.92 223.6 229.69 223.6 229.14Z"
      fill="black" />
  </g>
  <path
    d="M203.29 217.41V181.89C203.273 181.589 203.185 181.297 203.034 181.036C202.883 180.776 202.673 180.554 202.42 180.39L191.96 174.39C191.49 174.12 191.1 174.39 191.1 174.89V210.42C191.118 210.719 191.205 211.011 191.354 211.271C191.503 211.531 191.711 211.753 191.96 211.92L202.42 217.92C202.9 218.19 203.29 218 203.29 217.41Z"
    fill="#FF0080" />
  <g opacity="0.2">
    <path
      d="M203.29 217.41V181.89C203.273 181.589 203.185 181.297 203.034 181.036C202.883 180.776 202.673 180.554 202.42 180.39L191.96 174.39C191.49 174.12 191.1 174.39 191.1 174.89V210.42C191.118 210.719 191.205 211.011 191.354 211.271C191.503 211.531 191.711 211.753 191.96 211.92L202.42 217.92C202.9 218.19 203.29 218 203.29 217.41Z"
      fill="white" />
  </g>
  <path
    d="M183 205.69V151.4C182.983 151.099 182.895 150.807 182.744 150.546C182.593 150.286 182.383 150.064 182.13 149.9L171.67 143.9C171.2 143.62 170.81 143.84 170.81 144.4V198.68C170.826 198.98 170.912 199.272 171.062 199.532C171.211 199.793 171.419 200.015 171.67 200.18L182.13 206.18C182.59 206.46 183 206.24 183 205.69Z"
    fill="#FF0080" />
  <g opacity="0.2">
    <path
      d="M183 205.69V151.4C182.983 151.099 182.895 150.807 182.744 150.546C182.593 150.286 182.383 150.064 182.13 149.9L171.67 143.9C171.2 143.62 170.81 143.84 170.81 144.4V198.68C170.826 198.98 170.912 199.272 171.062 199.532C171.211 199.793 171.419 200.015 171.67 200.18L182.13 206.18C182.59 206.46 183 206.24 183 205.69Z"
      fill="black" />
  </g>
  <path
    d="M162.66 194V116.22C162.645 115.92 162.559 115.628 162.409 115.367C162.26 115.106 162.051 114.885 161.8 114.72L151.34 108.72C150.87 108.44 150.48 108.72 150.48 109.22V186.96C150.498 187.259 150.584 187.551 150.734 187.811C150.883 188.071 151.09 188.293 151.34 188.46L161.8 194.46C162.28 194.74 162.66 194.51 162.66 194Z"
    fill="#FF0080" />
  <path
    d="M378.63 206.43C378.49 205.68 374.82 197.14 373.31 193.78L365.66 197.36L368.59 204.07L376.51 210.2C377.281 209.965 377.931 209.442 378.326 208.74C378.721 208.038 378.83 207.21 378.63 206.43Z"
    fill="#FFA8A7" />
  <path d="M363.39 295.88H357.49V304.48H363.39V295.88Z" fill="#FFA8A7" />
  <path d="M342.606 285.258L336.71 285.461L337.006 294.056L342.902 293.853L342.606 285.258Z"
    fill="#FFA8A7" />
  <path
    d="M344.08 172.72C341.945 172.77 339.857 173.359 338.011 174.432C336.164 175.506 334.619 177.029 333.52 178.86C330.26 183.71 324.52 192 324.52 192L335.27 195.41L344.08 172.72Z"
    fill="#FF0080" />
  <g opacity="0.7">
    <path
      d="M344.08 172.72C341.945 172.77 339.857 173.359 338.011 174.432C336.164 175.506 334.619 177.029 333.52 178.86C330.26 183.71 324.52 192 324.52 192L335.27 195.41L344.08 172.72Z"
      fill="white" />
  </g>
  <path
    d="M363 212C363 217.64 363.73 254.11 363.73 254.11C363.87 255.73 365.39 258.72 365.06 264.95C364.61 273.42 363.88 296.95 363.88 296.95C363.88 296.95 361.11 299.7 357.2 296.95C357.2 296.95 351.85 265 350.8 256.61C349.87 249.29 348.31 229.41 348.31 229.41L342.84 252.82C342.84 252.82 343.84 258.32 344.01 262.2C344.18 266.08 343.01 288.52 343.01 288.52C342.053 289.118 340.956 289.456 339.828 289.5C338.701 289.543 337.581 289.292 336.58 288.77C336.58 288.77 331.84 255.99 331.23 252.48C330.62 248.97 335.39 212 335.39 212H363Z"
    fill="#FF0080" />
  <path opacity="0.2"
    d="M363 212C363 217.64 363.73 254.11 363.73 254.11C363.87 255.73 365.39 258.72 365.06 264.95C364.61 273.42 363.88 296.95 363.88 296.95C363.88 296.95 361.11 299.7 357.2 296.95C357.2 296.95 351.85 265 350.8 256.61C349.87 249.29 348.31 229.41 348.31 229.41L342.84 252.82C342.84 252.82 343.84 258.32 344.01 262.2C344.18 266.08 343.01 288.52 343.01 288.52C342.053 289.118 340.956 289.456 339.828 289.5C338.701 289.543 337.581 289.292 336.58 288.77C336.58 288.77 331.84 255.99 331.23 252.48C330.62 248.97 335.39 212 335.39 212H363Z"
    fill="black" />
  <path
    d="M354.12 172.9C359.41 174.17 366.12 176.31 368.48 181.19C370.84 186.07 374.48 193.98 374.48 193.98L365.72 199.16L363 194.48V212C358.86 216.5 344.42 218.6 335.38 212V183.16C335.38 178.57 337.94 173.04 344.99 172.63L354.12 172.9Z"
    fill="#FF0080" />
  <path opacity="0.7"
    d="M354.12 172.9C359.41 174.17 366.12 176.31 368.48 181.19C370.84 186.07 374.48 193.98 374.48 193.98L365.72 199.16L363 194.48V212C358.86 216.5 344.42 218.6 335.38 212V183.16C335.38 178.57 337.94 173.04 344.99 172.63L354.12 172.9Z"
    fill="white" />
  <path
    d="M356.11 149.36C356.585 149.305 357.066 149.36 357.516 149.519C357.967 149.679 358.375 149.939 358.71 150.28C359.83 151.42 359.6 153.54 358.71 158.4L355.25 158.8L356.11 149.36Z"
    fill="#263238" />
  <path
    d="M336 148C335.258 148.009 334.522 147.863 333.84 147.57C332.78 146.96 332.5 148.16 333.08 149.21C333.464 149.959 334.033 150.597 334.733 151.065C335.433 151.532 336.241 151.813 337.08 151.88C337.08 151.73 338.08 149.18 338.08 149.18L336 148Z"
    fill="#263238" />
  <path
    d="M354.49 158.8C355 159.11 355.73 158.12 356.36 157.46C356.609 157.176 356.926 156.96 357.281 156.832C357.636 156.704 358.018 156.668 358.391 156.728C358.764 156.788 359.115 156.942 359.412 157.175C359.709 157.408 359.943 157.712 360.09 158.06C361.14 160.27 358.76 163.22 357.36 164.19C356.969 164.528 356.481 164.734 355.965 164.779C355.45 164.824 354.934 164.705 354.49 164.44L354.12 172.9C353.502 174.256 352.557 175.437 351.371 176.337C350.184 177.238 348.792 177.83 347.32 178.06C342.32 178.73 343.37 174.64 345 172.63V169.55C343.759 169.819 342.483 169.886 341.22 169.75C340.57 169.58 339.03 167.75 338.03 165.62C336.91 163.27 335.03 159.1 336.71 152.05C338.49 144.48 346.62 144.25 351.48 147.3C356.34 150.35 354.49 158.8 354.49 158.8Z"
    fill="#FFA8A7" />
  <path
    d="M354.49 159.66C354.74 159.66 355.73 158.04 356.36 157.46C357.25 156.65 356.11 149.36 356.11 149.36C356.11 149.36 357 146.6 355.25 144.76C353.5 142.92 350.12 143.24 347.64 143.15C344.596 143.165 341.581 142.56 338.78 141.37C335.26 139.84 335 139.66 334.56 141.21C334.12 142.76 333.96 146.29 336.06 148.66L337.81 149.31C337.81 149.31 338.75 150.14 342.03 150.54C345.062 150.77 348.109 150.713 351.13 150.37C352.08 150.24 352.28 151.16 352.79 153.68C353.25 155.9 353.62 159.65 354.49 159.66Z"
    fill="#263238" />
  <path
    d="M356.1 149.93L359.2 148.26C359.101 148.052 358.961 147.866 358.789 147.713C358.616 147.561 358.414 147.445 358.195 147.373C357.976 147.301 357.745 147.274 357.516 147.294C357.286 147.315 357.063 147.381 356.86 147.49C356.444 147.721 356.132 148.103 355.991 148.558C355.849 149.012 355.888 149.504 356.1 149.93Z"
    fill="#263238" />
  <path
    d="M345 169.55C347.121 169.15 349.2 168.554 351.21 167.77C352.157 167.28 352.932 166.512 353.43 165.57C353.189 166.512 352.76 167.397 352.17 168.17C350.99 169.67 345 170.78 345 170.78V169.55Z"
    fill="#F28F8F" />
  <path
    d="M346.12 157.65C346.116 157.773 346.137 157.896 346.181 158.011C346.226 158.126 346.293 158.231 346.379 158.32C346.465 158.409 346.567 158.479 346.681 158.527C346.795 158.575 346.917 158.6 347.04 158.6C347.243 158.616 347.445 158.57 347.621 158.468C347.797 158.366 347.937 158.213 348.024 158.029C348.11 157.845 348.139 157.64 348.106 157.439C348.072 157.239 347.979 157.053 347.837 156.907C347.696 156.762 347.514 156.662 347.315 156.622C347.115 156.583 346.909 156.605 346.722 156.685C346.536 156.766 346.378 156.901 346.271 157.074C346.163 157.246 346.111 157.447 346.12 157.65Z"
    fill="#263238" />
  <path
    d="M347.09 154.17L349.09 155.26C349.228 154.989 349.258 154.675 349.172 154.383C349.087 154.091 348.893 153.843 348.63 153.69C348.499 153.615 348.353 153.567 348.202 153.551C348.052 153.534 347.9 153.549 347.755 153.594C347.611 153.639 347.477 153.713 347.362 153.813C347.248 153.912 347.155 154.033 347.09 154.17Z"
    fill="#263238" />
  <path
    d="M346.19 163.9L344.08 164.69C344.127 164.83 344.202 164.96 344.3 165.071C344.397 165.182 344.516 165.273 344.649 165.338C344.782 165.403 344.927 165.442 345.074 165.45C345.222 165.459 345.37 165.439 345.51 165.39C345.793 165.276 346.021 165.058 346.147 164.781C346.274 164.503 346.289 164.188 346.19 163.9Z"
    fill="#F28F8F" />
  <path
    d="M337.9 154.94L339.69 153.55C339.606 153.429 339.498 153.326 339.373 153.248C339.247 153.17 339.108 153.118 338.962 153.096C338.816 153.073 338.667 153.081 338.524 153.118C338.381 153.154 338.247 153.22 338.13 153.31C337.889 153.5 337.731 153.775 337.688 154.079C337.645 154.383 337.721 154.691 337.9 154.94Z"
    fill="#263238" />
  <path
    d="M338.45 157.39C338.45 157.511 338.474 157.63 338.52 157.742C338.566 157.854 338.634 157.955 338.72 158.041C338.805 158.126 338.907 158.194 339.018 158.24C339.13 158.286 339.249 158.31 339.37 158.31C339.491 158.31 339.611 158.286 339.722 158.24C339.834 158.194 339.935 158.126 340.021 158.041C340.106 157.955 340.174 157.854 340.22 157.742C340.266 157.63 340.29 157.511 340.29 157.39C340.294 157.267 340.273 157.144 340.229 157.029C340.185 156.914 340.117 156.809 340.032 156.72C339.946 156.631 339.843 156.561 339.729 156.513C339.616 156.465 339.494 156.44 339.37 156.44C339.123 156.445 338.887 156.548 338.715 156.726C338.543 156.904 338.448 157.142 338.45 157.39Z"
    fill="#263238" />
  <path d="M343.14 156.51L342.84 162.06L339.95 161.07L343.14 156.51Z" fill="#F28F8F" />
  <path d="M319.06 189.91L342.64 196.12L349.6 225.39L327.18 218.88L319.06 189.91Z" fill="#FF0080" />
  <path
    d="M329.34 209.28C328.925 210.021 328.297 210.62 327.538 211C326.778 211.379 325.922 211.522 325.08 211.41L324.74 210.2L329.34 209.28Z"
    fill="#FF0080" />
  <path
    d="M334.61 210.2C334.71 210.98 336.32 212.42 339.03 213.32C342.11 214.32 346.84 213.81 346.84 213.81L346.42 212.35L334.61 210.2Z"
    fill="#FF0080" />
  <path opacity="0.43"
    d="M326 194.15L325.8 193.25C325.7 192.75 327.08 192.73 328.9 193.2L332.37 194.1C334.19 194.58 335.74 195.36 335.85 195.86L336.05 196.76L326 194.15Z"
    fill="#455A64" />
  <path
    d="M324.32 190.76C324.26 190.45 324.82 190.37 325.58 190.58L327 191C327 191 326.59 189 329.65 189.73C330.466 189.85 331.238 190.18 331.89 190.686C332.541 191.192 333.051 191.859 333.37 192.62L334.84 193.04C335.65 193.27 336.38 193.7 336.48 194.04L336.65 194.6L324.5 191.4L324.32 190.76Z"
    fill="#37474F" />
  <path
    d="M326 191.73C327.11 192 327.57 192.15 327.74 192.91C327.91 193.67 328.01 194.43 328.01 194.43L333.38 195.85C333.38 195.85 333.12 194.74 333.04 194.31C332.96 193.88 333.14 193.62 334.04 193.84L334.11 193.5L325.68 191.36L326 191.73Z"
    fill="#37474F" />
  <path
    d="M325.81 194.24L325.62 193.34C325.51 192.84 326.89 192.82 328.71 193.29L332.18 194.19C334 194.66 335.56 195.44 335.67 195.94L335.86 196.84L325.81 194.24Z"
    fill="#37474F" />
  <path
    d="M376.51 210.2L368.59 204.07C368.59 204.07 351.99 207.19 350.12 207.34C348.25 207.49 346.77 205.64 346.06 203.8C345.35 201.96 343.91 202.19 343.91 202.19C343.91 202.19 344.46 204.53 344.64 205.27C344.82 206.01 340.49 206.62 338 205.78C335.51 204.94 331.9 206.16 334.13 209.56C336.36 212.96 340.72 213.34 343.74 213.35C345.004 213.338 346.266 213.251 347.52 213.09C348.52 212.97 349.52 212.87 350.45 212.8C356.63 212.36 373.7 211.08 376.51 210.2Z"
    fill="#FFA8A7" />
  <path
    d="M321.45 198.47L322.5 202.2C322.7 202.92 325.44 204.2 327.18 204.7C328.92 205.2 330.81 205.7 329.99 208.17C329.23 210.4 326.38 210.91 324.93 210.85C323.953 210.685 323.041 210.253 322.295 209.602C321.548 208.95 320.996 208.105 320.7 207.16C319.7 204.31 320.24 201.26 319.84 199.59C319.44 197.92 320.59 197.48 321.45 198.47Z"
    fill="#F28F8F" />
  <path
    d="M357.49 301.57V300.72C356.93 300.97 355.61 305.98 353.27 308.11C351.41 309.81 348.87 311.78 348.27 313.67C347.67 315.56 351.81 316.73 353.55 316.42C355.55 316.06 359.08 314.64 359.96 313.32C360.84 312 361.25 310.05 361.96 309.08C362.67 308.11 364.32 307.08 364.71 305.92C364.826 304.874 364.71 303.816 364.37 302.82C364.1 301.77 363.8 300.63 363.45 300.72C363.45 300.85 363.45 301.37 363.45 301.37C362.592 302.034 361.534 302.387 360.45 302.37C359.58 302.4 357.48 302.23 357.49 301.57Z"
    fill="#37474F" />
  <path
    d="M337 292.22C336.69 292.22 336.44 292.66 335.77 293.39C334.758 294.412 333.582 295.257 332.29 295.89C330.08 297 325.79 298.7 323.84 299.58C322.62 300.13 322.68 301.58 323.94 302.43C325.2 303.28 328.23 303.87 331.87 303.05C333.87 302.61 336.44 300.78 338.07 300.87C339.7 300.96 342.76 300.95 343.97 300.12C345.18 299.29 344.69 297.51 344.35 295.98C344.01 294.45 343.45 291.77 342.9 291.88V292.41C342.19 293.48 338.57 293.92 337.01 293.13L337 292.22Z"
    fill="#37474F" />
  <path
    d="M81.3099 288.63L84.9999 293.76C83.3176 294.537 81.4826 294.926 79.6299 294.9C76.3299 295.03 75.4199 293.9 75.2999 293.68C74.7399 292.49 75.6099 290.33 75.8499 288.47L81.3099 288.63Z"
    fill="#37474F" />
  <path
    d="M75.2998 283.47C75.2998 283.47 75.8598 288.13 75.8998 289.13C75.9398 290.13 80.4498 290.46 81.3098 288.63L81.4398 282.93L75.2998 283.47Z"
    fill="#F28F8F" />
  <path
    d="M75.2998 191.66C72.2198 196.46 69.2998 200.66 68.6598 206.08C67.3398 217.47 71.6598 230.49 72.5898 238.91C70.8412 241.313 69.83 244.172 69.6798 247.14C69.6798 250.62 75.2998 283.47 75.2998 283.47C75.2998 283.47 79.3798 284.72 81.4398 282.93L85.2998 222.5L83.2998 215.14L75.2998 191.66Z"
    fill="#FF0080" />
  <path opacity="0.5"
    d="M75.2998 191.66C72.2198 196.46 69.2998 200.66 68.6598 206.08C67.3398 217.47 71.6598 230.49 72.5898 238.91C70.8412 241.313 69.83 244.172 69.6798 247.14C69.6798 250.62 75.2998 283.47 75.2998 283.47C75.2998 283.47 79.3798 284.72 81.4398 282.93L85.2998 222.5L83.2998 215.14L75.2998 191.66Z"
    fill="white" />
  <path d="M103.77 169.15L124.08 178.9L111.89 206.31L92.9497 195.38L103.77 169.15Z" fill="#FF0080" />
  <path d="M121.69 179.4L111.17 202.76L96.5898 194.36L104.86 171.37L121.69 179.4Z" fill="#FF0080" />
  <path d="M104.86 171.37L121.69 179.4L110.33 203.01L94.4097 193.92L104.86 171.37Z" fill="white" />
  <path
    d="M108.52 174.75L108.91 173.91C109.13 173.45 110.52 173.64 112.02 174.35L114.89 175.71C116.39 176.41 117.42 177.37 117.21 177.83L116.81 178.67L108.52 174.75Z"
    fill="#E0E0E0" />
  <path
    d="M68.41 179C66.93 183.22 64 189.92 64.94 191.27C65.88 192.62 71.52 192.33 74.66 192.21C78.66 192.06 81.98 191.9 81.98 191.9L81.31 184.9H75.63L78.13 177.82L68.41 179Z"
    fill="#F28F8F" />
  <path
    d="M74.0996 164C72.0296 167.4 67.8496 179.4 67.8496 179.4C69.011 180.717 70.5514 181.643 72.2596 182.05C73.7514 182.508 75.3366 182.57 76.8596 182.23L81.4796 170.73L74.0996 164Z"
    fill="#FF0080" />
  <path opacity="0.4"
    d="M74.0996 164C72.0296 167.4 67.8496 179.4 67.8496 179.4C69.011 180.717 70.5514 181.643 72.2596 182.05C73.7514 182.508 75.3366 182.57 76.8596 182.23L81.4796 170.73L74.0996 164Z"
    fill="black" />
  <path
    d="M94.7699 166.14C98.3999 167.23 100.61 167.42 104.62 173.59C108.63 179.76 117.41 192 118.28 193.47C119.49 195.47 120.01 197.95 118.97 199.83C117.93 201.71 115.16 200.83 111.18 197.32C107.2 193.81 99.6999 184.4 99.6999 184.4C99.6999 184.4 91.8799 175.59 94.7699 166.14Z"
    fill="#FFA8A7" />
  <path d="M91.8696 158.14L90.8896 166.81L82.3296 167.8L83.5696 156.29L91.8696 158.14Z"
    fill="#FFA8A7" />
  <path
    d="M73.5596 145.47C74.2696 137.47 78.5596 134.16 81.9696 133.37C88.7396 131.77 94.7796 134.23 97.5196 138.98C98.2396 140.23 99.4496 144.91 97.0396 147.67C94.6296 150.43 73.5596 145.47 73.5596 145.47Z"
    fill="#263238" />
  <path
    d="M98.1899 148.29C98.1899 148.29 99.9699 151.29 99.6999 151.63C99.2267 151.905 98.7088 152.094 98.1699 152.19L98.1899 148.29Z"
    fill="#F28F8F" />
  <path
    d="M92.7898 138.64C94.6298 139.73 97.7898 141.72 98.2198 148.72C98.6698 155.91 97.2998 158.12 96.2198 159C95.5298 159.6 91.9898 159.4 90.2198 158.75C88.0498 157.93 83.2198 155.7 81.1398 151.88C78.7398 147.39 78.5298 141.58 81.7098 139.49C83.3311 138.416 85.2001 137.774 87.1393 137.625C89.0785 137.476 91.0236 137.826 92.7898 138.64Z"
    fill="#FFA8A7" />
  <path
    d="M93.33 139C93.33 139 94.6 145.61 92.4 149.61C92.4 149.61 91.4 147 89.16 147.61C86.92 148.22 86.95 151.16 88.6 152.76C89.018 153.215 89.5561 153.543 90.1524 153.706C90.7486 153.869 91.3787 153.86 91.97 153.68C91.6591 155.739 90.6992 157.645 89.23 159.12C86.8979 159.66 84.4608 159.529 82.1996 158.743C79.9384 157.958 77.9453 156.549 76.45 154.68C71.45 148.74 72.76 138.68 80.69 136.52C88.62 134.36 93.33 139 93.33 139Z"
    fill="#263238" />
  <path
    d="M84.7897 291.3C84.7897 291.3 89.2697 291.01 92.3597 290.62C95.4497 290.23 97.8997 291.74 97.1697 293.02C96.4397 294.3 94.7397 295.35 92.0897 296.24C89.8197 297.01 87.0897 297.56 84.7297 298.24C82.3697 298.92 80.7297 299.8 79.3597 299.33C77.8297 298.8 77.1697 298.19 77.2997 297.07C77.6336 295.477 78.0475 293.902 78.5397 292.35L84.7897 291.3Z"
    fill="#37474F" />
  <path
    d="M79.8398 286.34L78.2299 293.41C78.2299 293.41 78.0799 294.27 81.7599 294.82C85.4399 295.37 91.2199 292.9 92.2099 292.39C93.1999 291.88 93.3099 290.89 89.6899 291.09C86.0699 291.29 84.7899 291.3 84.7899 291.3L85.9999 288.16L79.8398 286.34Z"
    fill="#FFA8A7" />
  <path
    d="M85.2998 222.5L83.2998 215.14C79.4704 214.132 75.777 212.665 72.2998 210.77C72.2998 210.77 74.3798 214.56 80.2998 216.63L83.4098 226.09L83.6798 247.73L85.2998 222.5Z"
    fill="#FF0080" />
  <path
    d="M75.2998 191.66C73.6498 194.35 69.7098 198.96 70.5398 203.38C71.5398 208.75 74.4497 212.51 83.2697 215.14L91.5498 245.14C91.5498 245.14 87.2398 249.14 85.9198 253.01C84.5998 256.88 79.8397 286.37 79.8397 286.37C79.8397 286.37 81.3098 288.77 85.9598 288.19C85.9598 288.19 102.17 251.19 103.32 248.78C104.692 246.353 105.176 243.525 104.69 240.78C104.18 236.89 98.6898 194.42 98.6898 194.42L75.2998 191.66Z"
    fill="#FF0080" />
  <path opacity="0.5"
    d="M75.2998 191.66C73.6498 194.35 69.7098 198.96 70.5398 203.38C71.5398 208.75 74.4497 212.51 83.2697 215.14L91.5498 245.14C91.5498 245.14 87.2398 249.14 85.9198 253.01C84.5998 256.88 79.8397 286.37 79.8397 286.37C79.8397 286.37 81.3098 288.77 85.9598 288.19C85.9598 288.19 102.17 251.19 103.32 248.78C104.692 246.353 105.176 243.525 104.69 240.78C104.18 236.89 98.6898 194.42 98.6898 194.42L75.2998 191.66Z"
    fill="white" />
  <path
    d="M73.8 164.62C74.44 162.92 76.4799 161.5 78.3199 162C84.0899 163.57 93.0599 165.64 94.7699 166.14C94.7699 166.14 94.01 179.14 100.65 183.02C100.34 185.49 98.65 194.35 98.65 194.35C98.65 194.35 90.6499 198.23 84.0899 196.35C77.5299 194.47 75.3 191.69 75.3 191.69L78.5899 186.33C77.8899 184.58 75.1699 178.67 73.4199 173.17C72.7764 170.338 72.9077 167.384 73.8 164.62Z"
    fill="#FF0080" />
  <path opacity="0.2"
    d="M73.8 164.62C74.44 162.92 76.4799 161.5 78.3199 162C84.0899 163.57 93.0599 165.64 94.7699 166.14C94.7699 166.14 94.01 179.14 100.65 183.02C100.34 185.49 98.65 194.35 98.65 194.35C98.65 194.35 90.6499 198.23 84.0899 196.35C77.5299 194.47 75.3 191.69 75.3 191.69L78.5899 186.33C77.8899 184.58 75.1699 178.67 73.4199 173.17C72.7764 170.338 72.9077 167.384 73.8 164.62Z"
    fill="black" />
  <path opacity="0.25"
    d="M77.6899 184.19C80.4246 185.835 83.2911 187.25 86.2599 188.42C83.5659 188.368 80.9283 187.639 78.5899 186.3L77.6899 184.19Z"
    fill="#FF0080" />
  <path
    d="M79.3898 135.15C79.3898 135.15 76.6498 130.48 69.9398 131.69C63.2298 132.9 60.5098 140.02 60.6098 144.53C60.7098 149.04 62.2198 152.19 58.1798 157.53C57.3835 158.583 56.8224 159.795 56.5344 161.083C56.2463 162.372 56.238 163.707 56.5101 164.999C56.7821 166.291 57.3281 167.509 58.1113 168.572C58.8944 169.635 59.8965 170.517 61.0498 171.16C66.4398 174.16 67.7498 168.94 66.4998 164.48C65.0598 159.37 70.4098 158.48 71.8398 154.61C73.2698 150.74 70.4598 142.61 72.2598 139.85C74.2598 136.85 76.9598 137.27 78.2598 138.29L79.3898 135.15Z"
    fill="#263238" />
  <path
    d="M94.7699 166.14C96.5633 166.521 98.315 167.077 99.9999 167.8C102.2 168.88 110.78 182.35 110.78 182.35C110.78 182.35 110.17 187.42 103.15 189.43L98.9999 184.19C98.9999 184.19 92.8999 175.08 94.7699 166.14Z"
    fill="#FF0080" />
  <path opacity="0.1"
    d="M94.7699 166.14C96.5633 166.521 98.315 167.077 99.9999 167.8C102.2 168.88 110.78 182.35 110.78 182.35C110.78 182.35 110.17 187.42 103.15 189.43L98.9999 184.19C98.9999 184.19 92.8999 175.08 94.7699 166.14Z"
    fill="black" />
  <path
    d="M100.22 185.77C98.376 183.624 96.9848 181.127 96.1299 178.43C96.1299 178.43 96.1299 184.25 99.9599 187.26L100.22 185.77Z"
    fill="#FF0080" />
  <path opacity="0.4"
    d="M100.22 185.77C98.376 183.624 96.9848 181.127 96.1299 178.43C96.1299 178.43 96.1299 184.25 99.9599 187.26L100.22 185.77Z"
    fill="black" />
  <path
    d="M109.25 171.13C109.38 170.84 109.99 170.86 110.61 171.13L111.73 171.68C111.73 171.68 112.6 169.87 115.2 170.96C117.8 172.05 117 174.14 117 174.14L118.19 174.75C118.85 175.08 119.29 175.59 119.19 175.89L118.99 176.42L108.99 171.62L109.25 171.13Z"
    fill="#455A64" />
  <path
    d="M110.27 172.27C111.21 172.69 111.57 172.89 111.27 173.61C110.97 174.33 110.54 175.02 110.54 175.02L114.96 177.14C114.96 177.14 115.43 176.14 115.63 175.7C115.83 175.26 116.19 175.09 116.89 175.43L117.19 175.13L110.19 171.88L110.27 172.27Z"
    fill="#455A64" />
  <path
    d="M108.44 174.5L108.84 173.66C109.06 173.19 110.45 173.39 111.95 174.1L114.82 175.46C116.31 176.16 117.35 177.11 117.13 177.58L116.73 178.42L108.44 174.5Z"
    fill="#455A64" />
</svg>
